<?xml version="1.0" encoding="UTF-8"?>
<svg id="Layer_2" data-name="Layer 2" xmlns="http://www.w3.org/2000/svg" xmlns:xlink="http://www.w3.org/1999/xlink" viewBox="0 0 291.98 300.01">
  <defs>
    <style>
      .cls-1 {
        mask: url(#mask-1);
      }

      .cls-2 {
        fill: #fff;
      }

      .cls-3 {
        mask: url(#mask);
      }
    </style>
    <mask id="mask" x="0" y="0" width="292" height="300.01" maskUnits="userSpaceOnUse">
      <g id="mask0_451_3915" data-name="mask0 451 3915">
        <path class="cls-2" d="M292,0H0v300h292V0Z"/>
      </g>
    </mask>
    <mask id="mask-1" x="0" y="0" width="292" height="300.01" maskUnits="userSpaceOnUse">
      <g id="mask1_451_3915" data-name="mask1 451 3915">
        <path class="cls-2" d="M292,0H0v300h292V0Z"/>
      </g>
    </mask>
  </defs>
  <g id="Layer_1-2" data-name="Layer 1">
    <g class="cls-3">
      <g class="cls-1">
        <g>
          <path class="cls-2" d="M146.14,0c-15.79,0-28.6,12.89-28.6,28.78s12.81,28.78,28.6,28.78,28.59-12.89,28.59-28.78S161.93,0,146.14,0ZM149.31,49.08c-.54-1.62-2.06-2.78-3.85-2.78s-3.15,1.05-3.76,2.54c-7.28-1.63-13.1-7.17-15.17-14.31.73-.74,1.18-1.76,1.18-2.88,0-1.49-.79-2.79-1.98-3.51.29-9.6,7.16-17.56,16.22-19.47.7,1.22,2.01,2.04,3.51,2.04,1.59,0,2.96-.92,3.63-2.26,9.57,1.4,17.02,9.51,17.44,19.42-1.46.62-2.48,2.07-2.48,3.77,0,1.32.63,2.49,1.6,3.24-2.28,7.38-8.59,12.98-16.33,14.2"/>
          <path class="cls-2" d="M94.06,31.64c-.74-1.96-1.88-3.31-2.08-3.55,1.01.93,1.76,2.16,2.08,3.55Z"/>
          <path class="cls-2" d="M56.76,189.18c7.91,0,14.35,6.48,14.35,14.44s-6.44,14.44-14.35,14.44-14.35-6.48-14.35-14.44,6.44-14.44,14.35-14.44ZM56.76,183.4c-11.1,0-20.1,9.06-20.1,20.22s9,20.22,20.1,20.22,20.1-9.06,20.1-20.22-9-20.22-20.1-20.22Z"/>
          <path class="cls-2" d="M81.59,238.32c6.09,0,11.04,4.98,11.04,11.11s-4.95,11.11-11.04,11.11-11.04-4.99-11.04-11.11,4.95-11.11,11.04-11.11ZM81.59,233.87c-8.54,0-15.46,6.97-15.46,15.55s6.92,15.55,15.46,15.55,15.46-6.96,15.46-15.55-6.92-15.55-15.46-15.55Z"/>
          <path class="cls-2" d="M63.27,176.56c.45,4.6-4.69,8.87-11.48,9.55-6.8.68-12.67-2.5-13.13-7.1-.45-4.6,4.69-8.87,11.49-9.55,6.8-.68,12.67,2.5,13.13,7.1"/>
          <path class="cls-2" d="M79.7,223.61c2.12,4.29-1.32,10.34-7.66,13.51-6.35,3.17-13.21,2.26-15.32-2.04-2.12-4.29,1.32-10.34,7.66-13.51,6.35-3.17,13.21-2.26,15.32,2.04Z"/>
          <path class="cls-2" d="M107.93,255.11c3.4,2.96,2.61,9.49-1.77,14.58-4.38,5.09-10.68,6.83-14.09,3.86-3.4-2.96-2.61-9.49,1.77-14.58,4.38-5.09,10.68-6.83,14.08-3.86"/>
          <path class="cls-2" d="M148.55,184.43v2.4c0,5.24,4.44,5.5,4.44,5.5-.89,1.28-4.31,1.4-4.31,1.4-.13,2.69-2.4,3.7-2.4,3.7,0,0-2.28-1.02-2.41-3.7,0,0-3.43-.13-4.31-1.4,0,0,4.44-.26,4.44-5.5v-2.04l4.56-.36Z"/>
          <path class="cls-2" d="M104.17,227.15c0,1.67-1.34,3.02-3,3.02s-3-1.35-3-3.02,1.34-3.02,3-3.02,3,1.35,3,3.02Z"/>
          <path class="cls-2" d="M187.53,227.15c0,1.67,1.34,3.02,3,3.02s3-1.35,3-3.02-1.34-3.02-3-3.02-3,1.35-3,3.02Z"/>
          <path class="cls-2" d="M42.13,65.48c-4.29,1.65-8.4,1.31-9.17-.75-.77-2.06,2.06-5.06,6.36-6.71,4.29-1.64,8.4-1.31,9.17.75.78,2.06-2.06,5.07-6.36,6.71Z"/>
          <path class="cls-2" d="M123.38,292.38c2.72-3.12,3.92-8.27-.27-16.72.61-.87.96-1.92.96-3.06,0-2.86-2.25-5.2-5.07-5.31-.04,0-.09,0-.13,0h-.12c-2.22,0-4.29,1.38-4.99,3.51-1.2,3.68,1.49,7.07,4.97,7.07,1.4,0,2.68-.55,3.62-1.46,4.95,13.11-5.73,14.04-5.73,14.04-6.16.02-15.32-1.44-25.63-5.94h-.11s-1.54-.52-2.3-.89c-3.3-1.56-6.7-3.43-10.13-6-.43.05-.86-.23-1.3-.52-2.5-1.69-5.03-3.58-7.55-5.66h0c-.39-.33-.77-.65-1.16-.98-2.11-1.82-4.21-3.78-6.3-5.9-1.9-1.93-3.79-3.99-5.63-6.2-1.13-1.34-2.24-2.73-3.34-4.17-.99-1.3-1.98-2.64-2.95-4.02,0-.01,0-.03-.01-.04-.41-.57-.81-1.14-1.22-1.73-.44-.65-.88-1.31-1.31-1.98-1.15-1.77-2.29-3.62-3.4-5.52-1.77-3.04-3.49-6.26-5.15-9.67-.75-1.54-1.48-3.11-2.2-4.72-1.4-3.13-2.74-6.4-4.02-9.82-.93-2.49-1.84-5.06-2.93-7.71-.43-2.04-1.08-4.13-1.7-6.26-1.25-4.29-2.4-8.77-3.47-13.46-.17-.76-.34-1.52-.51-2.29-2.87-13.3-4.95-28.25-6.03-45.04.51-11.4,2.26-21.69,4.58-30.7.29-1.11.27-3.25.27-3.25,6.58-24.49,16.9-38.7,16.9-38.7,9.1-1.19,18.33-6.65,15.08-16.03-3.99-11.55-34.56,7.72-38.41,26.78l2.15-.94c-.29.58-.59,1.21-.9,1.88-.57,1.23-1.18,2.61-1.81,4.13-.3.71-.6,1.46-.9,2.23-1.76,4.48-3.62,10.03-5.26,16.59-.12.45-.23.92-.34,1.39-1.51,6.27-2.8,13.41-3.61,21.41,0,0-.42,1.34-.48,2.01-.57,5.95-.66,19.16-.66,19.16,0,0,.07,5.5,1.14,8.35h0c-.68,3.37-.37,6.83.03,10.38h0c.29,2.57.65,5.2,1.07,7.85h0v.03h0v.03c.25,1.59.51,3.21.81,4.83.36,2.04.75,4.05,1.19,6.06,7.64,36.07,24.82,66,46.51,85.82,0,0,0,0,.01,0,3.08,2.8,6.24,5.4,9.48,7.79,0,0,0,0,.01.01,1.18.87,2.36,1.7,3.56,2.51,0,0,.01.01.03.02.93.62,1.87,1.24,2.8,1.83,1.1.7,2.21,1.37,3.32,2.02,1.94,1.13,3.91,2.18,5.89,3.15,2.64,1.3,5.32,2.47,8.03,3.48,1.22.46,2.43.89,3.65,1.29,6.92,2.26,13.99,3.6,21.1,3.91,0,0,.63-.05,1.6-.27-5.83,1.89-11.09,1.63-11.09,1.63-47.63-2.1-88.99-52.7-101.15-120.73C-9.19,110.42,20.64,57.26,20.64,57.26h8.9c2.64-4.64,12.94-10.52,21.42-9.74,6.83.62,11.2,4.84,9.69,11.56-1.74,7.68-10.1,8.93-15.85,11.18l3.27,7.81s5.6,16.54,22.61,16.35c17-.2,31.3-8.17,41.93-28.98,10.63-20.82-.77-48.23-13.71-49.4-12.95-1.17-18.55,2.14-20.88,8.37-1.89,5.07,2.25,10.9,5.94,13.73-1.68-1.55-2.6-3.91-2.14-6.48.53-2.98,3.04-5.31,6.02-5.64,1.86-.21,3.6.31,4.95,1.33.18.12.34.26.51.42,0,0,.01,0,.03.03.19.24,1.34,1.59,2.08,3.54v.03c1.16,3.09,1.3,7.63-4.83,11.52,0,0-11.4,3.88-16.81-6.62,0,0-5.11-6.67-.07-16.99,2.68-5.5,7.94-9.31,13.95-10.25,6.62-1.03,16.12-.6,25.12,6.71,1.66,1.35,3.08,2.98,4.18,4.82,4.9,8.12,16.43,33.33-5.9,63.76,0,0-12.36,19.06-41.15,20.43,0,0-24.35-1.36-29.56-17.89,0,0-11.6,16.72-15.07,46.09,8.11,127.57,78.46,147.35,87.72,148.96,3.02.52,3.46.5,5.04.52.42,0,.82-.21,1.06-.54.99-1.37,1.17-2.7,1.17-2.7-20.17.39-7.46-21-7.46-21l16.98,8.55c2.53,13.28-1.13,20.97-6.42,25.42"/>
          <path class="cls-2" d="M241.02,124.95c10.72,0,19.43,8.78,19.43,19.56s-8.72,19.56-19.43,19.56-19.43-8.77-19.43-19.56,8.72-19.56,19.43-19.56ZM241.02,117.11c-15.03,0-27.22,12.27-27.22,27.39s12.18,27.39,27.22,27.39,27.22-12.27,27.22-27.39-12.18-27.39-27.22-27.39Z"/>
          <path class="cls-2" d="M249.86,65.48c4.29,1.65,8.4,1.31,9.17-.75.77-2.06-2.06-5.06-6.36-6.71-4.29-1.64-8.4-1.31-9.17.75-.78,2.06,2.06,5.07,6.36,6.71Z"/>
          <path class="cls-2" d="M168.61,292.38c-2.72-3.12-3.92-8.27.27-16.72-.61-.87-.96-1.92-.96-3.06,0-2.86,2.25-5.2,5.07-5.31.04,0,.09,0,.13,0h.12c2.22,0,4.29,1.38,4.99,3.51,1.2,3.68-1.49,7.07-4.97,7.07-1.4,0-2.68-.55-3.62-1.46-4.95,13.11,5.73,14.04,5.73,14.04,6.16.02,15.32-1.44,25.63-5.94h.11s1.54-.52,2.3-.89c3.3-1.56,6.7-3.43,10.13-6,.43.05.86-.23,1.29-.52,2.5-1.69,5.03-3.58,7.55-5.67h0c.39-.33.77-.65,1.16-.98,2.11-1.81,4.21-3.78,6.3-5.9,1.9-1.93,3.79-3.99,5.63-6.2,1.13-1.34,2.24-2.73,3.35-4.17.99-1.3,1.98-2.64,2.95-4.02,0-.01,0-.03.01-.04.41-.57.81-1.14,1.22-1.73.44-.65.88-1.31,1.31-1.98,1.15-1.77,2.29-3.62,3.4-5.52,1.77-3.04,3.49-6.26,5.15-9.67.75-1.54,1.48-3.11,2.2-4.72,1.4-3.13,2.74-6.4,4.02-9.82.93-2.49,1.84-5.06,2.32-7.71,1.04-2.04,1.68-4.13,2.3-6.26,1.25-4.29,2.4-8.77,3.47-13.46.17-.76.34-1.52.51-2.29,2.87-13.3,4.95-28.25,6.03-45.04-.51-11.4-2.26-21.69-4.58-30.7-.29-1.11-.88-3.25-.88-3.25v.34c-7.02-24.84-18.03-39.25-18.03-39.25-9.71-1.2-19.55-6.75-16.09-16.27,4.26-11.72,36.86,7.83,40.97,27.17l-2.29-.95c.31.59.62,1.22.96,1.91.61,1.24,1.26,2.65,1.93,4.19.32.73.64,1.48.96,2.26,1.88,4.54,3.86,10.18,5.61,16.83.12.46.24.93.36,1.4,1.61,6.36,2.98,13.61,3.85,21.73v-.62s-.12,1.33-.05,2c.57,5.95.05,19.16.05,19.16,0,0,.53,5.5,0,8.35h0c.15,3.37-.16,6.83-.57,10.38h0c-.29,2.57-.65,5.2-1.07,7.86h0v.03h0v.03c-.25,1.59-.51,3.2-.81,4.83-.36,2.04-.75,4.05-1.19,6.06-7.65,36.07-24.82,66-46.51,85.82,0,0,0,0-.01,0-3.08,2.8-6.24,5.4-9.48,7.79,0,0,0,0-.01.01-1.18.87-2.36,1.7-3.56,2.51,0,0-.01.01-.03.02-.93.62-1.87,1.24-2.8,1.83-1.1.7-2.21,1.37-3.32,2.02-1.94,1.13-3.91,2.18-5.89,3.15-2.64,1.3-5.32,2.47-8.03,3.48-1.22.46-2.43.89-3.65,1.29-6.92,2.26-13.99,3.59-21.1,3.91,0,0-.63-.05-1.6-.27,5.84,1.89,11.09,1.63,11.09,1.63,47.63-2.1,88.99-52.7,101.15-120.73,12.06-67.37-17.77-120.54-17.77-120.54h-8.9c-2.64-4.64-12.94-10.52-21.42-9.74-6.83.62-11.2,4.84-9.69,11.56,1.74,7.68,10.1,8.93,15.85,11.18l-3.27,7.81s-5.6,16.54-22.61,16.35c-17-.2-31.3-8.17-41.93-28.98-10.63-20.82.77-48.23,13.71-49.4,12.95-1.17,18.55,2.14,20.88,8.37,1.89,5.07-2.25,10.9-5.93,13.73,1.68-1.55,2.6-3.91,2.14-6.48-.53-2.98-3.04-5.31-6.02-5.64-1.86-.21-3.6.31-4.95,1.33-.17.12-.34.26-.51.42,0,0-.01,0-.03.03-.19.24-1.34,1.59-2.08,3.54v.03c-1.16,3.09-1.3,7.63,4.83,11.52,0,0,11.4,3.88,16.81-6.62,0,0,5.11-6.67.07-16.99-2.68-5.5-7.94-9.31-13.95-10.25-6.62-1.03-16.12-.6-25.12,6.71-1.66,1.35-3.08,2.98-4.18,4.82-4.9,8.12-16.43,33.33,5.9,63.76,0,0,12.36,19.06,41.15,20.43,0,0,24.35-1.36,29.56-17.89,0,0,11.6,16.72,15.07,46.09-8.11,127.57-78.46,147.35-87.72,148.96-3.02.52-3.46.5-5.04.52-.42,0-.82-.21-1.06-.54-.99-1.37-1.17-2.7-1.17-2.7,20.17.39,7.46-21,7.46-21l-16.98,8.55c-2.53,13.28,1.13,20.97,6.42,25.43"/>
          <path class="cls-2" d="M234.94,189.18c7.91,0,14.35,6.48,14.35,14.44s-6.44,14.44-14.35,14.44-14.35-6.48-14.35-14.44,6.44-14.44,14.35-14.44ZM234.94,183.4c-11.1,0-20.1,9.06-20.1,20.22s9,20.22,20.1,20.22,20.1-9.06,20.1-20.22-9-20.22-20.1-20.22Z"/>
          <path class="cls-2" d="M210.11,238.32c6.09,0,11.04,4.98,11.04,11.11s-4.95,11.11-11.04,11.11-11.04-4.99-11.04-11.11,4.95-11.11,11.04-11.11ZM210.11,233.87c-8.54,0-15.46,6.97-15.46,15.55s6.92,15.55,15.46,15.55,15.46-6.96,15.46-15.55-6.92-15.55-15.46-15.55Z"/>
          <path class="cls-2" d="M223.08,113.83c1.31,4.43,7.67,6.43,14.22,4.47,6.55-1.96,10.8-7.13,9.49-11.56-1.31-4.43-7.67-6.43-14.22-4.47-6.55,1.96-10.79,7.14-9.49,11.56"/>
          <path class="cls-2" d="M50.65,124.95c10.72,0,19.43,8.78,19.43,19.56s-8.72,19.56-19.43,19.56-19.43-8.77-19.43-19.56,8.72-19.56,19.43-19.56ZM50.65,117.11c-15.03,0-27.22,12.27-27.22,27.39s12.18,27.39,27.22,27.39,27.22-12.27,27.22-27.39-12.18-27.39-27.22-27.39Z"/>
          <path class="cls-2" d="M68.59,113.83c-1.31,4.43-7.67,6.43-14.22,4.47-6.55-1.96-10.8-7.13-9.49-11.56,1.31-4.43,7.67-6.43,14.22-4.47,6.55,1.96,10.8,7.14,9.49,11.56"/>
          <path class="cls-2" d="M228.43,176.56c-.45,4.6,4.69,8.87,11.48,9.55,6.8.68,12.67-2.5,13.12-7.1.45-4.6-4.69-8.87-11.49-9.55-6.8-.68-12.67,2.5-13.12,7.1"/>
          <path class="cls-2" d="M212,223.61c-2.12,4.29,1.32,10.34,7.66,13.51,6.35,3.17,13.21,2.26,15.32-2.04,2.12-4.29-1.31-10.34-7.66-13.51-6.35-3.17-13.21-2.26-15.32,2.04Z"/>
          <path class="cls-2" d="M183.77,255.11c-3.4,2.96-2.61,9.49,1.77,14.58,4.38,5.09,10.68,6.83,14.09,3.86,3.4-2.96,2.61-9.49-1.77-14.58-4.38-5.09-10.68-6.83-14.08-3.86"/>
          <path class="cls-2" d="M137.16,239.06c-1.8,2.59-8.76,2.85-8.76,2.85-.25,5.45-4.88,7.53-4.88,7.53,0,0-4.63-2.08-4.89-7.53,0,0-6.96-.26-8.76-2.85,0,0,9.02-.51,9.02-11.15v-109.18l1.14-.48v-3.68l-1.67.73c-1.42-8.1-8.94-8.53-8.94-8.53,1.83-2.65,8.91-2.91,8.91-2.91.26-5.54,4.97-7.65,4.97-7.65,0,0,4.71,2.11,4.97,7.65,0,0,7.08.26,8.91,2.91,0,0-9.17.53-9.17,11.34v109.79c0,2.29.41,4.11,1.07,5.56,2.38,5.27,7.93,5.59,7.93,5.59"/>
          <path class="cls-2" d="M109.77,118.08v99.42l-3.11-1.3-2.59-1.22v-96.89h5.7Z"/>
          <path class="cls-2" d="M108.42,111.45c0,1.55-.81,2.89-2.03,3.64-.65.4-1.41.64-2.22.64-2.34,0-4.25-1.92-4.25-4.27,0-.31.03-.61.09-.9.12-.6.37-1.14.73-1.62h0c.77-1.07,2.02-1.76,3.43-1.76,2.34,0,4.25,1.92,4.25,4.28"/>
          <path class="cls-2" d="M125.68,231.04s4.13,4.67,9.15,3.89c5.02-.78,11.78-5.06,5.79-14.2-5.99-9.14-18.36-6.81-18.36-6.81,0,0-20.29-1.69-25.12,7.96-1.05,2.1-1.07,4.62.1,6.66.96,1.67,2.7,3,5.66.87,0,0-.96,0-1.84-.94-1.47-1.56-1.07-4.12.74-5.27,3.57-2.28,11.01-6.2,18.14-4.79,9.85,1.94,10.05.58,15.45,8.75,5.41,8.17-12.72,6.58-8.41-3.02l-1.32,6.9h.01Z"/>
          <path class="cls-2" d="M166.02,231.04s-4.13,4.67-9.15,3.89c-5.02-.78-11.78-5.06-5.79-14.2,5.99-9.14,18.36-6.81,18.36-6.81,0,0,20.3-1.69,25.12,7.96,1.05,2.1,1.07,4.62-.1,6.66-.96,1.67-2.7,3-5.66.87,0,0,.96,0,1.84-.94,1.47-1.56,1.07-4.12-.74-5.27-3.57-2.28-11.01-6.2-18.14-4.79-9.85,1.94-10.05.58-15.45,8.75-5.41,8.17,12.72,6.58,8.41-3.02l1.32,6.9h-.01Z"/>
          <path class="cls-2" d="M104.17,115.72c-2.34,0-4.25-1.92-4.25-4.27,0-.31.03-.61.09-.9.33-.89.68-1.53.73-1.62h0s3.43,4.11,3.43,4.11c.7.86,1.45,1.53,2.22,2.04-.65.4-1.41.64-2.22.64"/>
          <path class="cls-2" d="M109.77,118.08v2.45c-2.74.01-4.31-.48-5.7-1.18v-1.28h5.7Z"/>
          <path class="cls-2" d="M102.76,170.46h.2l24.38,2.69c.13.01.25.01.38,0,2.1-.25,21.79-2.41,24.04,4.78.08.26.07.54-.02.79-.27.73-1.23,1.98-4.63,1.84-3.14-.13-4.03-2.29-4.26-3.75-.11-.7-.74-1.22-1.51-1.22h-.11c-.9.05-1.56.81-1.41,1.64.36,2.02,1.33,5.44,3.8,6.24,3.59,1.16,11.17,2.14,11.17-4.47s-6.72-8.76-6.72-8.76l-3.83-1.07c-.13-.03-.27-.05-.41-.05-2.86-.05-33.31-.58-41.96-4.51-9.07-4.11-.84-8.94,12.02-5.06,12.86,3.89,23.75,8.22,32.39,1.04l-2.67-2.1c-1.37,1.32-3.54,2.09-4.94,2.55-.03,0-.07.01-.11.03-.31.1-.5.17-.65.21-.31.09-.45.07-1.24.17-.43.05-.94.03-1.43,0-.07,0-.13-.01-.2-.02-.11-.01-.22-.03-.33-.04-.26-.03-.49-.06-.66-.09-.03,0-.07,0-.11-.01h-.05s-.07-.01-.11-.02c-.02,0-.04,0-.05,0h-.02c-8.18-1.32-25.43-6.5-27.8-7.22-.19-.05-.38-.07-.57-.06-1.93.15-12.43,1.32-13.09,8.74-.69,7.71,9.35,7.79,10.48,7.78"/>
          <path class="cls-2" d="M134.07,161.29c.17.03.4.07.66.09-.21-.03-.43-.06-.66-.09Z"/>
          <path class="cls-2" d="M120.03,114.28v3.8l-1.39.47-1.46.5c-3.12.92-5.51,1.3-7.41,1.31v-2.28h-5.7v1.1c-1.33-.71-2.36-1.63-3.5-2.47-2.13-1.54-1.47-4.5-.75-6.34-.06.29-.1.59-.1.9,0,2.36,1.96,4.27,4.36,4.27.83,0,1.62-.23,2.28-.64,4.97,3.3,10.72.64,10.72.64l1.29-.55,1.68-.72h0Z"/>
          <path class="cls-2" d="M155.36,239.06c1.8,2.59,8.76,2.85,8.76,2.85.25,5.45,4.88,7.53,4.88,7.53,0,0,4.63-2.08,4.89-7.53,0,0,6.96-.26,8.76-2.85,0,0-9.02-.51-9.02-11.15v-109.18l-1.14-.48v-3.68l1.67.73c1.42-8.1,8.94-8.53,8.94-8.53-1.83-2.65-8.91-2.91-8.91-2.91-.26-5.54-4.97-7.65-4.97-7.65,0,0-4.71,2.11-4.97,7.65,0,0-7.08.26-8.91,2.91,0,0,9.17.53,9.17,11.34v109.79c0,2.29-.41,4.11-1.07,5.56-2.38,5.27-7.93,5.59-7.93,5.59"/>
          <path class="cls-2" d="M181.61,118.08v99.42l3.43-1.3,2.28-1.22v-96.89h-5.7Z"/>
          <path class="cls-2" d="M183.28,111.45c0,1.55.81,2.89,2.03,3.64.65.4,1.41.64,2.22.64,2.34,0,4.25-1.92,4.25-4.27,0-.31-.03-.61-.09-.9-.12-.6-.37-1.14-.73-1.62h0c-.77-1.07-2.02-1.76-3.43-1.76-2.34,0-4.25,1.92-4.25,4.28"/>
          <path class="cls-2" d="M187.53,115.72c2.34,0,4.25-1.92,4.25-4.27,0-.31-.03-.61-.09-.9-.33-.89-.67-1.53-.73-1.62h0s-3.42,4.11-3.42,4.11c-.7.86-1.45,1.53-2.22,2.04.65.4,1.41.64,2.22.64"/>
          <path class="cls-2" d="M181.61,118.08v2.45c3.04.01,4.63-.48,5.7-1.18v-1.28h-5.7Z"/>
          <path class="cls-2" d="M188.94,170.46h-.2l-24.38,2.69c-.13.01-.25.01-.38,0-2.1-.25-21.79-2.41-24.04,4.78-.08.26-.07.54.02.79.27.73,1.23,1.98,4.63,1.84,3.14-.13,4.02-2.29,4.26-3.75.11-.7.74-1.22,1.51-1.22h.11c.9.05,1.56.81,1.42,1.64-.36,2.02-1.33,5.44-3.81,6.24-3.58,1.16-11.17,2.14-11.17-4.47s6.72-8.76,6.72-8.76l3.83-1.07c.13-.03.27-.05.41-.05,2.86-.05,33.31-.58,41.96-4.51,9.07-4.11.84-8.94-12.02-5.06-12.86,3.89-23.75,8.22-32.39,1.04l2.67-2.1c1.37,1.32,3.54,2.09,4.94,2.55.03,0,.07.01.11.03.31.1.5.17.65.21.31.09.45.07,1.24.17.43.05.94.03,1.43,0,.07,0,.13-.01.2-.02.11-.01.22-.03.33-.04.26-.03.49-.06.66-.09.03,0,.07,0,.11-.01h.05s.07-.01.11-.02c.02,0,.04,0,.05,0h.02c8.18-1.32,25.43-6.5,27.8-7.22.19-.05.38-.07.57-.06,1.93.15,12.43,1.32,13.09,8.74.69,7.71-9.35,7.79-10.48,7.78"/>
          <path class="cls-2" d="M157.63,161.29c-.17.03-.4.07-.66.09.21-.03.43-.06.66-.09Z"/>
          <path class="cls-2" d="M171.35,114.28v3.8l1.54.47,1.62.5c3.47.92,6.13,1.3,8.24,1.31v-2.28h4.56v1.1c1.34-.71,2.36-1.63,3.51-2.47,2.13-1.54,1.47-4.5.75-6.34.06.29.1.59.1.9,0,2.36-1.96,4.27-4.36,4.27-.83,0-1.62-.23-2.28-.64-4.97,3.3-10.72.64-10.72.64l-1.29-.55-1.68-.72h0Z"/>
          <path class="cls-2" d="M146,263.13c-37.87,0-68.68-41.83-68.68-93.25s30.81-93.25,68.68-93.25,68.68,41.83,68.68,93.25-30.81,93.25-68.68,93.25ZM146,79.34c-36.38,0-65.97,40.61-65.97,90.53s29.6,90.53,65.97,90.53,65.97-40.61,65.97-90.53-29.6-90.53-65.97-90.53Z"/>
          <path class="cls-2" d="M146,258.55c-35.92,0-65.15-39.78-65.15-88.68s29.23-88.69,65.15-88.69,65.15,39.78,65.15,88.69-29.23,88.68-65.15,88.68ZM146,82.52c-35.19,0-63.82,39.19-63.82,87.35s28.63,87.35,63.82,87.35,63.82-39.19,63.82-87.35-28.63-87.35-63.82-87.35Z"/>
          <path class="cls-2" d="M154.22,65.26c0,4.66-3.75,8.43-8.37,8.43s-8.37-3.78-8.37-8.43,3.75-8.43,8.37-8.43,8.37,3.78,8.37,8.43Z"/>
          <path class="cls-2" d="M115.11,296.89c2.1-.45,5.81-1.62,8.26-4.45-2.55,2.15-5.47,3.54-8.26,4.45Z"/>
          <path class="cls-2" d="M168.32,292.45c2.46,2.83,6.17,3.99,8.26,4.45-2.8-.91-5.72-2.3-8.26-4.45Z"/>
          <path class="cls-2" d="M4.69,108.38l-.03-1.28c-.28-10.61,6.64-22.15,13.22-26.78,4.05-2.85,7.69-2.89,9.99-.1,2.76,3.36,3.73,6.14,2.96,8.5-.91,2.77-4.17,4.77-10.25,6.28-8.57,2.12-9.82,8.58-9.87,8.85l-.05.28-.37.27-5.59,3.99h-.01ZM23.58,79.53c-1.83,0-3.71,1.05-4.93,1.91-6.02,4.23-12.34,14.53-12.63,24.3l3.4-2.43c.34-1.42,2.29-7.55,10.82-9.66,5.51-1.36,8.55-3.12,9.28-5.38.61-1.85-.31-4.27-2.71-7.2-.94-1.15-2.08-1.57-3.23-1.57"/>
          <path class="cls-2" d="M1.99,133.31l-.26-1.25c-2.04-9.7,2.27-21.29,7.34-27.29,3.81-4.5,7.89-5.71,10.94-3.26,2.74,2.2,4.19,4.27,4.45,6.3v.05c.15,1.27-.19,2.51-.99,3.69-1.32,1.93-3.96,3.79-8.08,5.69-3.57,1.65-6.05,4.03-7.38,7.05-.85,1.95-.86,3.45-.86,3.47v.28l-5.15,5.28ZM16.51,101.63c-2.68,0-5.27,2.63-6.46,4.04-4.65,5.48-8.61,15.84-7.28,24.83l2.96-3.04c.04-.6.21-2,.97-3.73,1.01-2.3,3.22-5.5,8.06-7.74,3.89-1.79,6.34-3.51,7.52-5.23.63-.92.88-1.83.76-2.78v-.05c-.22-1.63-1.55-3.43-3.94-5.35-.84-.68-1.72-.95-2.58-.95"/>
          <path class="cls-2" d="M5.21,150.36l-.55-1.15c-1.92-4.06-2.58-9.31-1.85-14.77.67-5.03,2.46-9.43,4.77-11.77,1.82-1.83,3.91-2.31,5.9-1.36,3.16,1.51,4.81,3.22,5.03,5.25.27,2.41-1.54,5.07-5.67,8.34-5.66,4.48-4.53,9.57-4.48,9.78l.07.27-3.22,5.42ZM11.45,122.19c-.98,0-1.96.48-2.9,1.44-4.2,4.23-6.3,15.67-3.17,23.78l1.6-2.71c-.21-1.28-.64-6.42,5.02-10.9,3.68-2.92,5.37-5.24,5.16-7.11-.17-1.49-1.6-2.89-4.26-4.16-.48-.23-.97-.34-1.44-.34"/>
          <path class="cls-2" d="M7.57,172.03l-.59-1.16c-4.37-8.6-2.94-21.08,1.29-25.26,1.59-1.56,3.49-1.88,5.37-.87,3.17,1.71,4.8,3.54,4.98,5.59.19,2.24-1.35,4.57-4.85,7.33-4.92,3.87-3.57,8.75-3.52,8.96l.08.27-2.75,5.14h0ZM11.46,145.53c-.77,0-1.52.36-2.24,1.06-3.64,3.6-4.95,14.52-1.6,22.43l1.24-2.3c-.27-1.25-.97-6.18,4.05-10.14,3.06-2.41,4.49-4.42,4.34-6.13-.13-1.53-1.57-3.04-4.27-4.5-.53-.28-1.03-.43-1.53-.43"/>
          <path class="cls-2" d="M12.53,192.54l-.79-1.04c-5.86-7.65-6.74-20.17-3.34-25.06,1.28-1.83,3.09-2.49,5.11-1.84,3.43,1.1,5.36,2.59,5.91,4.58.6,2.17-.49,4.74-3.43,8.1-4.13,4.72-1.92,9.26-1.82,9.45l.13.26-1.77,5.56h0ZM12.01,165.72c-.97,0-1.8.5-2.5,1.51-2.92,4.21-2.22,15.18,2.52,22.35l.79-2.49c-.5-1.18-2.08-5.9,2.14-10.72,2.58-2.94,3.61-5.17,3.14-6.83-.41-1.48-2.1-2.7-5.01-3.64-.38-.12-.74-.18-1.08-.18"/>
          <path class="cls-2" d="M18.43,210.98l-.79-1.04c-5.86-7.65-6.74-20.17-3.34-25.06,1.28-1.83,3.09-2.49,5.11-1.84,3.43,1.1,5.36,2.59,5.91,4.58.6,2.17-.49,4.74-3.43,8.1-4.13,4.72-1.92,9.26-1.82,9.45l.13.26-1.77,5.56h0ZM17.91,184.16c-.97,0-1.8.5-2.5,1.51-2.92,4.21-2.22,15.18,2.52,22.35l.79-2.49c-.5-1.18-2.08-5.9,2.14-10.72,2.58-2.94,3.61-5.17,3.14-6.83-.41-1.48-2.1-2.7-5.01-3.64-.38-.12-.74-.18-1.08-.18"/>
          <path class="cls-2" d="M25.46,227.27l-.82-1.04c-5.96-7.54-7.19-19.52-4.02-24.03,1.18-1.68,2.91-2.23,4.87-1.55,3.44,1.2,5.35,2.74,5.87,4.72.54,2.06-.45,4.43-3.1,7.45-3.79,4.32-1.43,8.81-1.4,8.86l.13.25-1.54,5.34h0ZM23.91,201.73c-.86,0-1.58.42-2.16,1.26-2.7,3.84-1.67,14.26,3.16,21.29l.64-2.22c-.51-1.15-2.14-5.76,1.7-10.15,2.29-2.61,3.2-4.64,2.8-6.19-.39-1.49-2.07-2.76-5-3.78-.41-.14-.79-.22-1.14-.22"/>
          <path class="cls-2" d="M33.48,242.73l-.82-1.04c-5.96-7.54-7.19-19.52-4.02-24.03,1.18-1.68,2.91-2.23,4.87-1.55,3.44,1.2,5.35,2.74,5.88,4.72.54,2.06-.45,4.43-3.1,7.45-3.77,4.29-1.5,8.67-1.4,8.85l.13.25-1.54,5.34h0ZM31.93,217.19c-.86,0-1.58.42-2.16,1.26-2.7,3.84-1.67,14.27,3.16,21.29l.64-2.22c-.51-1.15-2.15-5.76,1.7-10.15,2.29-2.61,3.2-4.64,2.8-6.19-.39-1.49-2.07-2.76-5-3.78-.41-.14-.79-.21-1.14-.21"/>
          <path class="cls-2" d="M41.34,256.29l-.83-1.04c-5.9-7.35-7.29-18.83-4.29-23.08,1.11-1.58,2.78-2.07,4.67-1.38,3.38,1.23,5.26,2.77,5.75,4.72.5,1.97-.41,4.19-2.88,6.99-3.52,4-1.26,8.2-1.16,8.38l.13.25-1.4,5.17h0ZM39.29,231.85c-.78,0-1.43.37-1.96,1.11-2.54,3.58-1.36,13.51,3.42,20.32l.55-2.01c-.51-1.12-2.17-5.56,1.46-9.7,2.11-2.4,2.95-4.27,2.58-5.74-.37-1.46-2.02-2.73-4.9-3.77-.41-.15-.79-.22-1.15-.22Z"/>
          <path class="cls-2" d="M53.94,270.05l-1.09-.77c-7.66-5.46-12.1-16.13-10.35-21.04.65-1.83,2.11-2.75,4.13-2.61,3.58.26,5.81,1.23,6.82,2.97,1.01,1.76.73,4.15-.88,7.51-2.3,4.81,1,8.24,1.14,8.38l.19.2.04,5.36h0ZM46.41,246.99c-1.23,0-2.02.56-2.43,1.71-1.48,4.15,2.34,13.38,8.77,18.63l-.02-2.08c-.79-.94-3.59-4.76-1.21-9.73,1.38-2.88,1.68-4.92.93-6.23-.75-1.3-2.68-2.07-5.73-2.29-.11,0-.21-.01-.31-.01"/>
          <path class="cls-2" d="M66.41,280.3l-1.22-.54c-8.57-3.85-14.99-13.44-14.24-18.6.28-1.92,1.54-3.11,3.54-3.37,3.56-.45,5.94.06,7.26,1.57,1.34,1.52,1.52,3.92.59,7.54-1.34,5.2,2.7,7.97,2.74,8l.23.15,1.08,5.24h0ZM56.79,259c-.64,0-1.35.05-2.12.15-1.4.18-2.17.9-2.36,2.21-.64,4.35,4.89,12.66,12.22,16.54l-.42-2.04c-.96-.77-4.45-3.96-3.07-9.31.79-3.1.7-5.15-.29-6.29-.73-.84-2.06-1.26-3.95-1.26"/>
          <path class="cls-2" d="M73.04,284.77l-1.22-.54c-5.65-2.54-9.87-8.89-9.37-12.32.2-1.36,1.09-2.21,2.5-2.39,2.4-.3,4.01.05,4.92,1.1.92,1.05,1.06,2.67.43,5.11-.81,3.18,1.58,4.86,1.68,4.93l.23.15.81,3.96h0ZM66.48,270.79c-.41,0-.86.03-1.36.09-.79.1-1.22.49-1.32,1.23-.35,2.39,2.74,7.57,7.34,10.23l-.15-.71c-1.15-.91-2.8-3.14-2.01-6.24.49-1.93.45-3.18-.14-3.86-.43-.49-1.22-.74-2.37-.74"/>
          <path class="cls-2" d="M82.05,291.52l-1.21-.54c-5.65-2.54-9.87-8.89-9.37-12.32.2-1.36,1.09-2.21,2.5-2.39,2.4-.3,4.01.05,4.92,1.1.92,1.05,1.06,2.67.43,5.11-.82,3.21,1.66,4.91,1.68,4.93l.23.15.81,3.96h0ZM75.49,277.54c-.41,0-.86.03-1.36.09-.79.1-1.21.49-1.32,1.23-.35,2.39,2.74,7.57,7.34,10.23l-.15-.71c-1.15-.91-2.8-3.14-2.01-6.24.49-1.93.45-3.18-.14-3.86-.43-.49-1.22-.74-2.37-.74Z"/>
          <path class="cls-2" d="M93.6,296.15l-1.19-.56c-4.44-2.08-7.74-7.44-7.32-10.39.17-1.2.94-2,2.12-2.18,1.9-.29,3.19-.02,3.95.83,1.06,1.18.72,3.14.37,4.5-.67,2.65,1.13,4,1.21,4.05l.23.16.63,3.57h0ZM88.57,284.28c-.34,0-.73.03-1.15.1-.59.09-.89.4-.97,1.01-.27,1.96,1.96,6.09,5.34,8.29l-.06-.34c-.63-.56-2.26-2.34-1.5-5.32.42-1.64.39-2.73-.07-3.24-.29-.33-.82-.49-1.58-.49"/>
          <path class="cls-2" d="M25.47,83.94c.59,1.58-1.14,3.71-3.89,4.76-2.74,1.05-5.45.62-6.06-.95-.59-1.58,1.14-3.71,3.89-4.76,2.74-1.05,5.45-.62,6.06.95"/>
          <path class="cls-2" d="M18.04,104.7c.51,1.34-.59,3.01-2.46,3.73-1.86.71-3.79.21-4.3-1.14-.51-1.34.59-3.01,2.46-3.73,1.86-.71,3.79-.21,4.29,1.14"/>
          <path class="cls-2" d="M13.73,124.81c.47,1.24-.47,2.74-2.08,3.36-1.62.62-3.31.12-3.78-1.12-.47-1.24.47-2.74,2.08-3.37,1.62-.62,3.31-.12,3.78,1.12"/>
          <path class="cls-2" d="M13.73,149.19c.47,1.24-.47,2.74-2.08,3.36s-3.31.12-3.78-1.12c-.47-1.24.47-2.74,2.08-3.37,1.62-.62,3.31-.12,3.78,1.12"/>
          <path class="cls-2" d="M21.45,188.08c.61,1.63-.19,3.45-1.82,4.08-1.62.62-3.44-.19-4.05-1.83-.61-1.63.19-3.46,1.82-4.08,1.62-.62,3.44.19,4.05,1.83Z"/>
          <path class="cls-2" d="M28.2,205.93c.61,1.63-.19,3.45-1.82,4.08-1.62.62-3.44-.2-4.05-1.83-.61-1.63.19-3.46,1.82-4.08,1.62-.62,3.44.2,4.05,1.83Z"/>
          <path class="cls-2" d="M34.46,222.79c.61,1.63.14,3.33-1.07,3.79-1.21.46-2.68-.48-3.3-2.12-.61-1.63-.14-3.33,1.07-3.79,1.21-.46,2.68.48,3.3,2.12Z"/>
          <path class="cls-2" d="M41.13,236.87c.61,1.63.14,3.33-1.07,3.79-1.21.46-2.68-.48-3.3-2.12-.61-1.63-.14-3.33,1.07-3.79,1.21-.46,2.68.48,3.3,2.12Z"/>
          <path class="cls-2" d="M16.42,168.83c.61,1.63-.19,3.45-1.82,4.08-1.62.62-3.44-.19-4.05-1.83-.61-1.63.19-3.46,1.82-4.08,1.62-.62,3.44.19,4.05,1.83Z"/>
          <path class="cls-2" d="M50.15,250.01c.61,1.63.14,3.33-1.07,3.79-1.21.46-2.68-.48-3.3-2.12-.61-1.63-.14-3.33,1.07-3.79,1.21-.46,2.68.48,3.3,2.12Z"/>
          <path class="cls-2" d="M59.13,264.3c-.3,1.72-1.58,2.93-2.85,2.7-1.27-.23-2.06-1.8-1.76-3.52s1.58-2.93,2.85-2.71c1.28.22,2.06,1.8,1.76,3.52"/>
          <path class="cls-2" d="M77.6,281.66c-.17.97-.89,1.66-1.61,1.53-.72-.13-1.16-1.02-.99-2,.17-.97.89-1.66,1.61-1.53.72.13,1.16,1.02.99,2Z"/>
          <path class="cls-2" d="M88.79,285.24c.52.09.83.77.71,1.5-.13.74-.65,1.26-1.18,1.17-.52-.09-.83-.77-.71-1.5.13-.74.65-1.26,1.17-1.17Z"/>
          <path class="cls-2" d="M68.02,274.82c-.19,1.07-.99,1.83-1.78,1.69-.79-.14-1.29-1.13-1.1-2.2.19-1.07.99-1.83,1.78-1.69.79.14,1.29,1.13,1.1,2.2Z"/>
          <path class="cls-2" d="M12.87,87.58c-.23-.09-.41-.3-.47-.57-.1-.43-.35-1.59,6.36-8.45,7.42-7.59,22.24-9.31,22.87-9.37l.14,1.28c-.15.02-15,1.73-22.09,9-5.75,5.89-6,7.21-6.02,7.34,0-.07-.06-.32-.34-.42l-.44,1.2h0Z"/>
          <path class="cls-2" d="M287.3,108.38l-5.96-4.25-.05-.28c-.05-.28-1.29-6.73-9.87-8.85-6.08-1.51-9.34-3.5-10.25-6.28-.77-2.36.19-5.14,2.96-8.5,2.3-2.79,5.93-2.75,9.99.1,6.58,4.62,13.49,16.17,13.22,26.78l-.03,1.28h0ZM282.58,103.33l3.4,2.43c-.29-9.78-6.62-20.08-12.63-24.3-2-1.4-5.71-3.32-8.16-.35-2.4,2.93-3.32,5.35-2.71,7.2.74,2.25,3.77,4.01,9.28,5.38,8.53,2.11,10.48,8.24,10.82,9.66"/>
          <path class="cls-2" d="M290.54,133.31l-5.15-5.29v-.28s0-1.52-.86-3.47c-1.33-3.02-3.81-5.4-7.38-7.05-4.11-1.9-6.75-3.76-8.07-5.7-.81-1.18-1.15-2.42-1-3.68v-.05c.25-2.03,1.71-4.09,4.45-6.3,3.04-2.45,7.13-1.22,10.93,3.27,5.08,5.99,9.38,17.59,7.34,27.29l-.26,1.25h0ZM285.96,127.45l2.96,3.04c1.33-8.99-2.64-19.35-7.28-24.83-1.57-1.85-5.59-5.86-9.05-3.08-2.4,1.93-3.72,3.73-3.94,5.35v.05c-.12.95.13,1.86.76,2.78,1.17,1.72,3.64,3.43,7.52,5.23,4.83,2.24,7.05,5.45,8.06,7.74.75,1.73.93,3.13.97,3.73"/>
          <path class="cls-2" d="M286.78,150.36l-3.22-5.42.07-.27c.05-.23,1.17-5.31-4.48-9.78-4.14-3.27-5.94-5.93-5.67-8.34.23-2.02,1.87-3.74,5.03-5.25,1.99-.95,4.09-.46,5.89,1.36,2.32,2.33,4.1,6.73,4.77,11.76.73,5.46.07,10.71-1.85,14.78l-.55,1.16h0ZM285.01,144.7l1.6,2.71c3.12-8.1,1.03-19.54-3.17-23.77-1.42-1.43-2.88-1.79-4.35-1.1-2.66,1.27-4.1,2.67-4.26,4.16-.21,1.87,1.48,4.2,5.16,7.11,5.66,4.48,5.23,9.62,5.02,10.9"/>
          <path class="cls-2" d="M284.43,172.03l-2.75-5.14.08-.27c.06-.21,1.4-5.09-3.52-8.96-3.51-2.76-5.05-5.09-4.85-7.34.17-2.05,1.8-3.88,4.98-5.59,1.87-1.01,3.78-.7,5.36.87,4.23,4.18,5.66,16.66,1.29,25.26l-.59,1.16h0ZM283.13,166.72l1.24,2.3c3.36-7.92,2.04-18.84-1.6-22.43-1.18-1.16-2.4-1.37-3.77-.64-2.7,1.45-4.13,2.97-4.26,4.5-.15,1.71,1.27,3.72,4.33,6.13,5.02,3.96,4.33,8.9,4.05,10.14Z"/>
          <path class="cls-2" d="M279.46,192.54l-1.77-5.56.13-.25c.1-.19,2.3-4.74-1.82-9.45-2.94-3.36-4.03-5.93-3.44-8.1.55-1.98,2.48-3.48,5.92-4.58,2.02-.65,3.85,0,5.11,1.84,3.4,4.89,2.52,17.42-3.34,25.06l-.8,1.04h0ZM279.16,187.08l.79,2.49c4.75-7.17,5.45-18.14,2.52-22.35-.95-1.36-2.12-1.79-3.58-1.32-2.92.93-4.61,2.16-5.01,3.64-.45,1.66.57,3.89,3.14,6.83,4.21,4.81,2.63,9.54,2.14,10.72Z"/>
          <path class="cls-2" d="M273.56,210.98l-1.77-5.56.13-.25c.11-.21,2.3-4.74-1.82-9.45-2.94-3.36-4.03-5.93-3.43-8.1.55-1.98,2.48-3.48,5.92-4.58,2.02-.64,3.84,0,5.11,1.84,3.4,4.89,2.52,17.42-3.34,25.06l-.79,1.03h0ZM273.26,205.52l.79,2.49c4.75-7.17,5.45-18.14,2.52-22.36-.94-1.36-2.12-1.79-3.58-1.32-2.92.93-4.61,2.16-5.01,3.64-.45,1.66.57,3.89,3.14,6.83,4.22,4.82,2.63,9.54,2.14,10.72Z"/>
          <path class="cls-2" d="M266.53,227.27l-1.54-5.34.13-.25c.1-.18,2.37-4.56-1.4-8.86-2.65-3.02-3.63-5.39-3.1-7.45.52-1.98,2.44-3.53,5.88-4.72,1.96-.68,3.69-.13,4.87,1.55,3.17,4.51,1.94,16.49-4.02,24.03l-.82,1.04h0ZM266.45,222.07l.64,2.22c4.83-7.02,5.87-17.45,3.16-21.29-.83-1.19-1.92-1.53-3.31-1.04-2.93,1.02-4.61,2.29-5,3.78-.41,1.55.51,3.57,2.8,6.19,3.85,4.39,2.21,9,1.7,10.15"/>
          <path class="cls-2" d="M258.5,242.72l-1.54-5.34.13-.25c.1-.2,2.37-4.56-1.4-8.86-2.65-3.02-3.63-5.39-3.1-7.45.52-1.98,2.44-3.53,5.87-4.72,1.96-.69,3.69-.14,4.87,1.54,3.17,4.51,1.94,16.49-4.02,24.03l-.82,1.04h0ZM258.42,237.52l.64,2.22c4.83-7.02,5.87-17.45,3.16-21.29-.83-1.19-1.92-1.53-3.31-1.04-2.93,1.02-4.61,2.29-5,3.78-.41,1.55.51,3.58,2.8,6.19,3.85,4.39,2.21,9,1.7,10.15"/>
          <path class="cls-2" d="M250.65,256.29l-1.41-5.17.13-.25c.11-.19,2.35-4.38-1.16-8.38-2.46-2.8-3.38-5.02-2.88-6.99.49-1.95,2.38-3.49,5.75-4.72,1.9-.69,3.56-.2,4.67,1.38,3,4.25,1.62,15.73-4.29,23.08l-.84,1.04h0ZM250.7,251.29l.55,2.01c4.77-6.81,5.95-16.74,3.41-20.33-.76-1.08-1.78-1.37-3.1-.89-2.88,1.05-4.53,2.32-4.9,3.77-.37,1.46.47,3.35,2.58,5.74,3.63,4.13,1.98,8.57,1.46,9.7Z"/>
          <path class="cls-2" d="M237.49,270.05l.04-5.36.2-.2c.15-.15,3.44-3.58,1.14-8.38-1.62-3.37-1.9-5.76-.88-7.51,1-1.74,3.23-2.71,6.82-2.97,2.02-.15,3.48.79,4.13,2.61,1.74,4.9-2.69,15.57-10.36,21.04l-1.09.77ZM238.63,264.98v2.35c6.42-5.25,10.24-14.49,8.76-18.63-.44-1.24-1.34-1.8-2.74-1.7-3.06.21-4.99.99-5.74,2.29-.75,1.31-.45,3.35.93,6.23,2.38,4.96-.41,8.79-1.21,9.73"/>
          <path class="cls-2" d="M225.58,280.3l1.08-5.25.23-.15c.17-.12,4.07-2.82,2.75-8-.93-3.62-.74-6.01.59-7.54,1.32-1.51,3.7-2.03,7.26-1.57,2,.26,3.26,1.45,3.54,3.37.75,5.15-5.66,14.75-14.24,18.6l-1.21.54h0ZM227.89,275.86l-.42,2.04c7.32-3.88,12.86-12.19,12.22-16.54-.19-1.31-.97-2.03-2.36-2.21-3.04-.38-5.08-.01-6.07,1.11-.99,1.14-1.09,3.19-.29,6.29,1.37,5.34-2.11,8.54-3.07,9.31"/>
          <path class="cls-2" d="M218.96,284.77l.81-3.96.23-.15c.11-.07,2.5-1.75,1.68-4.92-.63-2.43-.49-4.05.43-5.11.92-1.05,2.52-1.4,4.92-1.1,1.41.18,2.3,1.03,2.5,2.39.51,3.42-3.72,9.78-9.37,12.32l-1.21.54ZM221,281.63l-.15.71c4.6-2.65,7.7-7.84,7.34-10.23-.11-.74-.53-1.13-1.32-1.23-1.88-.24-3.14-.03-3.72.65-.59.67-.63,1.93-.14,3.86.79,3.1-.85,5.33-2.01,6.24Z"/>
          <path class="cls-2" d="M209.95,291.52l.82-3.96.23-.15c.12-.08,2.5-1.75,1.68-4.93-.63-2.43-.49-4.05.43-5.11.91-1.05,2.52-1.4,4.92-1.1,1.41.18,2.3,1.03,2.5,2.39.51,3.42-3.72,9.78-9.37,12.32l-1.21.54ZM211.98,288.38l-.15.71c4.6-2.65,7.7-7.84,7.34-10.23-.11-.74-.53-1.13-1.32-1.23-1.89-.24-3.14-.03-3.72.65-.59.67-.63,1.93-.14,3.86.79,3.1-.85,5.33-2.01,6.24Z"/>
          <path class="cls-2" d="M198.39,296.15l.63-3.58.23-.16c.09-.06,1.88-1.41,1.21-4.05-.35-1.36-.69-3.32.37-4.5.76-.85,2.06-1.11,3.95-.83,1.18.18,1.95.97,2.12,2.18.41,2.94-2.88,8.31-7.32,10.39l-1.19.55h0ZM200.27,293.34l-.06.34c3.38-2.19,5.62-6.32,5.34-8.28-.09-.61-.39-.92-.98-1.01-1.39-.21-2.31-.08-2.74.39-.46.51-.49,1.61-.07,3.24.76,2.98-.87,4.76-1.5,5.32Z"/>
          <path class="cls-2" d="M266.53,83.94c-.6,1.58,1.14,3.71,3.89,4.76,2.74,1.05,5.45.62,6.05-.95.59-1.58-1.14-3.71-3.89-4.76-2.74-1.05-5.45-.62-6.05.95"/>
          <path class="cls-2" d="M273.95,104.7c-.51,1.34.59,3.01,2.46,3.73,1.86.71,3.79.21,4.3-1.14.51-1.34-.59-3.01-2.46-3.73-1.86-.71-3.79-.21-4.29,1.14"/>
          <path class="cls-2" d="M278.26,124.81c-.47,1.24.47,2.74,2.08,3.36,1.62.62,3.31.12,3.78-1.12.47-1.24-.47-2.74-2.08-3.37-1.62-.62-3.31-.12-3.78,1.12"/>
          <path class="cls-2" d="M278.26,149.19c-.47,1.24.47,2.74,2.08,3.36,1.62.62,3.31.12,3.78-1.12.47-1.24-.47-2.74-2.08-3.37-1.62-.62-3.31-.12-3.78,1.12"/>
          <path class="cls-2" d="M270.55,188.08c-.61,1.63.19,3.45,1.82,4.08,1.62.62,3.43-.19,4.05-1.83.61-1.63-.19-3.46-1.82-4.08-1.62-.62-3.44.19-4.05,1.83Z"/>
          <path class="cls-2" d="M263.8,205.93c-.61,1.63.19,3.45,1.82,4.08,1.62.62,3.44-.2,4.05-1.83.61-1.63-.19-3.46-1.82-4.08-1.62-.62-3.43.2-4.05,1.83Z"/>
          <path class="cls-2" d="M257.53,222.79c-.61,1.63-.14,3.33,1.07,3.79,1.21.46,2.68-.48,3.3-2.12.61-1.63.14-3.33-1.07-3.79-1.21-.46-2.68.48-3.3,2.12Z"/>
          <path class="cls-2" d="M250.86,236.87c-.61,1.63-.14,3.33,1.07,3.79,1.21.46,2.68-.48,3.3-2.12.61-1.63.14-3.33-1.07-3.79-1.21-.46-2.68.48-3.31,2.12Z"/>
          <path class="cls-2" d="M275.57,168.83c-.61,1.63.19,3.45,1.82,4.08,1.62.62,3.44-.19,4.05-1.83.61-1.63-.19-3.46-1.82-4.08-1.62-.62-3.44.19-4.05,1.83Z"/>
          <path class="cls-2" d="M241.83,250.01c-.61,1.63-.14,3.33,1.07,3.79,1.21.46,2.68-.48,3.3-2.12.61-1.63.14-3.33-1.07-3.79-1.21-.46-2.68.48-3.3,2.12Z"/>
          <path class="cls-2" d="M232.86,264.3c.3,1.72,1.58,2.93,2.85,2.7,1.27-.23,2.06-1.8,1.76-3.52-.3-1.72-1.58-2.93-2.85-2.71-1.27.22-2.06,1.8-1.76,3.52"/>
          <path class="cls-2" d="M214.39,281.66c.17.97.89,1.66,1.61,1.53.72-.13,1.16-1.02.99-2-.17-.97-.89-1.66-1.61-1.53-.72.13-1.16,1.02-.99,2Z"/>
          <path class="cls-2" d="M203.2,285.24c-.52.09-.84.77-.71,1.5.13.74.65,1.26,1.18,1.17.52-.09.83-.77.71-1.5-.13-.74-.66-1.26-1.18-1.17Z"/>
          <path class="cls-2" d="M223.97,274.82c.19,1.07.99,1.83,1.78,1.69.79-.14,1.29-1.13,1.1-2.2-.19-1.07-.99-1.83-1.78-1.69-.79.14-1.29,1.13-1.1,2.2Z"/>
          <path class="cls-2" d="M279.12,87.58l-.44-1.2c-.27.1-.35.34-.34.42-.01-.13-.27-1.46-6.01-7.34-7.1-7.26-21.95-8.98-22.09-9l.14-1.28c.63.07,15.45,1.78,22.87,9.37,6.71,6.87,6.45,8.02,6.36,8.45-.06.27-.23.48-.47.57"/>
          <path class="cls-2" d="M123.38,290.88s2.02-1.15,2.13-8.68h2.62l-.73,5.46-3.55,4.63-.47-1.4Z"/>
          <path class="cls-2" d="M126.92,287.58l.75-6.53h-2.6s1.51,6.53-3.25,11.8c-8.46,6.85-18.83,3.52-18.83,3.52l-.84,2.08c-2.56-.05-5.09-.26-7.5-.56,12.92,4.69,30.67,2.08,34.84-13.11.58-1.89.82-3.86.95-5.82-.83,3.06-1.94,6.01-3.51,8.62"/>
          <path class="cls-2" d="M164.78,287.58l-.75-6.53h2.6s-1.51,6.53,3.25,11.8c8.46,6.85,18.83,3.52,18.83,3.52l.84,2.08c2.56-.05,5.09-.26,7.5-.56-12.93,4.69-30.67,2.08-34.84-13.11-.57-1.89-.81-3.86-.95-5.82.83,3.06,1.94,6.01,3.51,8.62"/>
          <path class="cls-2" d="M161.37,278.71s-.4-4.2.37-9.14h1.39l.67,13.81-1.89-.36s-.53-1.85-.54-4.33"/>
          <path class="cls-2" d="M141.3,179.29c0,.97-.54,1.75-1.21,1.75s-1.21-.79-1.21-1.75.54-1.75,1.21-1.75,1.21.79,1.21,1.75Z"/>
          <path class="cls-2" d="M152.54,179.29c0,.97-.54,1.75-1.21,1.75s-1.21-.79-1.21-1.75.54-1.75,1.21-1.75,1.21.79,1.21,1.75Z"/>
          <path class="cls-2" d="M164.68,113.46l.02-.36c.57.11,1.15.23,1.75.36l.14-2.69s-5.71-2.27-12.7-2.07c-2.48-.07-5.18.14-7.89.86-2.71-.72-5.41-.93-7.88-.86-7-.2-12.71,2.07-12.71,2.07l.14,2.69c.59-.13,1.17-.26,1.75-.36l.02.36c2.8-.66,5.45-.92,7.8-.97,1.5.03,2.84.15,3.96.29-10.72,7.4-15.15,20.15-9.31,30.89,5.93,10.89,15.35,16.86,15.35,16.86,0,0,.32-.2.88-.6.56.4.88.6.88.6,0,0,9.42-5.97,15.35-16.86,5.84-10.74,1.41-23.48-9.31-30.89,1.12-.14,2.46-.26,3.96-.29,2.35.05,5.01.32,7.8.97ZM138,148.46c-8.38-18.05,2.26-28.78,7.99-32.97,5.74,4.19,16.38,14.92,7.99,32.97,0,0-3.55,5.48-7.99,7.52-4.44-2.04-7.99-7.52-7.99-7.52Z"/>
          <path class="cls-2" d="M148.81,225.5c0,1.65-1.33,2.98-2.96,2.98s-2.96-1.34-2.96-2.98,1.33-2.98,2.96-2.98,2.96,1.34,2.96,2.98Z"/>
        </g>
      </g>
    </g>
  </g>
</svg>