<?xml version="1.0" encoding="UTF-8"?>
<svg id="Layer_2" data-name="Layer 2" xmlns="http://www.w3.org/2000/svg" viewBox="0 0 53.86 53.86">
  <defs>
    <style>
      .cls-1 {
        fill: #fffbdf;
      }
    </style>
  </defs>
  <g id="ELEMENTS">
    <g>
      <path class="cls-1" d="M32.52,15.55h-11.19c-3.19,0-5.78,2.59-5.78,5.78v11.19c0,3.19,2.59,5.78,5.78,5.78h11.19c3.19,0,5.78-2.59,5.78-5.78v-11.19c0-3.19-2.59-5.78-5.78-5.78ZM27.04,33.83c-3.81,0-6.9-3.1-6.9-6.9s3.1-6.9,6.9-6.9,6.9,3.1,6.9,6.9-3.1,6.9-6.9,6.9ZM34.35,21.2c-.91,0-1.64-.74-1.64-1.64s.74-1.64,1.64-1.64,1.64.74,1.64,1.64-.74,1.64-1.64,1.64Z"/>
      <path class="cls-1" d="M27.04,22.51c-2.44,0-4.42,1.98-4.42,4.42s1.98,4.42,4.42,4.42,4.42-1.98,4.42-4.42-1.98-4.42-4.42-4.42Z"/>
      <path class="cls-1" d="M26.93,0C12.06,0,0,12.06,0,26.93s12.06,26.93,26.93,26.93,26.93-12.06,26.93-26.93S41.8,0,26.93,0ZM40.94,32.52c0,4.64-3.78,8.42-8.42,8.42h-11.19c-4.64,0-8.42-3.78-8.42-8.42v-11.19c0-4.64,3.78-8.42,8.42-8.42h11.19c4.64,0,8.42,3.78,8.42,8.42v11.19Z"/>
    </g>
  </g>
</svg>