<?xml version="1.0" encoding="UTF-8"?>
<svg id="Layer_2" data-name="Layer 2" xmlns="http://www.w3.org/2000/svg" viewBox="0 0 53.86 53.86">
  <defs>
    <style>
      .cls-1 {
        fill: #fffbdf;
      }
    </style>
  </defs>
  <g id="ELEMENTS">
    <path class="cls-1" d="M26.93,0C12.06,0,0,12.06,0,26.93s12.06,26.93,26.93,26.93,26.93-12.06,26.93-26.93S41.8,0,26.93,0ZM20.77,35.49h-4.63v-14.87h4.63v14.87ZM18.45,18.59c-1.48,0-2.68-1.2-2.68-2.68s1.2-2.68,2.68-2.68,2.68,1.2,2.68,2.68-1.2,2.68-2.68,2.68ZM38.08,35.49h-4.62v-7.23c0-1.73-.03-3.94-2.4-3.94s-2.77,1.88-2.77,3.82v7.36h-4.62v-14.87h4.43v2.03h.06c.62-1.17,2.13-2.4,4.38-2.4,4.68,0,5.54,3.08,5.54,7.08v8.16Z"/>
  </g>
</svg>