<svg width="344" height="56" viewBox="0 0 344 56" fill="none" xmlns="http://www.w3.org/2000/svg">
<mask id="mask0_2622_665" style="mask-type:luminance" maskUnits="userSpaceOnUse" x="0" y="1" width="53" height="54">
<path d="M52.102 1.33542H0V54.6427H52.102V1.33542Z" fill="white"/>
</mask>
<g mask="url(#mask0_2622_665)">
<mask id="mask1_2622_665" style="mask-type:luminance" maskUnits="userSpaceOnUse" x="0" y="1" width="53" height="54">
<path d="M52.102 1.33542H0V54.6427H52.102V1.33542Z" fill="white"/>
</mask>
<g mask="url(#mask1_2622_665)">
<path d="M26.0838 1.33536C23.2657 1.33536 20.9719 3.63403 20.9719 6.45811C20.9719 9.28219 23.2657 11.5809 26.0838 11.5809C28.9019 11.5809 31.1957 9.28219 31.1957 6.45811C31.1957 3.63403 28.9019 1.33536 26.0838 1.33536ZM26.6518 10.0484C26.5644 9.76382 26.2804 9.5449 25.9746 9.5449C25.6687 9.5449 25.4066 9.74193 25.2973 10.0046C24.0084 9.72003 22.9599 8.73489 22.5885 7.46515C22.7196 7.3338 22.8069 7.15866 22.8069 6.96163C22.8069 6.69892 22.6759 6.45811 22.4574 6.34865C22.5011 4.64107 23.7463 3.21808 25.341 2.8897C25.4721 3.10862 25.6906 3.26186 25.9746 3.26186C26.2586 3.26186 26.4989 3.10862 26.6299 2.86781C28.3339 3.10862 29.6665 4.5535 29.7539 6.32676C29.4917 6.43622 29.317 6.69892 29.317 7.00541C29.317 7.24623 29.4262 7.44325 29.601 7.57461C29.1859 8.88813 28.0718 9.87328 26.6955 10.0922" fill="#FFFBDC"/>
<path d="M16.7775 6.96162C16.6464 6.61135 16.4498 6.37054 16.4061 6.32675C16.5809 6.50189 16.712 6.69892 16.7775 6.96162Z" fill="#FFFBDC"/>
<path d="M10.1364 34.9616C11.5564 34.9616 12.6924 36.1219 12.6924 37.523C12.6924 38.9241 11.5345 40.0844 10.1364 40.0844C8.73828 40.0844 7.58046 38.9241 7.58046 37.523C7.58046 36.1219 8.73828 34.9616 10.1364 34.9616ZM10.1364 33.9327C8.14845 33.9327 6.55371 35.5527 6.55371 37.523C6.55371 39.4933 8.17029 41.1133 10.1364 41.1133C12.1025 41.1133 13.7191 39.4933 13.7191 37.523C13.7191 35.5527 12.1025 33.9327 10.1364 33.9327Z" fill="#FFFBDC"/>
<path d="M14.5711 43.6966C15.6634 43.6966 16.5372 44.5722 16.5372 45.6669C16.5372 46.7615 15.6634 47.6371 14.5711 47.6371C13.4788 47.6371 12.605 46.7615 12.605 45.6669C12.605 44.5722 13.4788 43.6966 14.5711 43.6966ZM14.5711 42.9084C13.0419 42.9084 11.8185 44.1563 11.8185 45.6669C11.8185 47.1774 13.0637 48.4253 14.5711 48.4253C16.0785 48.4253 17.3237 47.1774 17.3237 45.6669C17.3237 44.1563 16.0785 42.9084 14.5711 42.9084Z" fill="#FFFBDC"/>
<path d="M11.2942 32.7286C11.3816 33.5386 10.4641 34.3048 9.24074 34.4362C8.01738 34.5675 6.96879 33.9984 6.90325 33.1665C6.81587 32.3564 7.73339 31.5902 8.95675 31.4589C10.1801 31.3275 11.2287 31.8967 11.2942 32.7286Z" fill="#FFFBDC"/>
<path d="M14.2215 41.0695C14.5929 41.8358 13.9812 42.9085 12.8453 43.4777C11.7093 44.0469 10.4859 43.8717 10.1146 43.1055C9.74317 42.3393 10.3549 41.2666 11.4908 40.6974C12.6268 40.1282 13.8502 40.3033 14.2215 41.0695Z" fill="#FFFBDC"/>
<path d="M19.2679 46.6739C19.8796 47.1993 19.7267 48.3596 18.9621 49.2572C18.1756 50.1548 17.0615 50.4613 16.4498 49.9358C15.8381 49.4104 15.9911 48.2502 16.7557 47.3526C17.5421 46.455 18.6562 46.1485 19.2679 46.6739Z" fill="#FFFBDC"/>
<path d="M26.5207 34.1078V34.5238C26.5207 35.4652 27.3071 35.5089 27.3071 35.5089C27.1542 35.7279 26.5425 35.7498 26.5425 35.7498C26.5207 36.2314 26.1056 36.4065 26.1056 36.4065C26.1056 36.4065 25.6906 36.2314 25.6687 35.7498C25.6687 35.7498 25.057 35.7279 24.9041 35.5089C24.9041 35.5089 25.6906 35.4652 25.6906 34.5238V34.1516L26.4989 34.086L26.5207 34.1078Z" fill="#FFFBDC"/>
<path d="M18.5907 41.7044C18.5907 42.0109 18.3504 42.2298 18.0664 42.2298C17.7824 42.2298 17.5421 41.989 17.5421 41.7044C17.5421 41.4198 17.7824 41.179 18.0664 41.179C18.3504 41.179 18.5907 41.4198 18.5907 41.7044Z" fill="#FFFBDC"/>
<path d="M33.4676 41.7044C33.4676 42.0109 33.7079 42.2298 33.9919 42.2298C34.2759 42.2298 34.5162 41.989 34.5162 41.7044C34.5162 41.4198 34.2759 41.179 33.9919 41.179C33.7079 41.179 33.4676 41.4198 33.4676 41.7044Z" fill="#FFFBDC"/>
<path d="M7.51494 12.9819C6.75034 13.2665 6.00759 13.2228 5.87651 12.8506C5.74544 12.4784 6.24789 11.953 7.01249 11.6684C7.77709 11.3838 8.51985 11.4276 8.65092 11.7998C8.78199 12.1719 8.27954 12.6973 7.51494 12.9819Z" fill="#FFFBDC"/>
<path d="M22.0205 53.3072C22.5011 52.7599 22.7195 51.8404 21.9768 50.3299C22.086 50.1766 22.1516 49.9796 22.1516 49.7826C22.1516 49.2791 21.7583 48.8631 21.2559 48.8412C21.2559 48.8412 21.2559 48.8412 21.234 48.8412C20.8408 48.8412 20.4694 49.082 20.3384 49.4542C20.1199 50.111 20.6005 50.702 21.234 50.702C21.4743 50.702 21.7146 50.6145 21.8894 50.4393C22.7632 52.7599 20.8627 52.935 20.8627 52.935C19.7704 52.935 18.1319 52.6723 16.2969 51.8842C16.2969 51.8842 16.0129 51.7966 15.8818 51.731C15.292 51.4464 14.6803 51.118 14.0686 50.6583C14.0686 50.6583 13.9157 50.6145 13.8283 50.5707C13.3914 50.2642 12.9327 49.9358 12.4739 49.5637C12.4084 49.498 12.3428 49.4542 12.2773 49.3885C11.9059 49.0601 11.5345 48.7099 11.1632 48.3377C10.8136 47.9874 10.4859 47.6371 10.1582 47.2431C9.96164 47.0023 9.76503 46.7615 9.56841 46.4988C9.39365 46.2579 9.21888 46.039 9.04412 45.7763C8.97858 45.6669 8.8912 45.5793 8.82566 45.4698C8.73828 45.3604 8.67274 45.229 8.58536 45.1196C8.38874 44.8131 8.17029 44.4847 7.97368 44.1344C7.66784 43.5871 7.34015 43.0179 7.05616 42.4268C6.92508 42.1641 6.79401 41.8795 6.66293 41.5949C6.42263 41.0476 6.18233 40.4565 5.94202 39.8436C5.76726 39.4057 5.61434 38.946 5.41773 38.4644C5.33034 38.0922 5.22112 37.72 5.11189 37.3479C4.89343 36.5816 4.67497 35.7935 4.50021 34.9616C4.47836 34.8303 4.43467 34.6989 4.41282 34.5457C3.91037 32.1813 3.53899 29.5324 3.34238 26.5332C3.42977 24.4972 3.73561 22.6802 4.15067 21.082C4.19437 20.885 4.19437 20.5128 4.19437 20.5128C5.37404 16.1563 7.20908 13.6387 7.20908 13.6387C8.82566 13.4198 10.4859 12.4565 9.8961 10.7927C9.17519 8.73488 3.73561 12.1719 3.03654 15.5433L3.42977 15.3682C3.42977 15.3682 3.32054 15.5871 3.27685 15.6966C3.16762 15.9155 3.05839 16.1563 2.94916 16.4409C2.90547 16.5723 2.83993 16.7036 2.79624 16.835C2.4904 17.6231 2.14087 18.6082 1.85687 19.7904C1.85687 19.878 1.81318 19.9436 1.79134 20.0312C1.52919 21.1477 1.28889 22.4174 1.13597 23.8404H1.07043C1.07043 23.8404 1.00489 24.0812 0.983046 24.1907C0.873817 25.2415 0.873817 27.6059 0.873817 27.6059C0.873817 27.6059 0.873817 28.591 1.07043 29.0945C0.939354 29.6856 1.00489 30.2986 1.07043 30.9335C1.11412 31.3932 1.17966 31.8529 1.26704 32.3346C1.31073 32.6192 1.35442 32.9038 1.41996 33.1884C1.4855 33.5605 1.55103 33.9108 1.63842 34.2611C2.99285 40.6755 6.0731 45.9952 9.93979 49.5199C10.4859 50.0234 11.0539 50.4831 11.6219 50.8991C11.8404 51.0523 12.037 51.2056 12.2554 51.3369C12.4302 51.4464 12.5831 51.5558 12.7579 51.6653C12.9545 51.7967 13.1511 51.9061 13.3477 52.0156C13.6973 52.2126 14.0468 52.4096 14.3963 52.5848C14.8769 52.8256 15.3357 53.0226 15.8381 53.1977C16.0566 53.2853 16.275 53.351 16.4935 53.4167C17.7387 53.8107 18.9839 54.0515 20.251 54.1172C20.251 54.1172 20.3602 54.1172 20.535 54.0734C19.4864 54.4018 18.547 54.358 18.547 54.358C10.049 53.9859 2.66517 44.9882 0.50244 32.9038C-1.63844 20.9726 3.69192 11.5152 3.69192 11.5152H5.28665C5.76726 10.6833 7.6023 9.65435 9.10965 9.7857C10.333 9.89516 11.1195 10.6395 10.8355 11.8436C10.5296 13.2009 9.02227 13.4198 8.01737 13.8357L8.6072 15.2149C8.6072 15.2149 9.6121 18.1485 12.6487 18.1266C15.6852 18.0828 18.2412 16.6817 20.1417 12.9819C22.0423 9.28218 20.0107 4.42214 17.695 4.20322C15.3794 4.00619 14.3745 4.57538 13.9594 5.69188C13.6317 6.58946 14.3526 7.61838 15.0298 8.1219C14.724 7.83731 14.5711 7.42136 14.6366 6.96162C14.724 6.43621 15.1828 6.02026 15.7071 5.95458C16.0347 5.9108 16.3406 6.02026 16.5809 6.1954C16.6027 6.1954 16.6464 6.23918 16.6683 6.26107C16.712 6.30486 16.9086 6.54567 17.0396 6.89595C17.2363 7.44325 17.28 8.25326 16.1877 8.9538C16.1877 8.9538 14.156 9.65435 13.1948 7.77163C13.1948 7.77163 12.2773 6.58946 13.1948 4.75052C13.6754 3.76537 14.6148 3.08672 15.6852 2.93347C16.8649 2.75834 18.5688 2.82401 20.1636 4.11565C20.4694 4.35646 20.7097 4.64106 20.9063 4.96944C21.7802 6.41432 23.8337 10.9022 19.8577 16.3095C19.8577 16.3095 17.6513 19.7028 12.5176 19.9436C12.5176 19.9436 8.17029 19.7028 7.23092 16.7693C7.23092 16.7693 5.15558 19.7466 4.5439 24.9569C5.98572 47.6371 18.547 51.1399 20.2073 51.4245C20.7534 51.5121 20.819 51.5121 21.103 51.5121C21.1685 51.5121 21.2559 51.4683 21.2996 51.4245C21.4743 51.1837 21.518 50.9429 21.518 50.9429C17.9135 51.0085 20.1854 47.2212 20.1854 47.2212L23.222 48.7318C23.6807 51.0961 23.0254 52.4534 22.086 53.2415" fill="#FFFBDC"/>
<path d="M43.0142 23.5559C44.9366 23.5559 46.4877 25.1102 46.4877 27.0367C46.4877 28.9632 44.9366 30.5176 43.0142 30.5176C41.0918 30.5176 39.5407 28.9632 39.5407 27.0367C39.5407 25.1102 41.0918 23.5559 43.0142 23.5559ZM43.0142 22.1548C40.3272 22.1548 38.1645 24.344 38.1645 27.0148C38.1645 29.6857 40.349 31.8749 43.0142 31.8749C45.6794 31.8749 47.864 29.6857 47.864 27.0148C47.864 24.344 45.6794 22.1548 43.0142 22.1548Z" fill="#FFFBDC"/>
<path d="M44.5871 12.9819C45.3517 13.2665 46.0945 13.2228 46.2256 12.8506C46.3566 12.4784 45.8542 11.953 45.0896 11.6684C44.325 11.3838 43.5822 11.4276 43.4512 11.7998C43.3201 12.1719 43.8225 12.6973 44.5871 12.9819Z" fill="#FFFBDC"/>
<path d="M30.1034 53.3072C29.6228 52.7599 29.4043 51.8405 30.1471 50.3299C30.0379 50.1767 29.9723 49.9796 29.9723 49.7826C29.9723 49.2791 30.3655 48.8631 30.868 48.8413C30.868 48.8413 30.868 48.8413 30.8898 48.8413C31.2831 48.8413 31.6544 49.0821 31.7855 49.4542C32.004 50.111 31.5234 50.7021 30.8898 50.7021C30.6495 50.7021 30.4092 50.6145 30.2345 50.4394C29.3606 52.7599 31.2612 52.9351 31.2612 52.9351C32.3535 52.9351 33.9919 52.6724 35.827 51.8843C35.827 51.8843 36.111 51.7967 36.242 51.731C36.8319 51.4464 37.4436 51.118 38.0552 50.6583C38.0552 50.6583 38.2082 50.6145 38.2955 50.5707C38.7325 50.2642 39.1912 49.9359 39.65 49.5637C39.7155 49.498 39.7811 49.4542 39.8466 49.3886C40.218 49.0602 40.5893 48.7099 40.9607 48.3377C41.3103 47.9875 41.6379 47.6372 41.9656 47.2431C42.1622 47.0023 42.3588 46.7615 42.5555 46.4988C42.7302 46.258 42.905 46.0391 43.0798 45.7764C43.1453 45.6669 43.2327 45.5793 43.2982 45.4699C43.3856 45.3604 43.4511 45.2291 43.5385 45.1196C43.7351 44.8131 43.9536 44.4847 44.1502 44.1345C44.456 43.5872 44.7837 43.018 45.0677 42.4269C45.1988 42.1642 45.3299 41.8796 45.4609 41.595C45.7012 41.0477 45.9415 40.4566 46.1818 39.8436C46.3566 39.4058 46.5095 38.946 46.5969 38.4644C46.7935 38.0922 46.9028 37.7201 47.012 37.3479C47.2304 36.5817 47.4489 35.7936 47.6237 34.9617C47.6455 34.8303 47.6892 34.699 47.7111 34.5457C48.2135 32.1814 48.5849 29.5324 48.7815 26.5332C48.6941 24.4972 48.3883 22.6802 47.9732 21.0821C47.9295 20.885 47.8203 20.5129 47.8203 20.5129V20.5785C46.5751 16.1563 44.609 13.595 44.609 13.595C42.8831 13.376 41.1136 12.3909 41.7472 10.7052C42.5118 8.62546 48.3227 12.1063 49.0655 15.5434L48.6504 15.3682C48.6504 15.3682 48.7596 15.5871 48.8252 15.6966C48.9344 15.9155 49.0436 16.1563 49.1747 16.4409C49.2402 16.5723 49.2839 16.7036 49.3495 16.835C49.6772 17.645 50.0485 18.652 50.3544 19.8342C50.3762 19.9218 50.3981 20.0094 50.4199 20.075C50.7039 21.2134 50.9442 22.4832 51.0971 23.928V23.8186C51.0971 23.8186 51.0971 24.0594 51.0971 24.1689C51.2064 25.2197 51.0971 27.584 51.0971 27.584C51.0971 27.584 51.1845 28.5692 51.0971 29.0727C51.119 29.6638 51.0753 30.2767 50.9879 30.9116C50.9442 31.3714 50.8787 31.8311 50.7913 32.3127C50.7476 32.5973 50.7039 32.8819 50.6384 33.1665C50.5728 33.5387 50.5073 33.8889 50.4199 34.2392C49.0655 40.6536 45.9852 45.9734 42.1185 49.498C41.5724 50.0015 41.0044 50.4613 40.4364 50.8772C40.218 51.0305 40.0214 51.1837 39.8029 51.3151C39.6281 51.4245 39.4752 51.534 39.3004 51.6434C39.1038 51.7748 38.9072 51.8843 38.7106 51.9937C38.3611 52.1907 38.0115 52.3878 37.662 52.5629C37.1814 52.8037 36.7227 53.0008 36.2202 53.1759C36.0017 53.2635 35.7833 53.3291 35.5648 53.3948C34.3196 53.7889 33.0744 54.0297 31.8074 54.0954C31.8074 54.0954 31.6981 54.0954 31.5234 54.0516C32.572 54.38 33.5113 54.3362 33.5113 54.3362C42.0093 53.964 49.3932 44.9664 51.5559 32.8819C53.7186 20.9069 48.3883 11.4714 48.3883 11.4714H46.7935C46.3129 10.6395 44.4779 9.6106 42.9705 9.74196C41.7472 9.85142 40.9607 10.5957 41.2447 11.7998C41.5506 13.1571 43.0579 13.376 44.0628 13.792L43.473 15.1712C43.473 15.1712 42.4681 18.1047 39.4315 18.0828C36.395 18.0391 33.839 16.638 31.9384 12.9382C30.0379 9.23844 32.0695 4.37839 34.3852 4.15947C36.7008 3.96244 37.7057 4.53164 38.1208 5.64813C38.4485 6.54571 37.7276 7.57464 37.0503 8.07816C37.3562 7.79356 37.5091 7.37761 37.4436 6.91787C37.3562 6.39246 36.8974 5.97651 36.3731 5.91084C36.0454 5.86705 35.7396 5.97651 35.4993 6.15165C35.4774 6.15165 35.4338 6.19543 35.4119 6.21733C35.3682 6.26111 35.1716 6.50192 35.0405 6.8522C34.8439 7.3995 34.8002 8.20951 35.8925 8.91006C35.8925 8.91006 37.9242 9.6106 38.8854 7.72788C38.8854 7.72788 39.8029 6.54571 38.8854 4.70677C38.4048 3.72163 37.4654 3.04297 36.395 2.88973C35.2153 2.71459 33.5113 2.78027 31.9166 4.0719C31.6108 4.31271 31.3705 4.59731 31.1738 4.92569C30.3 6.37057 28.2465 10.8585 32.2224 16.2658C32.2224 16.2658 34.4289 19.6591 39.5626 19.8999C39.5626 19.8999 43.9099 19.6591 44.8493 16.7255C44.8493 16.7255 46.9246 19.7029 47.5363 24.9132C46.0945 47.5934 33.5332 51.0961 31.8729 51.3807C31.3268 51.4683 31.2612 51.4683 30.9772 51.4683C30.9117 51.4683 30.8243 51.4245 30.7806 51.3807C30.6059 51.1399 30.5622 50.8991 30.5622 50.8991C34.1667 50.9648 31.8947 47.1775 31.8947 47.1775L28.8582 48.688C28.3994 51.0524 29.0548 52.4097 29.9942 53.1978" fill="#FFFBDC"/>
<path d="M41.9219 34.9616C43.3419 34.9616 44.4779 36.1219 44.4779 37.523C44.4779 38.9241 43.3201 40.0844 41.9219 40.0844C40.5238 40.0844 39.366 38.9241 39.366 37.523C39.366 36.1219 40.5238 34.9616 41.9219 34.9616ZM41.9219 33.9327C39.934 33.9327 38.3392 35.5527 38.3392 37.523C38.3392 39.4933 39.9558 41.1133 41.9219 41.1133C43.888 41.1133 45.5046 39.4933 45.5046 37.523C45.5046 35.5527 43.888 33.9327 41.9219 33.9327Z" fill="#FFFBDC"/>
<path d="M37.5091 43.6966C38.6014 43.6966 39.4752 44.5722 39.4752 45.6669C39.4752 46.7615 38.6014 47.6371 37.5091 47.6371C36.4168 47.6371 35.543 46.7615 35.543 45.6669C35.543 44.5722 36.4168 43.6966 37.5091 43.6966ZM37.5091 42.9084C35.9799 42.9084 34.7565 44.1563 34.7565 45.6669C34.7565 47.1774 36.0017 48.4253 37.5091 48.4253C39.0164 48.4253 40.2617 47.1774 40.2617 45.6669C40.2617 44.1563 39.0164 42.9084 37.5091 42.9084Z" fill="#FFFBDC"/>
<path d="M39.8029 21.5636C40.0432 22.3518 41.1792 22.702 42.337 22.3518C43.4948 22.0015 44.2594 21.082 44.041 20.2939C43.8007 19.5058 42.6647 19.1555 41.5069 19.5058C40.349 19.8561 39.5844 20.7755 39.8029 21.5636Z" fill="#FFFBDC"/>
<path d="M9.04412 23.5559C10.9665 23.5559 12.5176 25.1102 12.5176 27.0367C12.5176 28.9632 10.9665 30.5176 9.04412 30.5176C7.12169 30.5176 5.57065 28.9632 5.57065 27.0367C5.57065 25.1102 7.12169 23.5559 9.04412 23.5559ZM9.04412 22.1548C6.35709 22.1548 4.19437 24.344 4.19437 27.0148C4.19437 29.6857 6.37894 31.8749 9.04412 31.8749C11.7093 31.8749 13.8939 29.6857 13.8939 27.0148C13.8939 24.344 11.7093 22.1548 9.04412 22.1548Z" fill="#FFFBDC"/>
<path d="M12.2336 21.5636C11.9933 22.3518 10.8573 22.702 9.69951 22.3518C8.54169 22.0015 7.77709 21.082 7.99554 20.2939C8.23585 19.5058 9.37183 19.1555 10.5296 19.5058C11.6875 19.8561 12.4521 20.7755 12.2336 21.5636Z" fill="#FFFBDC"/>
<path d="M40.7641 32.7286C40.6767 33.5386 41.5943 34.3048 42.8176 34.4362C44.041 34.5675 45.0896 33.9984 45.1551 33.1665C45.2425 32.3564 44.325 31.5902 43.1016 31.4589C41.8783 31.3275 40.8297 31.8967 40.7641 32.7286Z" fill="#FFFBDC"/>
<path d="M37.8368 41.0695C37.4654 41.8358 38.0771 42.9085 39.2131 43.4777C40.349 44.0469 41.5724 43.8717 41.9438 43.1055C42.3152 42.3393 41.7035 41.2666 40.5675 40.6974C39.4315 40.1282 38.2082 40.3033 37.8368 41.0695Z" fill="#FFFBDC"/>
<path d="M32.7904 46.6739C32.1787 47.1993 32.3317 48.3596 33.0963 49.2572C33.8827 50.1548 34.9968 50.4613 35.6085 49.9358C36.2202 49.4104 36.0673 48.2502 35.3027 47.3526C34.5162 46.455 33.4021 46.1485 32.7904 46.6739Z" fill="#FFFBDC"/>
<path d="M24.4891 43.8279C24.1614 44.2877 22.9162 44.3314 22.9162 44.3314C22.8725 45.2947 22.0423 45.6669 22.0423 45.6669C22.0423 45.6669 21.2122 45.2947 21.1685 44.3314C21.1685 44.3314 19.9233 44.2877 19.5956 43.8279C19.5956 43.8279 21.2122 43.7404 21.2122 41.8576V22.4612L21.4088 22.3737V21.7169L21.103 21.8483C20.8408 20.4034 19.5082 20.3377 19.5082 20.3377C19.8359 19.878 21.103 19.8123 21.103 19.8123C21.1467 18.8272 21.9987 18.455 21.9987 18.455C21.9987 18.455 22.8288 18.8272 22.8943 19.8123C22.8943 19.8123 24.1614 19.8561 24.4891 20.3377C24.4891 20.3377 22.8506 20.4253 22.8506 22.3518V41.8576C22.8506 42.2736 22.9162 42.5801 23.0472 42.8428C23.4623 43.7841 24.4672 43.8279 24.4672 43.8279" fill="#FFFBDC"/>
<path d="M19.5956 22.3299V39.9968L19.0276 39.756L18.5688 39.5371V22.3299H19.5956Z" fill="#FFFBDC"/>
<path d="M19.3553 21.1477C19.3553 21.4323 19.2024 21.6512 18.9839 21.8045C18.8747 21.8702 18.7218 21.9139 18.5907 21.9139C18.1756 21.9139 17.8261 21.5637 17.8261 21.1477C17.8261 21.082 17.8261 21.0383 17.8261 20.9945C17.848 20.885 17.8916 20.7974 17.9572 20.7099C18.0883 20.5128 18.3067 20.4034 18.5689 20.4034C18.9839 20.4034 19.3335 20.7537 19.3335 21.1696" fill="#FFFBDC"/>
<path d="M22.4355 42.4049C22.4355 42.4049 23.1783 43.2368 24.074 43.1055C24.9696 42.9741 26.1712 42.2079 25.1007 40.5879C24.0303 38.9679 21.8239 39.3838 21.8239 39.3838C21.8239 39.3838 18.1975 39.0773 17.3455 40.8068C17.1489 41.179 17.1489 41.6387 17.3455 41.989C17.5203 42.2955 17.8261 42.5144 18.3504 42.1422C18.3504 42.1422 18.1756 42.1422 18.0227 41.9671C17.7606 41.6825 17.8261 41.2447 18.1538 41.0257C18.7873 40.6317 20.1199 39.9311 21.3869 40.172C23.1564 40.5222 23.1783 40.2814 24.1395 41.7263C25.1007 43.1712 21.8676 42.8866 22.6322 41.2009L22.3918 42.4268L22.4355 42.4049Z" fill="#FFFBDC"/>
<path d="M29.6228 42.4049C29.6228 42.4049 28.88 43.2368 27.9844 43.1055C27.0887 42.9741 25.8872 42.2079 26.9576 40.5879C28.0281 38.9679 30.2345 39.3838 30.2345 39.3838C30.2345 39.3838 33.8609 39.0773 34.7128 40.8068C34.9095 41.179 34.9095 41.6387 34.7128 41.989C34.5381 42.2955 34.2322 42.5144 33.7079 42.1422C33.7079 42.1422 33.8827 42.1422 34.0356 41.9671C34.2978 41.6825 34.2322 41.2447 33.9046 41.0257C33.271 40.6317 31.9384 39.9311 30.6714 40.172C28.9019 40.5222 28.88 40.2814 27.9188 41.7263C26.9576 43.1712 30.1908 42.8866 29.4262 41.2009L29.6665 42.4268L29.6228 42.4049Z" fill="#FFFBDC"/>
<path d="M18.5907 21.9139C18.1756 21.9139 17.8261 21.5636 17.8261 21.1477C17.8261 21.1039 17.8261 21.0382 17.8261 20.9945C17.8916 20.8412 17.9572 20.7317 17.9572 20.7099L18.5689 21.4323C18.6999 21.5855 18.831 21.695 18.9621 21.8045C18.8529 21.8701 18.6999 21.9139 18.5689 21.9139" fill="#FFFBDC"/>
<path d="M19.5956 22.3299V22.7677C19.115 22.7677 18.831 22.6802 18.5688 22.5488V22.3299H19.5956Z" fill="#FFFBDC"/>
<path d="M18.3504 31.634C18.3504 31.634 18.3723 31.634 18.3941 31.634L22.7414 32.1156C22.7414 32.1156 22.7851 32.1156 22.8069 32.1156C23.1783 32.0719 26.6955 31.6778 27.0887 32.9694C27.0887 33.0132 27.0887 33.057 27.0887 33.1008C27.045 33.2321 26.8702 33.4511 26.2586 33.4292C25.6906 33.4073 25.5377 33.0132 25.494 32.7724C25.494 32.6411 25.3629 32.5535 25.2318 32.5535C25.0789 32.5535 24.9478 32.7067 24.9697 32.8381C25.0352 33.1884 25.21 33.8013 25.6469 33.9546C26.2804 34.1516 27.6348 34.3267 27.6348 33.1665C27.6348 32.0062 26.4333 31.6121 26.4333 31.6121L25.7561 31.4151C25.7561 31.4151 25.7124 31.4151 25.6906 31.4151C25.1881 31.4151 19.7485 31.3056 18.1975 30.6051C16.5809 29.8827 18.0446 29.007 20.3384 29.7075C22.6322 30.4081 24.5764 31.1743 26.1275 29.8827L25.6469 29.5105C25.4066 29.7513 25.0134 29.8827 24.7731 29.9702C24.7075 29.9702 24.6857 29.9921 24.6638 30.014C24.5983 30.014 24.5764 30.014 24.4454 30.0359C24.358 30.0359 24.2706 30.0359 24.1832 30.0359C24.1832 30.0359 24.1614 30.0359 24.1395 30.0359C24.1395 30.0359 24.0958 30.0359 24.074 30.0359C24.0303 30.0359 23.9866 30.0359 23.9648 30.0359C22.5011 29.7951 19.4209 28.8756 19.0058 28.7443C18.9621 28.7443 18.9402 28.7443 18.8966 28.7443C18.547 28.7662 16.6683 28.9851 16.5591 30.2986C16.428 31.6778 18.2193 31.6778 18.4378 31.6778" fill="#FFFBDC"/>
<path d="M21.4307 21.6512V22.3299L21.1904 22.4174L20.9282 22.505C20.3602 22.6582 19.9452 22.7458 19.5956 22.7458V22.3299H18.5689V22.5269C18.3286 22.3955 18.1538 22.2423 17.9354 22.089C17.564 21.8263 17.6732 21.3009 17.8043 20.9507C17.8043 20.9944 17.8043 21.0601 17.8043 21.1039C17.8043 21.5198 18.1538 21.8701 18.5907 21.8701C18.7436 21.8701 18.8747 21.8263 19.0058 21.7607C19.9015 22.3517 20.9282 21.8701 20.9282 21.8701L21.1467 21.7826L21.4525 21.6512H21.4307Z" fill="#FFFBDC"/>
<path d="M27.7222 43.8279C28.0499 44.2877 29.2951 44.3314 29.2951 44.3314C29.3388 45.2947 30.169 45.6669 30.169 45.6669C30.169 45.6669 30.9991 45.2947 31.0428 44.3314C31.0428 44.3314 32.288 44.2877 32.6157 43.8279C32.6157 43.8279 30.9991 43.7404 30.9991 41.8576V22.4612L30.8025 22.3737V21.7169L31.1083 21.8483C31.3705 20.4034 32.7031 20.3377 32.7031 20.3377C32.3754 19.878 31.1083 19.8123 31.1083 19.8123C31.0646 18.8272 30.2126 18.455 30.2126 18.455C30.2126 18.455 29.3825 18.8272 29.317 19.8123C29.317 19.8123 28.0499 19.8561 27.7222 20.3377C27.7222 20.3377 29.3607 20.4253 29.3607 22.3518V41.8576C29.3607 42.2736 29.2951 42.5801 29.164 42.8428C28.749 43.7841 27.7441 43.8279 27.7441 43.8279" fill="#FFFBDC"/>
<path d="M32.4191 22.3299V39.9968L33.0307 39.756L33.424 39.5371V22.3299H32.4191Z" fill="#FFFBDC"/>
<path d="M32.703 21.1477C32.703 21.4323 32.856 21.6512 33.0744 21.8045C33.1836 21.8702 33.3366 21.9139 33.4676 21.9139C33.8827 21.9139 34.2322 21.5637 34.2322 21.1477C34.2322 21.082 34.2322 21.0383 34.2322 20.9945C34.2104 20.885 34.1667 20.7974 34.1012 20.7099C33.9701 20.5128 33.7516 20.4034 33.4895 20.4034C33.0744 20.4034 32.7249 20.7537 32.7249 21.1696" fill="#FFFBDC"/>
<path d="M33.4677 21.9139C33.8827 21.9139 34.2323 21.5636 34.2323 21.1477C34.2323 21.1039 34.2323 21.0382 34.2323 20.9945C34.1667 20.8412 34.1012 20.7317 34.1012 20.7099L33.4895 21.4323C33.3584 21.5855 33.2274 21.695 33.0963 21.8045C33.2055 21.8701 33.3584 21.9139 33.4895 21.9139" fill="#FFFBDC"/>
<path d="M32.4191 22.3299V22.7677C32.9652 22.7677 33.2492 22.6802 33.4458 22.5488V22.3299H32.4191Z" fill="#FFFBDC"/>
<path d="M33.7298 31.634C33.7298 31.634 33.7079 31.634 33.6861 31.634L29.3388 32.1156C29.3388 32.1156 29.2951 32.1156 29.2732 32.1156C28.9019 32.0719 25.3847 31.6778 24.9915 32.9694C24.9915 33.0132 24.9915 33.057 24.9915 33.1008C25.0352 33.2321 25.2099 33.4511 25.8216 33.4292C26.3896 33.4073 26.5425 33.0132 26.5862 32.7724C26.5862 32.6411 26.7173 32.5535 26.8484 32.5535C27.0013 32.5535 27.1324 32.7067 27.1105 32.8381C27.045 33.1884 26.8702 33.8013 26.4333 33.9546C25.7998 34.1516 24.4453 34.3267 24.4453 33.1665C24.4453 32.0062 25.6469 31.6121 25.6469 31.6121L26.3241 31.4151C26.3241 31.4151 26.3678 31.4151 26.3896 31.4151C26.8921 31.4151 32.3316 31.3056 33.8827 30.6051C35.4993 29.8827 34.0356 29.007 31.7418 29.7075C29.448 30.4081 27.5037 31.1743 25.9527 29.8827L26.4333 29.5105C26.6736 29.7513 27.0668 29.8827 27.3071 29.9702C27.3727 29.9702 27.3945 29.9921 27.4164 30.014C27.4819 30.014 27.5037 30.014 27.6348 30.0359C27.7222 30.0359 27.8096 30.0359 27.897 30.0359C27.897 30.0359 27.9188 30.0359 27.9407 30.0359C27.9407 30.0359 27.9843 30.0359 28.0062 30.0359C28.0499 30.0359 28.0936 30.0359 28.1154 30.0359C29.5791 29.7951 32.6593 28.8756 33.0744 28.7443C33.1181 28.7443 33.1399 28.7443 33.1836 28.7443C33.5332 28.7662 35.4119 28.9851 35.5211 30.2986C35.6522 31.6778 33.8608 31.6778 33.6424 31.6778" fill="#FFFBDC"/>
<path d="M30.584 21.6512V22.3299L30.868 22.4174L31.152 22.505C31.7637 22.6582 32.2443 22.7458 32.6157 22.7458V22.3299H33.424V22.5269C33.6643 22.3955 33.839 22.2423 34.0575 22.089C34.4289 21.8263 34.3196 21.3009 34.1885 20.9507C34.1885 20.9944 34.1885 21.0601 34.1885 21.1039C34.1885 21.5198 33.839 21.8701 33.4021 21.8701C33.2492 21.8701 33.1181 21.8263 32.987 21.7607C32.0914 22.3517 31.0646 21.8701 31.0646 21.8701L30.8462 21.7826L30.5403 21.6512H30.584Z" fill="#FFFBDC"/>
<path d="M26.062 48.0969C19.3116 48.0969 13.8065 40.6536 13.8065 31.5246C13.8065 22.3956 19.3116 14.9523 26.062 14.9523C32.8123 14.9523 38.3174 22.3956 38.3174 31.5246C38.3174 40.6536 32.8123 48.0969 26.062 48.0969ZM26.062 15.4339C19.5738 15.4339 14.2871 22.6583 14.2871 31.5246C14.2871 40.3909 19.5738 47.6153 26.062 47.6153C32.5501 47.6153 37.8368 40.3909 37.8368 31.5246C37.8368 22.6583 32.5501 15.4339 26.062 15.4339Z" fill="#FFFBDC"/>
<path d="M26.0619 47.2869C19.6611 47.2869 14.44 40.2157 14.44 31.5246C14.44 22.8334 19.6611 15.7623 26.0619 15.7623C32.4627 15.7623 37.6838 22.8334 37.6838 31.5246C37.6838 40.2157 32.4627 47.2869 26.0619 47.2869ZM26.0619 16.0031C19.7704 16.0031 14.6803 22.9648 14.6803 31.5246C14.6803 40.0844 19.7922 47.0461 26.0619 47.0461C32.3316 47.0461 37.4435 40.0844 37.4435 31.5246C37.4435 22.9648 32.3316 16.0031 26.0619 16.0031Z" fill="#FFFBDC"/>
<path d="M27.5256 12.9382C27.5256 13.7701 26.8484 14.4269 26.0401 14.4269C25.2318 14.4269 24.5546 13.7482 24.5546 12.9382C24.5546 12.1282 25.2318 11.4495 26.0401 11.4495C26.8484 11.4495 27.5256 12.1282 27.5256 12.9382Z" fill="#FFFBDC"/>
<path d="M20.535 54.0953C20.9064 54.0077 21.5617 53.8107 22.0205 53.3072C21.5617 53.6794 21.0374 53.9421 20.535 54.0953Z" fill="#FFFBDC"/>
<path d="M30.0379 53.3072C30.4748 53.8107 31.1302 54.0077 31.5234 54.0953C31.0209 53.9421 30.4966 53.6794 30.0379 53.3072Z" fill="#FFFBDC"/>
<path d="M0.830147 20.6004V20.3815C0.76461 18.4988 2.00982 16.4409 3.18948 15.6309C3.91039 15.1274 4.56576 15.1274 4.98083 15.6309C5.48328 16.222 5.6362 16.7255 5.50513 17.1415C5.35221 17.645 4.76238 17.9953 3.67009 18.258C2.14089 18.6301 1.92243 19.7904 1.90059 19.8342V19.878L1.83505 19.9218L0.830147 20.6223V20.6004ZM4.19439 15.4777C3.8667 15.4777 3.53902 15.6747 3.32056 15.8279C2.25012 16.5723 1.11414 18.4112 1.07045 20.1407L1.68213 19.7028C1.74767 19.4401 2.0972 18.3674 3.60455 17.9953C4.58761 17.7544 5.13375 17.4479 5.26483 17.032C5.37406 16.7036 5.22114 16.2658 4.78422 15.7623C4.60946 15.5652 4.41284 15.4777 4.21623 15.4777" fill="#FFFBDC"/>
<path d="M0.349521 25.0226L0.305829 24.8037C-0.0655482 23.0742 0.720898 21.0163 1.61657 19.9655C2.29379 19.1774 3.0147 18.9585 3.56084 19.3744C4.04145 19.7685 4.3036 20.1407 4.34729 20.4909C4.36913 20.7317 4.3036 20.9507 4.17252 21.1477C3.93222 21.498 3.47346 21.8264 2.7307 22.1547C2.09718 22.4393 1.66026 22.8772 1.41996 23.4026C1.26704 23.7529 1.26704 24.0156 1.26704 24.0156V24.0593L0.349521 25.0007V25.0226ZM2.94916 19.3963C2.46856 19.3963 2.0098 19.8561 1.79134 20.1188C0.961201 21.082 0.262138 22.9428 0.502441 24.541L1.02674 23.9937C1.02674 23.9937 1.07043 23.6434 1.2015 23.3369C1.37627 22.921 1.76949 22.3518 2.64332 21.9577C3.34238 21.6293 3.7793 21.3447 3.97591 21.0382C4.08514 20.885 4.12883 20.7099 4.10698 20.5347C4.06329 20.2282 3.82299 19.9217 3.40792 19.5715C3.255 19.462 3.10208 19.3963 2.94916 19.3963Z" fill="#FFFBDC"/>
<path d="M0.939363 28.0656L0.85198 27.8686C0.502448 27.1461 0.39322 26.2048 0.524294 25.2415C0.633523 24.3439 0.961208 23.5558 1.37628 23.1399C1.70396 22.8115 2.07534 22.7239 2.42487 22.8991C2.99286 23.1618 3.27685 23.4683 3.32055 23.8404C3.36424 24.2783 3.03655 24.738 2.31564 25.3291C1.31074 26.1172 1.50735 27.0367 1.50735 27.0586V27.1024L0.939363 28.0656ZM2.05349 23.0523C1.87873 23.0523 1.70396 23.1399 1.5292 23.315C0.786442 24.0593 0.415065 26.0953 0.961208 27.5402L1.2452 27.0586C1.20151 26.8396 1.13597 25.9202 2.14088 25.1321C2.79625 24.6066 3.10209 24.1907 3.0584 23.8623C3.03655 23.5996 2.7744 23.3588 2.2938 23.118C2.20641 23.0742 2.11903 23.0523 2.03165 23.0523" fill="#FFFBDC"/>
<path d="M1.35444 31.9186L1.24521 31.7216C0.458764 30.1891 0.720912 27.978 1.48551 27.2337C1.76951 26.9491 2.11904 26.9053 2.44672 27.0805C3.01471 27.387 3.29871 27.7153 3.3424 28.0656C3.38609 28.4597 3.1021 28.8756 2.46857 29.3791C1.59474 30.0578 1.83504 30.9335 1.83504 30.9773V31.021L1.35444 31.9405V31.9186ZM2.0535 27.2118C1.92243 27.2118 1.79135 27.2775 1.66028 27.4089C1.00491 28.0437 0.786449 29.9921 1.37628 31.3932L1.59474 30.9773C1.55105 30.7583 1.41998 29.8827 2.31565 29.1821C2.86179 28.7443 3.12394 28.394 3.08025 28.0875C3.0584 27.8248 2.79626 27.5402 2.31565 27.2775C2.22827 27.2337 2.14088 27.2118 2.03166 27.2118" fill="#FFFBDC"/>
<path d="M2.22828 35.5527L2.0972 35.3776C1.04861 34.0203 0.895689 31.7873 1.50737 30.9335C1.72583 30.6051 2.05351 30.4957 2.42489 30.6051C3.03657 30.8021 3.3861 31.0649 3.47348 31.4151C3.58271 31.8092 3.3861 32.2689 2.8618 32.86C2.11905 33.6919 2.51227 34.5019 2.53412 34.5457V34.5895L2.25012 35.5746L2.22828 35.5527ZM2.1409 30.7803C1.96613 30.7803 1.81321 30.8678 1.70398 31.043C1.17968 31.7873 1.31076 33.7357 2.16274 35.0054L2.29382 34.5676C2.20643 34.3487 1.92244 33.5168 2.66519 32.663C3.12395 32.1376 3.29872 31.7435 3.23318 31.4589C3.16764 31.1962 2.8618 30.9773 2.33751 30.824C2.27197 30.824 2.20643 30.8021 2.1409 30.8021" fill="#FFFBDC"/>
<path d="M3.29871 38.8366L3.16764 38.6614C2.11904 37.3041 1.96612 35.0711 2.5778 34.2173C2.79626 33.8889 3.12395 33.7795 3.49532 33.8889C4.107 34.086 4.45654 34.3487 4.54392 34.699C4.65315 35.093 4.45654 35.5527 3.93224 36.1438C3.18948 36.9757 3.58271 37.7857 3.60455 37.8295V37.8733L3.32056 38.8585L3.29871 38.8366ZM3.21133 34.0641C3.03656 34.0641 2.88364 34.1517 2.77442 34.3268C2.25012 35.0711 2.38119 37.0195 3.23318 38.2893L3.36425 37.8514C3.27687 37.6325 2.99287 36.8006 3.73563 35.9468C4.19439 35.4214 4.36915 35.0273 4.30362 34.7427C4.23808 34.48 3.93224 34.2611 3.40794 34.1079C3.3424 34.1079 3.27687 34.086 3.21133 34.086" fill="#FFFBDC"/>
<path d="M4.54392 41.7263L4.391 41.5512C3.32056 40.2157 3.1021 38.0922 3.67009 37.2822C3.88855 36.9757 4.19439 36.8881 4.54392 36.9976C5.1556 37.2165 5.50513 37.4792 5.59251 37.8295C5.6799 38.2017 5.50513 38.6176 5.04637 39.143C4.36915 39.9093 4.78422 40.7193 4.80607 40.7193V40.763L4.56576 41.7044L4.54392 41.7263ZM4.25992 37.1946C4.107 37.1946 3.97593 37.2603 3.8667 37.4136C3.3861 38.0922 3.56086 39.953 4.43469 41.2009L4.54392 40.8068C4.45654 40.6098 4.1507 39.7779 4.84976 39.0117C5.26483 38.5519 5.41775 38.1798 5.35221 37.9171C5.28667 37.6544 4.98083 37.4354 4.45654 37.2384C4.391 37.2165 4.32546 37.1946 4.25992 37.1946Z" fill="#FFFBDC"/>
<path d="M5.98572 44.4847L5.8328 44.3096C4.76236 42.9741 4.5439 40.8506 5.11189 40.0406C5.33035 39.7341 5.63619 39.6466 5.98572 39.756C6.5974 39.9749 6.94693 40.2376 7.03432 40.5879C7.1217 40.9601 6.94693 41.376 6.48817 41.9014C5.81096 42.6677 6.22602 43.4339 6.24787 43.4777V43.5215L5.98572 44.4628V44.4847ZM5.70173 39.953C5.54881 39.953 5.41773 40.0187 5.3085 40.172C4.8279 40.8506 5.00266 42.7114 5.87649 43.9593L5.98572 43.5652C5.89834 43.3682 5.5925 42.5363 6.29156 41.7701C6.70663 41.3104 6.85955 40.9382 6.79401 40.6755C6.72848 40.4128 6.42264 40.1939 5.89834 39.9968C5.8328 39.9749 5.76726 39.953 5.70173 39.953Z" fill="#FFFBDC"/>
<path d="M7.38385 46.8928L7.23093 46.7177C6.18234 45.4042 5.92019 43.3682 6.46633 42.6239C6.66294 42.3393 6.96878 42.2517 7.29647 42.3831C7.90815 42.602 8.23583 42.8866 8.32322 43.215C8.4106 43.5652 8.25768 43.9593 7.82077 44.4628C7.18724 45.1634 7.60231 45.9296 7.60231 45.9515V45.9953L7.38385 46.9147V46.8928ZM7.01247 42.5582C6.8814 42.5582 6.75032 42.6239 6.66294 42.7552C6.20418 43.3901 6.42264 45.1634 7.27462 46.3674L7.362 46.0172C7.27462 45.8201 6.96878 45.032 7.62415 44.2877C7.99553 43.8717 8.14845 43.5215 8.08291 43.2587C8.01738 42.996 7.73338 42.7771 7.20908 42.5801C7.14355 42.5582 7.07801 42.5363 7.01247 42.5363" fill="#FFFBDC"/>
<path d="M9.63394 49.3229L9.43733 49.1915C8.06105 48.2282 7.27461 46.3236 7.58045 45.4479C7.68968 45.1196 7.95182 44.9663 8.3232 44.9882C8.95673 45.032 9.34995 45.2071 9.54656 45.5136C9.72133 45.8201 9.67764 46.258 9.39364 46.849C8.97857 47.7028 9.56841 48.3158 9.59025 48.3377L9.63394 48.3815V49.3229ZM8.30136 45.229C8.0829 45.229 7.92998 45.3385 7.86444 45.5355C7.60229 46.2798 8.27951 47.9218 9.43733 48.8412V48.4691C9.28441 48.2939 8.80381 47.6153 9.21888 46.7396C9.45918 46.2361 9.52472 45.8639 9.39364 45.6231C9.26257 45.3823 8.91304 45.2509 8.36689 45.2071C8.36689 45.2071 8.3232 45.2071 8.30136 45.2071" fill="#FFFBDC"/>
<path d="M11.8622 51.1618L11.6438 51.0742C10.1146 50.3956 8.95675 48.688 9.10967 47.7685C9.15336 47.4182 9.39367 47.2212 9.7432 47.1774C10.3767 47.0899 10.8136 47.1774 11.0321 47.462C11.2724 47.7247 11.2942 48.1626 11.1413 48.7975C10.901 49.7169 11.6219 50.2204 11.6219 50.2204H11.6656L11.8622 51.1837V51.1618ZM10.1364 47.3745C10.0272 47.3745 9.89612 47.3745 9.76504 47.3964C9.52474 47.4182 9.37182 47.5496 9.34998 47.7904C9.24075 48.5566 10.2238 50.0453 11.5345 50.724L11.469 50.3518C11.2942 50.2204 10.6826 49.6512 10.9229 48.688C11.0539 48.1407 11.0539 47.7685 10.8792 47.5715C10.7481 47.4182 10.5078 47.3526 10.1801 47.3526" fill="#FFFBDC"/>
<path d="M13.0419 51.9499L12.8234 51.8623C11.8185 51.4026 11.0539 50.2861 11.1413 49.6731C11.185 49.4323 11.3379 49.2791 11.5782 49.2572C12.0152 49.2134 12.2992 49.2572 12.4521 49.4542C12.6268 49.6512 12.6487 49.9358 12.5395 50.3518C12.3865 50.921 12.8234 51.2056 12.8453 51.2275H12.889L13.0419 51.9499ZM11.8622 49.4761C11.8622 49.4761 11.7093 49.4761 11.6219 49.4761C11.4909 49.4761 11.4035 49.5637 11.3816 49.695C11.3161 50.111 11.8622 51.0304 12.6924 51.5121V51.3807C12.4521 51.2275 12.1681 50.8334 12.2992 50.2642C12.3865 49.9139 12.3865 49.695 12.2773 49.5856C12.1899 49.498 12.0588 49.4542 11.8622 49.4542" fill="#FFFBDC"/>
<path d="M14.6366 53.154L14.4182 53.0664C13.4133 52.6067 12.6487 51.4902 12.7361 50.8772C12.7797 50.6364 12.9327 50.4831 13.173 50.4612C13.6099 50.4174 13.8939 50.4612 14.0468 50.6583C14.2216 50.8553 14.2434 51.1399 14.1342 51.5558C13.9813 52.125 14.44 52.4315 14.44 52.4315H14.4837L14.6366 53.154ZM13.457 50.6801C13.457 50.6801 13.304 50.6801 13.2167 50.6801C13.0856 50.6801 12.9982 50.7677 12.9764 50.8991C12.9108 51.315 13.457 52.2345 14.2871 52.7161V52.5848C14.0468 52.4315 13.7628 52.0375 13.8939 51.4683C13.9813 51.118 13.9813 50.8991 13.872 50.7896C13.7846 50.702 13.6536 50.6583 13.457 50.6583" fill="#FFFBDC"/>
<path d="M16.712 53.964L16.4935 53.8545C15.7071 53.4824 15.1172 52.541 15.1828 52.0156C15.2046 51.7967 15.3575 51.6653 15.5541 51.6215C15.9037 51.5777 16.1221 51.6215 16.2532 51.7748C16.4498 51.9937 16.3843 52.3221 16.3187 52.5848C16.1877 53.0664 16.5154 53.2853 16.5372 53.3072H16.5809L16.6901 53.964H16.712ZM15.8163 51.8623C15.8163 51.8623 15.6852 51.8623 15.6197 51.8623C15.5105 51.8623 15.4668 51.928 15.4449 52.0375C15.4012 52.3878 15.7945 53.1102 16.4061 53.5043V53.4386C16.2751 53.3291 15.9911 53.0226 16.1221 52.4972C16.1877 52.2126 16.1877 52.0156 16.1221 51.928C16.0784 51.8623 15.9692 51.8405 15.8381 51.8405" fill="#FFFBDC"/>
<path d="M4.54391 16.2658C4.65313 16.5504 4.34729 16.9226 3.84484 17.1196C3.36424 17.3166 2.86179 17.229 2.7744 16.9444C2.66517 16.6598 2.97101 16.2877 3.47347 16.0907C3.95407 15.8936 4.45652 15.9812 4.54391 16.2658Z" fill="#FFFBDC"/>
<path d="M3.21132 19.9437C3.2987 20.1845 3.10209 20.4691 2.7744 20.6004C2.44672 20.7318 2.09719 20.6442 2.0098 20.4034C1.92242 20.1626 2.11903 19.878 2.44672 19.7467C2.7744 19.6153 3.12394 19.7029 3.21132 19.9437Z" fill="#FFFBDC"/>
<path d="M2.44672 23.5121C2.53411 23.731 2.35934 23.9937 2.07535 24.1032C1.79135 24.2126 1.48551 24.1032 1.39813 23.9061C1.31075 23.6872 1.48551 23.4245 1.76951 23.3151C2.0535 23.2056 2.35934 23.3151 2.44672 23.5121Z" fill="#FFFBDC"/>
<path d="M2.44672 27.8467C2.53411 28.0656 2.35934 28.3283 2.07535 28.4378C1.79135 28.5472 1.48551 28.4378 1.39813 28.2408C1.31075 28.0218 1.48551 27.7591 1.76951 27.6497C2.0535 27.5402 2.35934 27.6497 2.44672 27.8467Z" fill="#FFFBDC"/>
<path d="M3.823 34.7646C3.93223 35.0492 3.77931 35.3776 3.49531 35.487C3.21132 35.5965 2.88363 35.4432 2.77441 35.1586C2.66518 34.874 2.8181 34.5457 3.10209 34.4362C3.38609 34.3267 3.71377 34.48 3.823 34.7646Z" fill="#FFFBDC"/>
<path d="M5.02451 37.939C5.13374 38.2235 4.98082 38.5519 4.69682 38.6614C4.41283 38.7709 4.08514 38.6176 3.97591 38.333C3.86668 38.0484 4.0196 37.72 4.3036 37.6106C4.58759 37.5011 4.91528 37.6544 5.02451 37.939Z" fill="#FFFBDC"/>
<path d="M6.1605 40.9381C6.26972 41.2227 6.18234 41.5292 5.96389 41.6168C5.74543 41.7044 5.48328 41.5292 5.37405 41.2446C5.26482 40.96 5.3522 40.6535 5.57066 40.566C5.78912 40.4784 6.05127 40.6535 6.1605 40.9381Z" fill="#FFFBDC"/>
<path d="M7.34015 43.4339C7.44938 43.7185 7.362 44.025 7.14354 44.1125C6.92508 44.2001 6.66294 44.025 6.55371 43.7404C6.44448 43.4558 6.53186 43.1493 6.75032 43.0617C6.96878 42.9741 7.23092 43.1493 7.34015 43.4339Z" fill="#FFFBDC"/>
<path d="M2.92734 31.3494C3.03657 31.634 2.88365 31.9624 2.59965 32.0718C2.31566 32.1813 1.98797 32.0281 1.87875 31.7435C1.76952 31.4589 1.92244 31.1305 2.20643 31.021C2.49043 30.9116 2.81811 31.0648 2.92734 31.3494Z" fill="#FFFBDC"/>
<path d="M8.95673 45.7763C9.06596 46.0609 8.97858 46.3674 8.76012 46.455C8.54166 46.5425 8.27951 46.3674 8.17028 46.0828C8.06106 45.7982 8.14844 45.4917 8.3669 45.4041C8.58535 45.3166 8.8475 45.4917 8.95673 45.7763Z" fill="#FFFBDC"/>
<path d="M10.5515 48.3158C10.5078 48.6223 10.2675 48.8412 10.049 48.7974C9.83056 48.7536 9.67765 48.469 9.74318 48.1625C9.78687 47.8561 10.0272 47.6371 10.2456 47.6809C10.4641 47.7247 10.617 48.0093 10.5515 48.3158Z" fill="#FFFBDC"/>
<path d="M13.8502 51.4026C13.8283 51.5777 13.6973 51.6872 13.5662 51.6653C13.4351 51.6434 13.3477 51.4902 13.3914 51.315C13.4133 51.1399 13.5444 51.0304 13.6754 51.0523C13.8065 51.0742 13.8939 51.2275 13.8502 51.4026Z" fill="#FFFBDC"/>
<path d="M15.8381 52.0375C15.8381 52.0375 15.9911 52.1688 15.9692 52.3002C15.9474 52.4315 15.86 52.5191 15.7508 52.4972C15.6634 52.4972 15.5978 52.3658 15.6197 52.2345C15.6415 52.1031 15.7289 52.0156 15.8381 52.0375Z" fill="#FFFBDC"/>
<path d="M12.1462 50.1767C12.1025 50.3737 11.9715 50.505 11.8185 50.4832C11.6875 50.4613 11.5782 50.2861 11.6219 50.0891C11.6656 49.8921 11.7967 49.7607 11.9496 49.7826C12.0807 49.8045 12.1899 49.9796 12.1462 50.1767Z" fill="#FFFBDC"/>
<path d="M2.2938 16.9006C2.2938 16.9006 2.22826 16.8569 2.20641 16.7912C2.20641 16.7036 2.14088 16.5066 3.34239 15.2806C4.67498 13.9233 7.31831 13.6168 7.42754 13.6168V13.8357C7.42754 13.8357 4.78421 14.1422 3.51716 15.4339C2.49041 16.4847 2.44672 16.7255 2.44672 16.7474C2.44672 16.7474 2.44672 16.6817 2.38118 16.6817L2.2938 16.9006Z" fill="#FFFBDC"/>
<path d="M51.2719 20.6004L50.2015 19.8342V19.7904C50.2015 19.7904 49.9612 18.5864 48.432 18.2142C47.3397 17.9515 46.7717 17.6012 46.5969 17.0977C46.4658 16.6817 46.6406 16.1782 47.1212 15.5871C47.5363 15.0836 48.1916 15.1055 48.9126 15.5871C50.0922 16.3971 51.3156 18.455 51.2719 20.3377V20.5567V20.6004ZM50.4199 19.7029L51.0316 20.1407C50.9879 18.4112 49.8519 16.5723 48.7815 15.828C48.432 15.5871 47.7547 15.2369 47.3178 15.7623C46.8809 16.2877 46.728 16.7036 46.8372 17.032C46.9683 17.4261 47.5144 17.7545 48.4975 17.9953C50.0267 18.3674 50.3762 19.462 50.4199 19.7029Z" fill="#FFFBDC"/>
<path d="M51.8617 25.0226L50.9442 24.0812V24.0374C50.9442 24.0374 50.9442 23.7747 50.7913 23.4245C50.551 22.8772 50.1141 22.4612 49.4806 22.1766C48.7378 21.8482 48.279 21.498 48.0387 21.1696C47.8858 20.9507 47.8421 20.7317 47.864 20.5128C47.9077 20.1407 48.1698 19.7685 48.6504 19.3744C49.1966 18.9366 49.9175 19.1555 50.5947 19.9655C51.5122 21.0382 52.2768 23.0961 51.9054 24.8256L51.8617 25.0445V25.0226ZM51.0535 23.9718L51.5778 24.5191C51.8181 22.921 51.0971 21.082 50.2889 20.0969C50.0049 19.7685 49.284 19.0461 48.6723 19.5496C48.2354 19.8998 48.0169 20.2063 47.9732 20.4909C47.9732 20.6661 47.9951 20.8193 48.1043 20.9944C48.3227 21.3009 48.7597 21.6074 49.4369 21.9139C50.2889 22.308 50.7039 22.8772 50.8787 23.2931C51.0098 23.5996 51.0535 23.8404 51.0535 23.9499" fill="#FFFBDC"/>
<path d="M51.1845 28.0656L50.6165 27.1024V27.0586C50.6165 27.0586 50.835 26.1172 49.8301 25.3291C49.0873 24.738 48.7597 24.2783 48.8252 23.8404C48.8689 23.4902 49.1529 23.1837 49.7209 22.8991C50.0704 22.7239 50.4418 22.8115 50.7695 23.1399C51.1845 23.5558 51.4904 24.3439 51.6214 25.2415C51.7525 26.2048 51.6214 27.1461 51.2938 27.8686L51.2064 28.0656H51.1845ZM50.8787 27.0586L51.1627 27.5402C51.7307 26.0953 51.3375 24.0593 50.5947 23.315C50.3325 23.0523 50.0704 22.9866 49.8083 23.118C49.3276 23.3369 49.0873 23.5996 49.0437 23.8623C49 24.1907 49.3058 24.6066 49.9612 25.1321C50.9661 25.9202 50.9005 26.8396 50.8568 27.0586" fill="#FFFBDC"/>
<path d="M50.7695 31.9186L50.2889 30.9992V30.9554C50.2889 30.9554 50.551 30.0578 49.6772 29.3573C49.0437 28.8756 48.7815 28.4597 48.8033 28.0437C48.8252 27.6716 49.131 27.3651 49.699 27.0586C50.0267 26.8835 50.3762 26.9272 50.6602 27.2118C51.4248 27.9562 51.6651 30.1673 50.9005 31.6997L50.7913 31.8968L50.7695 31.9186ZM50.5292 30.9773L50.7476 31.3932C51.3375 29.9921 51.119 28.0437 50.4636 27.4089C50.2452 27.2118 50.0267 27.1681 49.7864 27.2994C49.3058 27.5621 49.0437 27.8248 49.0218 28.1094C49 28.4159 49.2403 28.7662 49.7864 29.204C50.6821 29.9046 50.551 30.7803 50.5073 30.9992" fill="#FFFBDC"/>
<path d="M49.8738 35.5527L49.5679 34.5676V34.5238C49.5679 34.5238 50.0048 33.6919 49.2621 32.8381C48.7378 32.247 48.5412 31.7873 48.6504 31.3932C48.7378 31.0429 49.0873 30.7802 49.699 30.5832C50.0704 30.4737 50.3762 30.5832 50.6165 30.9116C51.2282 31.7873 51.0753 33.9984 50.0267 35.3557L49.8956 35.5308L49.8738 35.5527ZM49.8301 34.5894L49.9612 35.0273C50.8131 33.7575 50.9224 31.8091 50.4199 31.0648C50.2451 30.824 50.0485 30.7364 49.7864 30.824C49.2621 30.9991 48.9562 31.1962 48.8907 31.4589C48.8033 31.7435 48.9999 32.1594 49.4587 32.6629C50.2015 33.5167 49.9393 34.3486 49.8301 34.5676" fill="#FFFBDC"/>
<path d="M48.8252 38.8365L48.5193 37.8514V37.8076C48.5193 37.8076 48.9563 36.9538 48.2135 36.1219C47.6892 35.5308 47.4926 35.0711 47.6018 34.677C47.6892 34.3267 48.0387 34.064 48.6504 33.867C49.0218 33.7575 49.3276 33.867 49.5679 34.1954C50.1796 35.0711 50.0267 37.2822 48.9781 38.6395L48.847 38.8146L48.8252 38.8365ZM48.7815 37.8733L48.9126 38.3111C49.7646 37.0414 49.8738 35.093 49.3713 34.3486C49.1966 34.1078 49 34.0203 48.7378 34.1078C48.2135 34.283 47.9077 34.48 47.8421 34.7427C47.7547 35.0273 47.9514 35.4432 48.4101 35.9468C49.1529 36.8005 48.8907 37.6324 48.7815 37.8514" fill="#FFFBDC"/>
<path d="M47.5581 41.7263L47.2741 40.7849V40.7412C47.2741 40.7412 47.711 39.9312 47.0557 39.1649C46.5751 38.6176 46.4003 38.2017 46.5095 37.8514C46.5969 37.5011 46.9464 37.2165 47.5581 37.0195C47.9077 36.8881 48.2135 36.9976 48.432 37.3041C48.9999 38.1141 48.7815 40.2376 47.711 41.5731L47.5581 41.7482V41.7263ZM47.5581 40.8068L47.6674 41.2009C48.5193 39.953 48.716 38.0922 48.2353 37.4136C48.0824 37.1946 47.8858 37.1509 47.6455 37.2384C47.1212 37.4136 46.8154 37.6544 46.7498 37.9171C46.6843 38.2017 46.8372 38.5519 47.2523 39.0117C47.9295 39.7998 47.6455 40.6098 47.5581 40.8068Z" fill="#FFFBDC"/>
<path d="M46.1381 44.4847L45.8542 43.5434V43.4996C45.8542 43.4996 46.2911 42.6896 45.6357 41.9233C45.1551 41.376 44.9803 40.9601 45.0896 40.6098C45.1769 40.2595 45.5265 39.9749 46.1381 39.7779C46.4877 39.6466 46.7935 39.756 47.012 40.0625C47.58 40.8725 47.3615 42.996 46.2911 44.3315L46.1381 44.5066V44.4847ZM46.1381 43.5652L46.2474 43.9593C47.0994 42.7115 47.296 40.8506 46.8154 40.172C46.6624 39.953 46.4658 39.9093 46.2255 39.9968C45.7012 40.172 45.3954 40.4128 45.3299 40.6755C45.2643 40.9601 45.4172 41.3104 45.8323 41.7701C46.5095 42.5582 46.2255 43.3682 46.1381 43.5652Z" fill="#FFFBDC"/>
<path d="M44.74 46.8928L44.4997 45.9734V45.9296C44.4997 45.9296 44.9366 45.1415 44.325 44.4409C43.888 43.9374 43.7133 43.5434 43.8225 43.1931C43.9099 42.8428 44.2376 42.5801 44.8492 42.3612C45.1769 42.2298 45.4828 42.3174 45.6794 42.602C46.2255 43.3463 45.9634 45.4042 44.9148 46.6958L44.7619 46.871L44.74 46.8928ZM44.74 45.9953L44.8274 46.3455C45.6794 45.1415 45.8978 43.3682 45.4391 42.7333C45.308 42.5363 45.1114 42.4925 44.8929 42.5801C44.3686 42.7552 44.0846 42.9961 44.0191 43.2588C43.9536 43.5215 44.1065 43.8498 44.4779 44.2877C45.1332 45.032 44.8274 45.8201 44.74 46.0172" fill="#FFFBDC"/>
<path d="M42.3807 49.3229V48.3815L42.4244 48.3377C42.4462 48.3158 43.0361 47.7028 42.621 46.849C42.337 46.258 42.2933 45.8201 42.4681 45.5136C42.6429 45.2071 43.0361 45.032 43.6915 44.9882C44.041 44.9663 44.3031 45.1196 44.4342 45.4479C44.74 46.3236 43.9536 48.2064 42.5773 49.1915L42.3807 49.3229ZM42.5773 48.4253V48.8412C43.7133 47.8999 44.4124 46.258 44.1502 45.5355C44.0628 45.3166 43.9099 45.2071 43.6696 45.229C43.1235 45.2728 42.7739 45.4042 42.6429 45.645C42.5118 45.8858 42.5555 46.2361 42.8176 46.7615C43.2327 47.6372 42.7521 48.3158 42.5992 48.4909" fill="#FFFBDC"/>
<path d="M40.2617 51.1618L40.4583 50.2204H40.502C40.502 50.2204 41.2229 49.695 40.9826 48.7755C40.8078 48.1407 40.8515 47.7028 41.0918 47.4401C41.3321 47.1774 41.7472 47.0898 42.3807 47.1555C42.7302 47.1993 42.9705 47.4182 43.0142 47.7466C43.1453 48.6661 42.0093 50.3736 40.4801 51.0523L40.2617 51.1399V51.1618ZM40.6767 50.3737L40.6112 50.7458C41.9219 50.0453 42.905 48.5785 42.7958 47.8123C42.7521 47.5715 42.621 47.462 42.3807 47.4182C41.8345 47.3525 41.4632 47.4182 41.2884 47.6152C41.1136 47.8123 41.0918 48.1844 41.2447 48.7317C41.485 49.6731 40.8733 50.2423 40.6986 50.3955" fill="#FFFBDC"/>
<path d="M39.082 51.9499L39.2349 51.2494H39.2786C39.2786 51.2494 39.7155 50.921 39.5844 50.3518C39.4752 49.9139 39.497 49.6294 39.6718 49.4542C39.8247 49.2791 40.1306 49.2134 40.5456 49.2572C40.8078 49.2791 40.9607 49.4323 40.9825 49.6731C41.0699 50.2861 40.3272 51.4026 39.3004 51.8623L39.082 51.9499ZM39.4533 51.3807V51.5121C40.2398 51.0304 40.8078 50.111 40.7422 49.695C40.7422 49.5637 40.6549 49.498 40.5019 49.4761C40.1743 49.4323 39.934 49.4761 39.8466 49.5856C39.7373 49.695 39.7373 49.9358 39.8247 50.2642C39.9558 50.8115 39.6718 51.2056 39.4752 51.3807" fill="#FFFBDC"/>
<path d="M37.4654 53.154L37.6183 52.4534H37.662C37.662 52.4534 38.0989 52.125 37.9679 51.5558C37.8586 51.118 37.8805 50.8334 38.0553 50.6583C38.2082 50.4831 38.514 50.4175 38.9291 50.4612C39.1912 50.4831 39.3442 50.6364 39.366 50.8772C39.4534 51.4902 38.7106 52.6067 37.6839 53.0664L37.4654 53.154ZM37.8368 52.5848V52.7161C38.6232 52.2345 39.1912 51.315 39.1257 50.8991C39.1257 50.7677 39.0383 50.7021 38.8854 50.6802C38.5577 50.6364 38.3174 50.6802 38.23 50.7896C38.1208 50.8991 38.1208 51.1399 38.2082 51.4683C38.3393 52.0156 38.0553 52.4096 37.8586 52.5848" fill="#FFFBDC"/>
<path d="M35.4119 53.964L35.5211 53.3291H35.5648C35.5648 53.3291 35.8925 53.0445 35.7833 52.5848C35.7178 52.344 35.6522 51.9937 35.8488 51.7748C35.9799 51.6215 36.2202 51.5777 36.5479 51.6215C36.7664 51.6434 36.8974 51.7967 36.9193 52.0156C36.9848 52.541 36.395 53.4824 35.6085 53.8545L35.3901 53.9421L35.4119 53.964ZM35.7396 53.4605V53.5261C36.3294 53.1321 36.7227 52.4096 36.679 52.0594C36.679 51.9499 36.6134 51.9061 36.5042 51.8842C36.2639 51.8405 36.0891 51.8842 36.0236 51.9499C35.9362 52.0375 35.9362 52.2345 36.0236 52.5191C36.1547 53.0445 35.8707 53.3729 35.7615 53.4605" fill="#FFFBDC"/>
<path d="M47.5581 16.2658C47.4489 16.5504 47.7547 16.9226 48.2572 17.1196C48.7378 17.3166 49.2402 17.229 49.3276 16.9444C49.4369 16.6598 49.131 16.2877 48.6286 16.0907C48.148 15.8936 47.6455 15.9812 47.5581 16.2658Z" fill="#FFFBDC"/>
<path d="M48.8907 19.9437C48.8033 20.1845 48.9999 20.4691 49.3276 20.6004C49.6553 20.7318 50.0048 20.6442 50.0922 20.4034C50.1796 20.1626 49.983 19.878 49.6553 19.7467C49.3276 19.6153 48.9781 19.7029 48.8907 19.9437Z" fill="#FFFBDC"/>
<path d="M49.6553 23.5121C49.5679 23.731 49.7427 23.9937 50.0267 24.1032C50.3107 24.2126 50.6165 24.1032 50.7039 23.9061C50.7913 23.6872 50.6165 23.4245 50.3325 23.3151C50.0485 23.2056 49.7427 23.3151 49.6553 23.5121Z" fill="#FFFBDC"/>
<path d="M49.6553 27.8467C49.5679 28.0656 49.7427 28.3283 50.0267 28.4378C50.3107 28.5472 50.6165 28.4378 50.7039 28.2408C50.7913 28.0218 50.6165 27.7591 50.3325 27.6497C50.0485 27.5402 49.7427 27.6497 49.6553 27.8467Z" fill="#FFFBDC"/>
<path d="M48.279 34.7646C48.1698 35.0492 48.3227 35.3776 48.6067 35.487C48.8907 35.5965 49.2184 35.4432 49.3276 35.1586C49.4369 34.874 49.2839 34.5457 49 34.4362C48.716 34.3267 48.3883 34.48 48.279 34.7646Z" fill="#FFFBDC"/>
<path d="M47.0775 37.939C46.9683 38.2235 47.1212 38.5519 47.4052 38.6614C47.6892 38.7709 48.0169 38.6176 48.1261 38.333C48.2353 38.0484 48.0824 37.72 47.7984 37.6106C47.5144 37.5011 47.1867 37.6544 47.0775 37.939Z" fill="#FFFBDC"/>
<path d="M45.9634 40.9381C45.8541 41.2227 45.9415 41.5292 46.16 41.6168C46.3784 41.7044 46.6406 41.5292 46.7498 41.2446C46.859 40.96 46.7717 40.6535 46.5532 40.566C46.3348 40.4784 46.0726 40.6535 45.9634 40.9381Z" fill="#FFFBDC"/>
<path d="M44.7619 43.4339C44.6526 43.7185 44.74 44.025 44.9585 44.1125C45.1769 44.2001 45.4391 44.025 45.5483 43.7404C45.6575 43.4558 45.5702 43.1493 45.3517 43.0617C45.1332 42.9741 44.8711 43.1493 44.7619 43.4339Z" fill="#FFFBDC"/>
<path d="M49.1747 31.3494C49.0655 31.634 49.2184 31.9624 49.5024 32.0718C49.7864 32.1813 50.1141 32.0281 50.2233 31.7435C50.3325 31.4589 50.1796 31.1305 49.8956 31.021C49.6116 30.9116 49.2839 31.0648 49.1747 31.3494Z" fill="#FFFBDC"/>
<path d="M43.1671 45.7763C43.0579 46.0609 43.1453 46.3674 43.3638 46.455C43.5822 46.5425 43.8444 46.3674 43.9536 46.0828C44.0628 45.7982 43.9754 45.4917 43.757 45.4041C43.5385 45.3166 43.2764 45.4917 43.1671 45.7763Z" fill="#FFFBDC"/>
<path d="M41.5506 48.3158C41.5943 48.6223 41.8346 48.8412 42.053 48.7974C42.2715 48.7536 42.4244 48.469 42.3589 48.1625C42.3152 47.8561 42.0749 47.6371 41.8564 47.6809C41.638 47.7247 41.485 48.0093 41.5506 48.3158Z" fill="#FFFBDC"/>
<path d="M38.2737 51.4026C38.2955 51.5777 38.4266 51.6872 38.5577 51.6653C38.6888 51.6434 38.7761 51.4902 38.7325 51.315C38.7106 51.1399 38.5795 51.0304 38.4485 51.0523C38.3174 51.0742 38.23 51.2275 38.2737 51.4026Z" fill="#FFFBDC"/>
<path d="M36.2639 52.0375C36.2639 52.0375 36.111 52.1688 36.1328 52.3002C36.1547 52.4315 36.2421 52.5191 36.3513 52.4972C36.4387 52.4972 36.5042 52.3658 36.4824 52.2345C36.4605 52.1031 36.3731 52.0156 36.2639 52.0375Z" fill="#FFFBDC"/>
<path d="M39.9776 50.1767C40.0213 50.3737 40.1524 50.505 40.3053 50.4832C40.4364 50.4613 40.5456 50.2861 40.502 50.0891C40.4583 49.8921 40.3272 49.7607 40.1743 49.7826C40.0432 49.8045 39.934 49.9796 39.9776 50.1767Z" fill="#FFFBDC"/>
<path d="M49.8082 16.9006L49.7209 16.6817L49.6553 16.7474C49.6553 16.7255 49.6116 16.4847 48.5849 15.4339C47.3178 14.1422 44.6745 13.8357 44.6526 13.8357V13.6168C44.7837 13.6168 47.4271 13.9233 48.7596 15.2806C49.9612 16.5066 49.9175 16.7036 49.8956 16.7912C49.8956 16.835 49.8519 16.8787 49.8082 16.9006Z" fill="#FFFBDC"/>
<path d="M22.0205 53.0226C22.0205 53.0226 22.3919 52.8256 22.3919 51.4902H22.8506L22.7195 52.4534L22.086 53.2853L21.9986 53.0445L22.0205 53.0226Z" fill="#FFFBDC"/>
<path d="M22.654 52.4534L22.7851 51.2931H22.3263C22.3263 51.2931 22.5885 52.4534 21.7365 53.3948C20.2291 54.6207 18.3723 54.0296 18.3723 54.0296L18.2193 54.4018C17.7606 54.4018 17.3018 54.358 16.8867 54.2923C19.2024 55.1242 22.37 54.6645 23.1128 51.9718C23.222 51.6434 23.2657 51.2931 23.2875 50.9429C23.1346 51.4902 22.938 52.0156 22.654 52.4753" fill="#FFFBDC"/>
<path d="M29.4043 52.4534L29.2733 51.2931H29.732C29.732 51.2931 29.4699 52.4534 30.3219 53.3948C31.8292 54.6207 33.6861 54.0296 33.6861 54.0296L33.839 54.4018C34.2978 54.4018 34.7565 54.358 35.1716 54.2923C32.856 55.1242 29.6883 54.6645 28.9456 51.9718C28.8363 51.6434 28.7927 51.2931 28.7708 50.9429C28.9237 51.4902 29.1203 52.0156 29.4043 52.4753" fill="#FFFBDC"/>
<path d="M28.7927 50.8772C28.7927 50.8772 28.7271 50.1328 28.8582 49.2571H29.0985L29.2077 51.7091L28.88 51.6434C28.88 51.6434 28.7927 51.315 28.7927 50.8772Z" fill="#FFFBDC"/>
<path d="M25.21 33.2103C25.21 33.3854 25.1226 33.5168 24.9915 33.5168C24.8605 33.5168 24.7731 33.3854 24.7731 33.2103C24.7731 33.0351 24.8605 32.9038 24.9915 32.9038C25.1226 32.9038 25.21 33.0351 25.21 33.2103Z" fill="#FFFBDC"/>
<path d="M27.2198 33.2103C27.2198 33.3854 27.1324 33.5168 27.0013 33.5168C26.8702 33.5168 26.7828 33.3854 26.7828 33.2103C26.7828 33.0351 26.8702 32.9038 27.0013 32.9038C27.1324 32.9038 27.2198 33.0351 27.2198 33.2103Z" fill="#FFFBDC"/>
<path d="M29.3825 21.498V21.4323C29.3825 21.4323 29.601 21.4761 29.6883 21.498V21.0164C29.6883 21.0164 28.7053 20.6223 27.4382 20.6442C27.0013 20.6442 26.5207 20.6661 26.0401 20.7974C25.5595 20.6661 25.0789 20.6223 24.642 20.6442C23.3968 20.6004 22.37 21.0164 22.37 21.0164V21.498C22.5011 21.4761 22.6103 21.4542 22.6977 21.4323V21.498C23.2002 21.3885 23.6808 21.3447 24.0958 21.3229C24.358 21.3229 24.5983 21.3447 24.7949 21.3666C22.8725 22.6802 22.086 24.9569 23.1346 26.8616C24.1832 28.7881 25.8653 29.8608 25.8653 29.8608C25.8653 29.8608 25.9309 29.817 26.0183 29.7513C26.1275 29.817 26.1712 29.8608 26.1712 29.8608C26.1712 29.8608 27.8533 28.81 28.9019 26.8616C29.9505 24.9569 29.164 22.6802 27.2416 21.3666C27.4382 21.3447 27.6785 21.3229 27.9407 21.3229C28.3558 21.3229 28.8364 21.3885 29.3388 21.498M24.5764 27.7153C23.0909 24.5191 24.9697 22.5926 25.9964 21.8483C27.0232 22.5926 28.9237 24.4972 27.4164 27.7153C27.4164 27.7153 26.7829 28.6786 25.9964 29.0508C25.21 28.6786 24.5764 27.7153 24.5764 27.7153Z" fill="#FFFBDC"/>
<path d="M26.5644 41.4198C26.5644 41.7044 26.3241 41.9452 26.0401 41.9452C25.7561 41.9452 25.5158 41.7044 25.5158 41.4198C25.5158 41.1352 25.7561 40.8944 26.0401 40.8944C26.3241 40.8944 26.5644 41.1352 26.5644 41.4198Z" fill="#FFFBDC"/>
</g>
</g>
<path d="M84.8122 0V56" stroke="#FFFBDC" stroke-miterlimit="10"/>
<g clip-path="url(#clip0_2622_665)">
<path d="M214.162 46.3713C213.707 46.3713 213.303 46.2824 212.937 46.1048C212.571 45.9271 212.281 45.6479 212.066 45.2672C211.851 44.8992 211.738 44.417 211.738 43.846V39.8106H212.659V43.8587C212.659 44.2521 212.722 44.5693 212.849 44.8104C212.975 45.0642 213.152 45.2419 213.392 45.3688C213.619 45.483 213.884 45.5464 214.2 45.5464C214.515 45.5464 214.78 45.483 215.008 45.3688C215.235 45.2546 215.412 45.0642 215.538 44.8104C215.664 44.5566 215.727 44.2394 215.727 43.8587V39.8106H216.649V43.846C216.649 44.4297 216.535 44.8992 216.321 45.2672C216.106 45.6352 215.803 45.9144 215.424 46.1048C215.046 46.2951 214.642 46.3713 214.187 46.3713H214.162Z" fill="#FFFBDC"/>
<path d="M217.848 46.2571V41.6126H218.669L218.72 42.412C218.871 42.1329 219.073 41.9171 219.338 41.7522C219.603 41.5872 219.919 41.5111 220.26 41.5111C220.626 41.5111 220.942 41.5872 221.207 41.7268C221.472 41.8791 221.674 42.0948 221.825 42.3994C221.977 42.7039 222.04 43.0719 222.04 43.5161V46.2698H221.118V43.6176C221.118 43.1861 221.017 42.8562 220.828 42.6405C220.639 42.4247 220.361 42.3105 220.007 42.3105C219.768 42.3105 219.553 42.374 219.363 42.4755C219.174 42.5897 219.023 42.7547 218.909 42.9831C218.795 43.1988 218.745 43.478 218.745 43.7952V46.2824H217.823L217.848 46.2571Z" fill="#FFFBDC"/>
<path d="M227.128 46.3713C226.749 46.3713 226.434 46.3078 226.181 46.1809C225.929 46.054 225.739 45.8764 225.626 45.6606C225.5 45.4449 225.436 45.2038 225.436 44.95C225.436 44.6454 225.512 44.379 225.676 44.1632C225.84 43.9475 226.068 43.7825 226.358 43.6556C226.648 43.5287 227.002 43.478 227.419 43.478H228.618C228.618 43.2115 228.58 42.9831 228.504 42.8054C228.429 42.6278 228.302 42.4882 228.151 42.3993C227.999 42.3105 227.797 42.2598 227.558 42.2598C227.28 42.2598 227.052 42.3232 226.85 42.4628C226.661 42.5897 226.535 42.7927 226.484 43.0465H225.563C225.601 42.7166 225.714 42.4374 225.904 42.209C226.093 41.9806 226.333 41.8029 226.623 41.676C226.914 41.5491 227.229 41.4857 227.558 41.4857C227.987 41.4857 228.353 41.5618 228.656 41.7141C228.946 41.8664 229.174 42.0821 229.325 42.3613C229.477 42.6404 229.552 42.9704 229.552 43.3638V46.2444H228.757L228.681 45.4576C228.618 45.5845 228.53 45.6987 228.441 45.8129C228.353 45.9271 228.239 46.0159 228.113 46.1048C227.987 46.1809 227.848 46.2444 227.684 46.2951C227.52 46.3459 227.343 46.3586 227.141 46.3586L227.128 46.3713ZM227.305 45.6226C227.494 45.6226 227.684 45.5845 227.835 45.5084C227.987 45.4322 228.126 45.318 228.239 45.1784C228.353 45.0388 228.441 44.8866 228.492 44.7089C228.555 44.5312 228.58 44.3536 228.593 44.1632V44.1379H227.494C227.229 44.1379 227.015 44.1759 226.85 44.2394C226.686 44.3028 226.573 44.3916 226.497 44.5059C226.421 44.6201 226.383 44.747 226.383 44.8992C226.383 45.0515 226.421 45.1784 226.484 45.2926C226.56 45.3941 226.661 45.483 226.787 45.5464C226.926 45.6099 227.09 45.6353 227.28 45.6353L227.305 45.6226Z" fill="#FFFBDC"/>
<path d="M231.85 46.2571L230.12 41.6126H231.08L232.393 45.3815L233.719 41.6126H234.666L232.936 46.2571H231.85Z" fill="#FFFBDC"/>
<path d="M237.368 46.3713C236.926 46.3713 236.534 46.2698 236.193 46.0667C235.853 45.8637 235.587 45.5845 235.385 45.2165C235.196 44.8485 235.095 44.4297 235.095 43.9475C235.095 43.4653 235.196 43.0211 235.385 42.6658C235.575 42.3105 235.84 42.0187 236.193 41.8029C236.534 41.5999 236.938 41.4984 237.38 41.4984C237.822 41.4984 238.226 41.5999 238.542 41.8029C238.857 42.006 239.123 42.2724 239.299 42.6151C239.476 42.945 239.564 43.3257 239.564 43.7318C239.564 43.7952 239.564 43.8587 239.564 43.9348C239.564 44.011 239.564 44.0871 239.552 44.1759H235.764V43.5161H238.643C238.63 43.1227 238.491 42.8308 238.251 42.6024C238.012 42.374 237.721 42.2724 237.355 42.2724C237.102 42.2724 236.875 42.3232 236.661 42.4374C236.459 42.5516 236.282 42.7166 236.156 42.9323C236.029 43.148 235.966 43.4272 235.966 43.7572V44.011C235.966 44.3536 236.029 44.6455 236.156 44.8866C236.282 45.1277 236.446 45.3053 236.661 45.4195C236.863 45.5337 237.09 45.5972 237.342 45.5972C237.633 45.5972 237.873 45.5337 238.062 45.4068C238.251 45.2799 238.39 45.1023 238.479 44.8866H239.4C239.325 45.1657 239.186 45.4195 238.996 45.6479C238.807 45.8764 238.567 46.054 238.289 46.1809C238.012 46.3078 237.696 46.3713 237.33 46.3713H237.368Z" fill="#FFFBDC"/>
<path d="M240.587 46.2571V41.6126H241.408L241.458 42.412C241.61 42.1329 241.812 41.9171 242.077 41.7522C242.342 41.5872 242.658 41.5111 242.999 41.5111C243.365 41.5111 243.68 41.5872 243.946 41.7268C244.211 41.8791 244.413 42.0948 244.564 42.3994C244.716 42.7039 244.779 43.0719 244.779 43.5161V46.2698H243.857V43.6176C243.857 43.1861 243.756 42.8562 243.567 42.6405C243.377 42.4247 243.1 42.3105 242.746 42.3105C242.506 42.3105 242.292 42.374 242.102 42.4755C241.913 42.5897 241.761 42.7547 241.648 42.9831C241.534 43.1988 241.484 43.478 241.484 43.7952V46.2824H240.562L240.587 46.2571Z" fill="#FFFBDC"/>
<path d="M246.509 40.737C246.332 40.737 246.18 40.6862 246.067 40.572C245.953 40.4578 245.903 40.3182 245.903 40.1532C245.903 39.9883 245.953 39.8487 246.067 39.7472C246.18 39.6456 246.319 39.5822 246.509 39.5822C246.698 39.5822 246.824 39.633 246.938 39.7472C247.051 39.8614 247.115 39.9883 247.115 40.1532C247.115 40.3182 247.051 40.4705 246.938 40.572C246.824 40.6862 246.673 40.737 246.509 40.737ZM246.041 46.2698V41.6253H246.963V46.2698H246.041Z" fill="#FFFBDC"/>
<path d="M248.264 46.2571V41.6126H249.084L249.173 42.4882C249.274 42.2851 249.412 42.1075 249.577 41.9552C249.741 41.8156 249.93 41.7014 250.157 41.6126C250.385 41.5364 250.637 41.4984 250.928 41.4984V42.4755H250.599C250.41 42.4755 250.233 42.5009 250.056 42.5516C249.88 42.6024 249.728 42.6785 249.602 42.7927C249.476 42.9069 249.362 43.0592 249.299 43.2496C249.236 43.4399 249.185 43.681 249.185 43.9602V46.2698H248.264V46.2571Z" fill="#FFFBDC"/>
<path d="M254.122 48.2874V41.6126H254.942L255.031 42.3359C255.132 42.1963 255.245 42.0567 255.397 41.9298C255.548 41.8029 255.725 41.7014 255.927 41.6253C256.129 41.5491 256.369 41.5111 256.647 41.5111C257.089 41.5111 257.48 41.6253 257.808 41.8283C258.137 42.044 258.402 42.3359 258.591 42.7039C258.781 43.0719 258.869 43.4907 258.869 43.9602C258.869 44.4297 258.768 44.8485 258.579 45.2165C258.389 45.5845 258.124 45.8637 257.796 46.0794C257.468 46.2824 257.076 46.3967 256.634 46.3967C256.268 46.3967 255.952 46.3205 255.675 46.1809C255.397 46.0413 255.182 45.8383 255.018 45.5718V48.3128H254.097L254.122 48.2874ZM256.495 45.5718C256.773 45.5718 257.026 45.5084 257.24 45.3688C257.455 45.2292 257.632 45.0388 257.758 44.7977C257.884 44.5566 257.947 44.2648 257.947 43.9348C257.947 43.6049 257.884 43.3257 257.758 43.0846C257.632 42.8435 257.455 42.6531 257.24 42.5136C257.026 42.374 256.773 42.3105 256.495 42.3105C256.218 42.3105 255.952 42.374 255.738 42.5136C255.523 42.6531 255.346 42.8435 255.233 43.0846C255.107 43.3257 255.043 43.6176 255.043 43.9348C255.043 44.2521 255.107 44.5439 255.233 44.7977C255.359 45.0388 255.523 45.2292 255.738 45.3688C255.952 45.5084 256.205 45.5718 256.495 45.5718Z" fill="#FFFBDC"/>
<path d="M262.063 46.3713C261.634 46.3713 261.243 46.2698 260.889 46.0667C260.536 45.8637 260.27 45.5845 260.068 45.2165C259.866 44.8485 259.765 44.4297 259.765 43.9475C259.765 43.4653 259.866 43.0212 260.068 42.6658C260.27 42.2978 260.548 42.0187 260.889 41.8156C261.23 41.6126 261.634 41.5111 262.063 41.5111C262.493 41.5111 262.897 41.6126 263.237 41.8156C263.578 42.0187 263.856 42.2978 264.046 42.6658C264.235 43.0338 264.349 43.4526 264.349 43.9475C264.349 44.4424 264.248 44.8612 264.046 45.2292C263.843 45.5972 263.578 45.8764 263.225 46.0794C262.871 46.2824 262.48 46.384 262.038 46.384L262.063 46.3713ZM262.063 45.5845C262.316 45.5845 262.543 45.5211 262.745 45.3942C262.947 45.2673 263.111 45.0896 263.237 44.8485C263.364 44.6074 263.427 44.3028 263.427 43.9348C263.427 43.5668 263.364 43.275 263.237 43.0212C263.111 42.78 262.947 42.5897 262.745 42.4755C262.543 42.3486 262.316 42.2851 262.076 42.2851C261.836 42.2851 261.609 42.3486 261.394 42.4755C261.179 42.6024 261.015 42.78 260.889 43.0212C260.763 43.2623 260.7 43.5668 260.7 43.9348C260.7 44.3028 260.763 44.5947 260.889 44.8485C261.015 45.0896 261.179 45.2799 261.382 45.3942C261.584 45.5211 261.811 45.5845 262.051 45.5845H262.063Z" fill="#FFFBDC"/>
<path d="M267.151 46.3713C266.785 46.3713 266.482 46.2951 266.204 46.1555C265.927 46.016 265.737 45.7875 265.586 45.4957C265.434 45.2038 265.371 44.8231 265.371 44.379V41.6253H266.293V44.2774C266.293 44.7089 266.394 45.0388 266.583 45.2673C266.773 45.483 267.05 45.5972 267.404 45.5972C267.644 45.5972 267.858 45.5337 268.048 45.4195C268.237 45.3053 268.389 45.1277 268.502 44.9119C268.616 44.6962 268.666 44.417 268.666 44.0998V41.6126H269.588V46.2571H268.767L268.704 45.4576C268.565 45.7368 268.363 45.9652 268.086 46.1175C267.821 46.2824 267.505 46.3586 267.151 46.3586V46.3713Z" fill="#FFFBDC"/>
<path d="M270.838 46.2571V41.6126H271.659L271.747 42.4882C271.848 42.2851 271.987 42.1075 272.151 41.9552C272.315 41.8156 272.505 41.7014 272.732 41.6126C272.959 41.5364 273.212 41.4984 273.502 41.4984V42.4755H273.174C272.984 42.4755 272.808 42.5009 272.631 42.5516C272.454 42.6024 272.303 42.6785 272.176 42.7927C272.05 42.9069 271.937 43.0592 271.873 43.2496C271.81 43.4399 271.76 43.681 271.76 43.9602V46.2698H270.838V46.2571Z" fill="#FFFBDC"/>
<path d="M278.603 46.2571C278.312 46.2571 278.06 46.2063 277.845 46.1175C277.631 46.0286 277.467 45.8764 277.353 45.6606C277.239 45.4449 277.176 45.153 277.176 44.785V42.3994H276.381V41.6126H277.176L277.29 40.4451H278.098V41.6126H279.411V42.3994H278.098V44.7977C278.098 45.0642 278.148 45.2419 278.262 45.3434C278.376 45.4322 278.565 45.483 278.83 45.483H279.36V46.2698H278.603V46.2571Z" fill="#FFFBDC"/>
<path d="M282.403 46.3713C281.974 46.3713 281.582 46.2698 281.229 46.0667C280.875 45.8637 280.61 45.5845 280.408 45.2165C280.206 44.8485 280.105 44.4297 280.105 43.9475C280.105 43.4653 280.206 43.0212 280.408 42.6658C280.61 42.2978 280.888 42.0187 281.229 41.8156C281.57 41.6126 281.974 41.5111 282.403 41.5111C282.832 41.5111 283.236 41.6126 283.577 41.8156C283.918 42.0187 284.196 42.2978 284.385 42.6658C284.575 43.0338 284.688 43.4526 284.688 43.9475C284.688 44.4424 284.587 44.8612 284.385 45.2292C284.183 45.5972 283.918 45.8764 283.565 46.0794C283.211 46.2824 282.82 46.384 282.378 46.384L282.403 46.3713ZM282.403 45.5845C282.656 45.5845 282.883 45.5211 283.085 45.3942C283.287 45.2673 283.451 45.0896 283.577 44.8485C283.704 44.6074 283.767 44.3028 283.767 43.9348C283.767 43.5668 283.704 43.275 283.577 43.0212C283.451 42.78 283.287 42.5897 283.085 42.4755C282.883 42.3486 282.656 42.2851 282.416 42.2851C282.176 42.2851 281.949 42.3486 281.734 42.4755C281.519 42.6024 281.355 42.78 281.229 43.0212C281.103 43.2623 281.04 43.5668 281.04 43.9348C281.04 44.3028 281.103 44.5947 281.229 44.8485C281.355 45.0896 281.519 45.2799 281.721 45.3942C281.923 45.5211 282.151 45.5845 282.391 45.5845H282.403Z" fill="#FFFBDC"/>
<path d="M287.491 46.3713C287.125 46.3713 286.822 46.2951 286.544 46.1555C286.267 46.016 286.077 45.7875 285.926 45.4957C285.774 45.2038 285.711 44.8231 285.711 44.379V41.6253H286.633V44.2774C286.633 44.7089 286.734 45.0388 286.923 45.2673C287.112 45.483 287.39 45.5972 287.744 45.5972C287.984 45.5972 288.198 45.5337 288.388 45.4195C288.577 45.3053 288.729 45.1277 288.842 44.9119C288.956 44.6962 289.006 44.417 289.006 44.0998V41.6126H289.928V46.2571H289.107L289.044 45.4576C288.905 45.7368 288.703 45.9652 288.426 46.1175C288.16 46.2824 287.845 46.3586 287.491 46.3586V46.3713Z" fill="#FFFBDC"/>
<path d="M293.084 46.2571C292.794 46.2571 292.541 46.2063 292.327 46.1175C292.112 46.0286 291.948 45.8764 291.834 45.6606C291.721 45.4449 291.658 45.153 291.658 44.785V42.3994H290.862V41.6126H291.658L291.771 40.4451H292.579V41.6126H293.892V42.3994H292.579V44.7977C292.579 45.0642 292.63 45.2419 292.743 45.3434C292.857 45.4322 293.047 45.483 293.312 45.483H293.842V46.2698H293.084V46.2571Z" fill="#FFFBDC"/>
<path d="M296.859 46.3713C296.418 46.3713 296.026 46.2698 295.685 46.0667C295.344 45.8637 295.079 45.5845 294.877 45.2165C294.688 44.8485 294.587 44.4297 294.587 43.9475C294.587 43.4653 294.688 43.0211 294.877 42.6658C295.067 42.3105 295.332 42.0187 295.685 41.8029C296.026 41.5999 296.43 41.4984 296.872 41.4984C297.314 41.4984 297.718 41.5999 298.034 41.8029C298.349 42.006 298.614 42.2724 298.791 42.6151C298.968 42.945 299.056 43.3257 299.056 43.7318C299.056 43.7952 299.056 43.8587 299.056 43.9348C299.056 44.011 299.056 44.0871 299.044 44.1759H295.256V43.5161H298.135C298.122 43.1227 297.983 42.8308 297.743 42.6024C297.503 42.374 297.213 42.2724 296.847 42.2724C296.594 42.2724 296.367 42.3232 296.152 42.4374C295.95 42.5516 295.774 42.7166 295.647 42.9323C295.521 43.148 295.458 43.4272 295.458 43.7572V44.011C295.458 44.3536 295.521 44.6455 295.647 44.8866C295.774 45.1277 295.938 45.3053 296.152 45.4195C296.354 45.5337 296.582 45.5972 296.834 45.5972C297.125 45.5972 297.364 45.5337 297.554 45.4068C297.743 45.2799 297.882 45.1023 297.971 44.8866H298.892C298.816 45.1657 298.678 45.4195 298.488 45.6479C298.299 45.8764 298.059 46.054 297.781 46.1809C297.503 46.3078 297.188 46.3713 296.822 46.3713H296.859Z" fill="#FFFBDC"/>
<path d="M301.872 46.3713C301.48 46.3713 301.14 46.3078 300.849 46.1809C300.559 46.054 300.319 45.8764 300.155 45.6353C299.978 45.4068 299.877 45.1277 299.839 44.8104H300.773C300.799 44.9627 300.862 45.0896 300.95 45.2165C301.039 45.3434 301.165 45.4322 301.316 45.5084C301.468 45.5845 301.657 45.6226 301.872 45.6226C302.074 45.6226 302.238 45.5972 302.377 45.5337C302.516 45.4703 302.604 45.3942 302.667 45.2926C302.73 45.1911 302.756 45.0769 302.756 44.9627C302.756 44.785 302.718 44.6581 302.629 44.5693C302.541 44.4805 302.427 44.4043 302.263 44.3536C302.099 44.3028 301.91 44.2521 301.682 44.214C301.468 44.1759 301.266 44.1252 301.064 44.0617C300.862 43.9983 300.685 43.9221 300.534 43.8206C300.382 43.7191 300.256 43.5922 300.167 43.4526C300.079 43.3003 300.028 43.11 300.028 42.8943C300.028 42.6278 300.104 42.3867 300.243 42.1836C300.382 41.9806 300.584 41.8029 300.849 41.6887C301.114 41.5745 301.417 41.5111 301.771 41.5111C302.288 41.5111 302.692 41.638 303.008 41.8791C303.324 42.1202 303.501 42.4755 303.564 42.9196H302.667C302.642 42.7166 302.554 42.5516 302.389 42.4374C302.225 42.3232 302.023 42.2725 301.758 42.2725C301.493 42.2725 301.291 42.3232 301.152 42.4247C301.013 42.5263 300.938 42.6658 300.938 42.8435C300.938 42.9577 300.975 43.0465 301.051 43.1354C301.127 43.2242 301.253 43.2876 301.405 43.3511C301.556 43.4145 301.758 43.4653 301.973 43.5161C302.301 43.5795 302.591 43.6556 302.844 43.7445C303.097 43.8333 303.311 43.9729 303.463 44.1506C303.614 44.3282 303.69 44.582 303.69 44.9119C303.69 45.2038 303.627 45.4576 303.475 45.6733C303.324 45.8891 303.109 46.0667 302.844 46.1936C302.566 46.3205 302.251 46.384 301.872 46.384V46.3713Z" fill="#FFFBDC"/>
<path d="M309.22 46.3713C308.778 46.3713 308.387 46.2698 308.046 46.0667C307.705 45.8637 307.44 45.5845 307.238 45.2165C307.048 44.8485 306.947 44.4297 306.947 43.9475C306.947 43.4653 307.048 43.0211 307.238 42.6658C307.427 42.3105 307.692 42.0187 308.046 41.8029C308.387 41.5999 308.791 41.4984 309.233 41.4984C309.674 41.4984 310.078 41.5999 310.394 41.8029C310.71 42.006 310.975 42.2724 311.152 42.6151C311.328 42.945 311.417 43.3257 311.417 43.7318C311.417 43.7952 311.417 43.8587 311.417 43.9348C311.417 44.011 311.417 44.0871 311.404 44.1759H307.616V43.5161H310.495C310.482 43.1227 310.344 42.8308 310.104 42.6024C309.864 42.374 309.573 42.2724 309.207 42.2724C308.955 42.2724 308.728 42.3232 308.513 42.4374C308.311 42.5516 308.134 42.7166 308.008 42.9323C307.882 43.148 307.818 43.4272 307.818 43.7572V44.011C307.818 44.3536 307.882 44.6455 308.008 44.8866C308.134 45.1277 308.298 45.3053 308.513 45.4195C308.715 45.5337 308.942 45.5972 309.195 45.5972C309.485 45.5972 309.725 45.5337 309.914 45.4068C310.104 45.2799 310.243 45.1023 310.331 44.8866H311.253C311.177 45.1657 311.038 45.4195 310.849 45.6479C310.659 45.8764 310.419 46.054 310.142 46.1809C309.864 46.3078 309.548 46.3713 309.182 46.3713H309.22Z" fill="#FFFBDC"/>
<path d="M314.207 46.2571C313.917 46.2571 313.664 46.2063 313.45 46.1175C313.235 46.0286 313.071 45.8764 312.957 45.6606C312.843 45.4449 312.78 45.153 312.78 44.785V42.3994H311.985V41.6126H312.78L312.894 40.4451H313.702V41.6126H315.015V42.3994H313.702V44.7977C313.702 45.0642 313.753 45.2419 313.866 45.3434C313.98 45.4322 314.169 45.483 314.434 45.483H314.965V46.2698H314.207V46.2571Z" fill="#FFFBDC"/>
<path d="M320.28 46.2571C319.99 46.2571 319.737 46.2063 319.522 46.1175C319.308 46.0286 319.144 45.8764 319.03 45.6606C318.916 45.4449 318.853 45.153 318.853 44.785V42.3994H318.058V41.6126H318.853L318.967 40.4451H319.775V41.6126H321.088V42.3994H319.775V44.7977C319.775 45.0642 319.825 45.2419 319.939 45.3434C320.053 45.4322 320.242 45.483 320.507 45.483H321.037V46.2698H320.28V46.2571Z" fill="#FFFBDC"/>
<path d="M324.08 46.3713C323.651 46.3713 323.26 46.2698 322.906 46.0667C322.553 45.8637 322.287 45.5845 322.085 45.2165C321.883 44.8485 321.782 44.4297 321.782 43.9475C321.782 43.4653 321.883 43.0212 322.085 42.6658C322.287 42.2978 322.565 42.0187 322.906 41.8156C323.247 41.6126 323.651 41.5111 324.08 41.5111C324.51 41.5111 324.914 41.6126 325.254 41.8156C325.595 42.0187 325.873 42.2978 326.062 42.6658C326.252 43.0338 326.365 43.4526 326.365 43.9475C326.365 44.4424 326.264 44.8612 326.062 45.2292C325.86 45.5972 325.595 45.8764 325.242 46.0794C324.888 46.2824 324.497 46.384 324.055 46.384L324.08 46.3713ZM324.08 45.5845C324.333 45.5845 324.56 45.5211 324.762 45.3942C324.964 45.2673 325.128 45.0896 325.254 44.8485C325.381 44.6074 325.444 44.3028 325.444 43.9348C325.444 43.5668 325.381 43.275 325.254 43.0212C325.128 42.78 324.964 42.5897 324.762 42.4755C324.56 42.3486 324.333 42.2851 324.093 42.2851C323.853 42.2851 323.626 42.3486 323.411 42.4755C323.196 42.6024 323.032 42.78 322.906 43.0212C322.78 43.2623 322.717 43.5668 322.717 43.9348C322.717 44.3028 322.78 44.5947 322.906 44.8485C323.032 45.0896 323.196 45.2799 323.398 45.3942C323.6 45.5211 323.828 45.5845 324.068 45.5845H324.08Z" fill="#FFFBDC"/>
<path d="M329.168 46.3713C328.802 46.3713 328.499 46.2951 328.221 46.1555C327.944 46.016 327.754 45.7875 327.603 45.4957C327.451 45.2038 327.388 44.8231 327.388 44.379V41.6253H328.31V44.2774C328.31 44.7089 328.411 45.0388 328.6 45.2673C328.79 45.483 329.067 45.5972 329.421 45.5972C329.661 45.5972 329.875 45.5337 330.065 45.4195C330.254 45.3053 330.406 45.1277 330.519 44.9119C330.633 44.6962 330.683 44.417 330.683 44.0998V41.6126H331.605V46.2571H330.784L330.721 45.4576C330.582 45.7368 330.38 45.9652 330.103 46.1175C329.838 46.2824 329.522 46.3586 329.168 46.3586V46.3713Z" fill="#FFFBDC"/>
<path d="M334.648 46.3713C334.257 46.3713 333.916 46.3078 333.625 46.1809C333.335 46.054 333.095 45.8764 332.931 45.6353C332.754 45.4068 332.653 45.1277 332.615 44.8104H333.549C333.575 44.9627 333.638 45.0896 333.726 45.2165C333.815 45.3434 333.941 45.4322 334.092 45.5084C334.244 45.5845 334.433 45.6226 334.648 45.6226C334.85 45.6226 335.014 45.5972 335.153 45.5337C335.292 45.4703 335.38 45.3942 335.443 45.2926C335.506 45.1911 335.532 45.0769 335.532 44.9627C335.532 44.785 335.494 44.6581 335.405 44.5693C335.317 44.4805 335.203 44.4043 335.039 44.3536C334.875 44.3028 334.686 44.2521 334.459 44.214C334.244 44.1759 334.042 44.1252 333.84 44.0617C333.638 43.9983 333.461 43.9221 333.31 43.8206C333.158 43.7191 333.032 43.5922 332.943 43.4526C332.855 43.3003 332.805 43.11 332.805 42.8943C332.805 42.6278 332.88 42.3867 333.019 42.1836C333.158 41.9806 333.36 41.8029 333.625 41.6887C333.89 41.5745 334.193 41.5111 334.547 41.5111C335.065 41.5111 335.469 41.638 335.784 41.8791C336.1 42.1202 336.277 42.4755 336.34 42.9196H335.443C335.418 42.7166 335.33 42.5516 335.166 42.4374C335.001 42.3232 334.799 42.2725 334.534 42.2725C334.269 42.2725 334.067 42.3232 333.928 42.4247C333.789 42.5263 333.714 42.6658 333.714 42.8435C333.714 42.9577 333.752 43.0465 333.827 43.1354C333.903 43.2242 334.029 43.2876 334.181 43.3511C334.332 43.4145 334.534 43.4653 334.749 43.5161C335.077 43.5795 335.368 43.6556 335.62 43.7445C335.873 43.8333 336.087 43.9729 336.239 44.1506C336.39 44.3282 336.466 44.582 336.466 44.9119C336.466 45.2038 336.403 45.4576 336.251 45.6733C336.1 45.8891 335.885 46.0667 335.62 46.1936C335.342 46.3205 335.027 46.384 334.648 46.384V46.3713Z" fill="#FFFBDC"/>
<path d="M211.763 19.5576V8.36516H218.871V9.91332H213.669V13.1873H217.912V14.7101H213.669V19.5576H211.763Z" fill="#FFFBDC"/>
<path d="M223.77 19.7479C223.012 19.7479 222.331 19.5703 221.724 19.215C221.118 18.8597 220.639 18.3774 220.285 17.7556C219.932 17.1338 219.755 16.4105 219.755 15.5857C219.755 14.7608 219.932 14.0375 220.285 13.4157C220.639 12.7939 221.118 12.299 221.737 11.9564C222.343 11.6138 223.025 11.4361 223.782 11.4361C224.54 11.4361 225.234 11.6138 225.828 11.9564C226.434 12.299 226.914 12.7939 227.267 13.4157C227.621 14.0375 227.797 14.7608 227.797 15.5984C227.797 16.4359 227.621 17.1465 227.267 17.7683C226.914 18.3901 226.434 18.885 225.815 19.2277C225.209 19.583 224.515 19.7606 223.757 19.7606L223.77 19.7479ZM223.77 18.0983C224.149 18.0983 224.502 18.0094 224.805 17.8191C225.121 17.6287 225.373 17.3496 225.563 16.9816C225.752 16.6136 225.853 16.144 225.853 15.5857C225.853 15.0273 225.752 14.5705 225.563 14.1898C225.373 13.8091 225.121 13.5426 224.805 13.3523C224.489 13.1619 224.149 13.0731 223.782 13.0731C223.416 13.0731 223.088 13.1619 222.76 13.3523C222.444 13.5426 222.179 13.8218 221.99 14.1898C221.8 14.5578 221.699 15.0273 221.699 15.5857C221.699 16.144 221.8 16.6009 221.99 16.9816C222.179 17.3623 222.444 17.6287 222.747 17.8191C223.063 18.0094 223.391 18.0983 223.757 18.0983H223.77Z" fill="#FFFBDC"/>
<path d="M229.641 19.5576V11.6264H231.32L231.459 12.9843C231.711 12.5147 232.065 12.134 232.532 11.8549C232.999 11.5757 233.529 11.4361 234.148 11.4361C234.805 11.4361 235.36 11.5757 235.815 11.8422C236.269 12.1087 236.623 12.5147 236.863 13.0604C237.102 13.5934 237.229 14.2659 237.229 15.0527V19.5576H235.335V15.2431C235.335 14.5451 235.183 13.9994 234.893 13.6188C234.603 13.2381 234.148 13.0477 233.555 13.0477C233.163 13.0477 232.81 13.1492 232.519 13.3396C232.216 13.5299 231.976 13.8091 231.8 14.1644C231.623 14.5197 231.535 14.9512 231.535 15.4715V19.5576H229.628H229.641Z" fill="#FFFBDC"/>
<path d="M242.797 19.748C242.052 19.748 241.395 19.5703 240.802 19.2023C240.208 18.847 239.754 18.3394 239.413 17.7176C239.085 17.0831 238.908 16.3725 238.908 15.573C238.908 14.7735 239.072 14.0629 239.413 13.4411C239.741 12.8193 240.208 12.3244 240.802 11.9691C241.395 11.6138 242.064 11.4361 242.809 11.4361C243.415 11.4361 243.946 11.5503 244.4 11.7787C244.855 12.0071 245.221 12.3371 245.486 12.7558V8.04791H247.392V19.5576H245.688L245.486 18.3901C245.322 18.6312 245.107 18.847 244.867 19.05C244.627 19.2531 244.337 19.4307 243.996 19.5576C243.655 19.6845 243.264 19.748 242.809 19.748H242.797ZM243.175 18.0856C243.63 18.0856 244.034 17.9841 244.387 17.7683C244.741 17.5526 245.006 17.2607 245.208 16.88C245.397 16.4994 245.498 16.0679 245.498 15.5984C245.498 15.1288 245.397 14.672 245.208 14.304C245.006 13.936 244.741 13.6441 244.387 13.4284C244.034 13.2127 243.63 13.1112 243.175 13.1112C242.721 13.1112 242.329 13.2127 241.976 13.4284C241.622 13.6441 241.345 13.936 241.143 14.304C240.941 14.672 240.852 15.1035 240.852 15.5857C240.852 16.0679 240.953 16.512 241.143 16.8927C241.345 17.2734 241.61 17.5653 241.976 17.781C242.329 17.9968 242.733 18.0983 243.175 18.0983V18.0856Z" fill="#FFFBDC"/>
<path d="M252.177 19.748C251.508 19.748 250.953 19.6337 250.523 19.418C250.094 19.2023 249.766 18.9104 249.551 18.5424C249.337 18.1744 249.236 17.7683 249.236 17.3369C249.236 16.842 249.362 16.3978 249.627 16.0298C249.892 15.6618 250.271 15.37 250.776 15.1669C251.281 14.9639 251.912 14.8497 252.67 14.8497H254.69C254.69 14.4309 254.627 14.0883 254.513 13.8218C254.387 13.5553 254.21 13.3396 253.958 13.2127C253.705 13.0731 253.402 13.0096 253.023 13.0096C252.594 13.0096 252.215 13.1112 251.887 13.3269C251.559 13.5299 251.369 13.8472 251.306 14.2406H249.425C249.476 13.6695 249.665 13.1746 249.993 12.7558C250.321 12.3371 250.751 12.0198 251.281 11.7914C251.811 11.563 252.392 11.4488 253.036 11.4488C253.781 11.4488 254.412 11.5757 254.955 11.8422C255.498 12.1087 255.902 12.4767 256.18 12.9589C256.458 13.4411 256.596 14.0248 256.596 14.6974V19.5703H254.98L254.791 18.2886C254.69 18.5043 254.551 18.6947 254.387 18.8724C254.223 19.05 254.033 19.2023 253.819 19.3419C253.604 19.4815 253.364 19.583 253.099 19.6591C252.834 19.7353 252.518 19.7733 252.19 19.7733L252.177 19.748ZM252.607 18.2252C252.91 18.2252 253.187 18.1744 253.44 18.0602C253.68 17.946 253.895 17.7937 254.071 17.5907C254.248 17.3876 254.387 17.1592 254.475 16.9054C254.576 16.6516 254.627 16.3851 254.652 16.106L252.884 16.0933C252.506 16.0933 252.19 16.144 251.95 16.2329C251.71 16.3344 251.534 16.4613 251.42 16.6263C251.306 16.7912 251.256 16.9816 251.256 17.1973C251.256 17.4257 251.306 17.6161 251.42 17.7683C251.534 17.9206 251.685 18.0348 251.887 18.1237C252.089 18.1998 252.329 18.2379 252.619 18.2379L252.607 18.2252Z" fill="#FFFBDC"/>
<path d="M261.874 19.5576C261.344 19.5576 260.876 19.4688 260.472 19.3038C260.068 19.1388 259.765 18.847 259.538 18.4536C259.324 18.0602 259.21 17.5272 259.21 16.8547V13.2254H257.859V11.6264H259.21L259.437 9.5453H261.116V11.6264H263.275V13.2254H261.116V16.8547C261.116 17.2607 261.205 17.5399 261.369 17.6922C261.533 17.8445 261.836 17.9206 262.265 17.9206H263.225V19.5449H261.874V19.5576Z" fill="#FFFBDC"/>
<path d="M266.091 10.3067C265.725 10.3067 265.434 10.1925 265.22 9.97676C265.005 9.76104 264.891 9.49455 264.891 9.16461C264.891 8.83468 265.005 8.56819 265.22 8.35246C265.434 8.13674 265.737 8.03522 266.091 8.03522C266.444 8.03522 266.735 8.13674 266.962 8.35246C267.189 8.5555 267.303 8.83468 267.303 9.16461C267.303 9.49455 267.189 9.74835 266.962 9.97676C266.735 10.1925 266.444 10.3067 266.091 10.3067ZM265.119 19.5576V11.6264H267.025V19.5576H265.119Z" fill="#FFFBDC"/>
<path d="M272.947 19.7479C272.189 19.7479 271.507 19.5703 270.901 19.215C270.295 18.8597 269.815 18.3774 269.462 17.7556C269.108 17.1338 268.932 16.4105 268.932 15.5857C268.932 14.7608 269.108 14.0375 269.462 13.4157C269.815 12.7939 270.295 12.299 270.914 11.9564C271.52 11.6138 272.202 11.4361 272.959 11.4361C273.717 11.4361 274.411 11.6138 275.005 11.9564C275.611 12.299 276.09 12.7939 276.444 13.4157C276.797 14.0375 276.974 14.7608 276.974 15.5984C276.974 16.4359 276.797 17.1465 276.444 17.7683C276.09 18.3901 275.611 18.885 274.992 19.2277C274.386 19.583 273.691 19.7606 272.934 19.7606L272.947 19.7479ZM272.947 18.0983C273.325 18.0983 273.679 18.0094 273.982 17.8191C274.297 17.6287 274.55 17.3496 274.739 16.9816C274.929 16.6136 275.03 16.144 275.03 15.5857C275.03 15.0273 274.929 14.5705 274.739 14.1898C274.55 13.8091 274.297 13.5426 273.982 13.3523C273.666 13.1619 273.325 13.0731 272.959 13.0731C272.593 13.0731 272.265 13.1619 271.937 13.3523C271.621 13.5426 271.356 13.8218 271.166 14.1898C270.977 14.5578 270.876 15.0273 270.876 15.5857C270.876 16.144 270.977 16.6009 271.166 16.9816C271.356 17.3623 271.621 17.6287 271.924 17.8191C272.24 18.0094 272.568 18.0983 272.934 18.0983H272.947Z" fill="#FFFBDC"/>
<path d="M278.817 19.5576V11.6264H280.497L280.636 12.9843C280.888 12.5147 281.242 12.134 281.709 11.8549C282.176 11.5757 282.706 11.4361 283.325 11.4361C283.981 11.4361 284.537 11.5757 284.991 11.8422C285.446 12.1087 285.799 12.5147 286.039 13.0604C286.279 13.5934 286.405 14.2659 286.405 15.0527V19.5576H284.512V15.2431C284.512 14.5451 284.36 13.9994 284.07 13.6188C283.779 13.2381 283.325 13.0477 282.731 13.0477C282.34 13.0477 281.987 13.1492 281.696 13.3396C281.393 13.5299 281.153 13.8091 280.976 14.1644C280.8 14.5197 280.711 14.9512 280.711 15.4715V19.5576H278.805H278.817Z" fill="#FFFBDC"/>
<path d="M215.361 35.09C214.553 35.09 213.833 34.9504 213.215 34.6585C212.584 34.3667 212.091 33.9606 211.738 33.4276C211.384 32.8946 211.195 32.2601 211.182 31.5241H213.202C213.202 31.8921 213.303 32.2348 213.467 32.5266C213.631 32.8185 213.884 33.0469 214.187 33.2246C214.49 33.4022 214.881 33.4784 215.323 33.4784C215.715 33.4784 216.056 33.4149 216.333 33.288C216.611 33.1611 216.826 32.9835 216.977 32.755C217.129 32.5266 217.205 32.2601 217.205 31.9429C217.205 31.5749 217.116 31.283 216.952 31.0546C216.788 30.8262 216.561 30.6358 216.27 30.4709C215.98 30.3059 215.639 30.1663 215.273 30.0521C214.894 29.9379 214.503 29.7983 214.086 29.646C213.227 29.3542 212.571 28.9862 212.129 28.5166C211.687 28.0471 211.46 27.4253 211.46 26.6512C211.46 26.004 211.611 25.4457 211.927 24.9762C212.243 24.5066 212.672 24.1386 213.227 23.8848C213.783 23.6184 214.427 23.4915 215.159 23.4915C215.891 23.4915 216.548 23.631 217.104 23.8975C217.659 24.164 218.088 24.532 218.417 25.0142C218.745 25.4838 218.909 26.0548 218.922 26.7147H216.889C216.889 26.4355 216.813 26.1817 216.674 25.9406C216.535 25.6995 216.333 25.5091 216.068 25.3442C215.803 25.1792 215.5 25.1158 215.134 25.1158C214.818 25.1158 214.528 25.1538 214.275 25.268C214.023 25.3822 213.821 25.5345 213.682 25.7502C213.543 25.9533 213.467 26.2198 213.467 26.5243C213.467 26.8289 213.53 27.07 213.669 27.273C213.808 27.4761 213.998 27.641 214.263 27.7679C214.515 27.9075 214.818 28.0217 215.147 28.1486C215.475 28.2755 215.854 28.3897 216.258 28.5293C216.813 28.707 217.306 28.9354 217.76 29.1892C218.215 29.443 218.568 29.7856 218.833 30.2044C219.098 30.6232 219.237 31.1561 219.237 31.816C219.237 32.387 219.086 32.9327 218.795 33.4276C218.492 33.9225 218.063 34.3286 217.495 34.6331C216.927 34.9377 216.207 35.09 215.361 35.09Z" fill="#FFFBDC"/>
<path d="M224.767 35.09C224.01 35.09 223.328 34.9123 222.722 34.557C222.116 34.2017 221.636 33.7195 221.283 33.0977C220.929 32.4759 220.752 31.7525 220.752 30.9277C220.752 30.1029 220.929 29.3795 221.283 28.745C221.636 28.1106 222.116 27.6283 222.735 27.2857C223.341 26.9431 224.022 26.7654 224.78 26.7654C225.537 26.7654 226.232 26.9431 226.838 27.2857C227.444 27.6283 227.924 28.1232 228.277 28.745C228.631 29.3668 228.807 30.1029 228.807 30.9277C228.807 31.7525 228.631 32.4759 228.277 33.0977C227.924 33.7195 227.444 34.2144 226.825 34.557C226.219 34.9123 225.525 35.09 224.767 35.09ZM224.767 33.4403C225.146 33.4403 225.5 33.3515 225.815 33.1611C226.131 32.9708 226.383 32.6916 226.573 32.3236C226.762 31.9556 226.863 31.4861 226.863 30.9277C226.863 30.3693 226.762 29.9125 226.573 29.5318C226.383 29.1511 226.131 28.8719 225.815 28.6943C225.5 28.5039 225.159 28.4151 224.792 28.4151C224.426 28.4151 224.098 28.5039 223.77 28.6943C223.454 28.8846 223.189 29.1638 223 29.5318C222.81 29.8998 222.709 30.3693 222.709 30.9277C222.709 31.4861 222.81 31.9429 223 32.3236C223.189 32.7043 223.454 32.9835 223.77 33.1611C224.085 33.3515 224.414 33.4403 224.78 33.4403H224.767Z" fill="#FFFBDC"/>
<path d="M230.638 34.8996V23.3772H232.545V34.8996H230.638Z" fill="#FFFBDC"/>
<path d="M237.342 35.09C236.673 35.09 236.118 34.9758 235.688 34.76C235.259 34.5443 234.931 34.2524 234.716 33.8844C234.502 33.5164 234.401 33.1104 234.401 32.6789C234.401 32.184 234.527 31.7399 234.792 31.3718C235.057 31.0038 235.436 30.712 235.941 30.5089C236.446 30.3059 237.077 30.1917 237.835 30.1917H239.855C239.855 29.7729 239.792 29.4303 239.665 29.1638C239.539 28.8973 239.362 28.6816 239.11 28.542C238.857 28.4024 238.554 28.339 238.176 28.339C237.746 28.339 237.355 28.4405 237.039 28.6562C236.711 28.8593 236.522 29.1765 236.459 29.5699H234.577C234.628 28.9988 234.817 28.5039 235.146 28.0852C235.474 27.6664 235.903 27.3492 236.433 27.1207C236.964 26.8923 237.544 26.7781 238.188 26.7781C238.933 26.7781 239.564 26.905 240.107 27.1715C240.65 27.438 241.054 27.806 241.332 28.2882C241.61 28.7704 241.749 29.3542 241.749 30.0267V34.9123H240.12L239.931 33.6306C239.83 33.8464 239.691 34.0367 239.527 34.2144C239.362 34.392 239.173 34.5443 238.958 34.6839C238.744 34.8235 238.504 34.925 238.239 35.0011C237.974 35.0773 237.658 35.1154 237.317 35.1154L237.342 35.09ZM237.772 33.5672C238.075 33.5672 238.352 33.5164 238.605 33.4022C238.845 33.288 239.059 33.1357 239.236 32.9327C239.413 32.7297 239.552 32.5012 239.64 32.2474C239.741 31.9936 239.792 31.7272 239.817 31.448L238.049 31.4353C237.671 31.4353 237.355 31.4861 237.115 31.5749C236.875 31.6764 236.698 31.8033 236.585 31.9683C236.471 32.1332 236.421 32.3236 236.421 32.5393C236.421 32.7677 236.471 32.9581 236.585 33.1104C236.698 33.2626 236.85 33.3768 237.052 33.4657C237.254 33.5418 237.494 33.5799 237.784 33.5799L237.772 33.5672Z" fill="#FFFBDC"/>
<path d="M247.519 35.09C246.723 35.09 246.016 34.9123 245.397 34.557C244.779 34.2017 244.299 33.7195 243.946 33.0977C243.592 32.4759 243.415 31.7525 243.415 30.9277C243.415 30.1029 243.592 29.3795 243.946 28.7704C244.299 28.1486 244.779 27.6664 245.397 27.3111C246.016 26.9558 246.723 26.7781 247.519 26.7781C248.516 26.7781 249.349 27.0446 250.031 27.5649C250.713 28.0852 251.142 28.8085 251.332 29.7095H249.311C249.21 29.3034 249.008 28.9862 248.68 28.7704C248.352 28.5547 247.96 28.4405 247.506 28.4405C247.115 28.4405 246.761 28.542 246.445 28.7324C246.13 28.9227 245.865 29.2146 245.675 29.5953C245.486 29.976 245.385 30.4328 245.385 30.9658C245.385 31.3592 245.435 31.7145 245.549 32.0317C245.663 32.349 245.814 32.6155 246.016 32.8312C246.218 33.0469 246.445 33.2119 246.698 33.3261C246.963 33.4403 247.228 33.4911 247.519 33.4911C247.822 33.4911 248.099 33.4403 248.352 33.3388C248.592 33.2373 248.806 33.085 248.983 32.8946C249.16 32.7043 249.274 32.4632 249.337 32.1967H251.357C251.167 33.085 250.725 33.7956 250.056 34.3286C249.375 34.8616 248.541 35.128 247.544 35.128L247.519 35.09Z" fill="#FFFBDC"/>
<path d="M253.049 34.8996V26.9558H254.753L254.93 28.4659C255.119 28.1106 255.359 27.806 255.624 27.5649C255.902 27.3111 256.218 27.1207 256.596 26.9812C256.963 26.8416 257.379 26.7781 257.834 26.7781V28.7958H257.303C256.963 28.7958 256.647 28.8339 256.369 28.91C256.079 28.9862 255.839 29.1257 255.624 29.3034C255.41 29.4811 255.245 29.7349 255.132 30.0521C255.018 30.3693 254.955 30.75 254.955 31.2069V34.8996H253.049Z" fill="#FFFBDC"/>
<path d="M262.644 35.09C261.887 35.09 261.205 34.9123 260.599 34.557C259.993 34.2017 259.513 33.7195 259.159 33.0977C258.806 32.4759 258.629 31.7525 258.629 30.9277C258.629 30.1029 258.806 29.3795 259.159 28.745C259.513 28.1106 259.993 27.6283 260.611 27.2857C261.217 26.9431 261.899 26.7654 262.657 26.7654C263.414 26.7654 264.109 26.9431 264.715 27.2857C265.321 27.6283 265.8 28.1232 266.154 28.745C266.508 29.3668 266.684 30.1029 266.684 30.9277C266.684 31.7525 266.508 32.4759 266.154 33.0977C265.8 33.7195 265.321 34.2144 264.702 34.557C264.096 34.9123 263.402 35.09 262.644 35.09ZM262.644 33.4403C263.023 33.4403 263.376 33.3515 263.692 33.1611C264.008 32.9708 264.26 32.6916 264.45 32.3236C264.639 31.9556 264.74 31.4861 264.74 30.9277C264.74 30.3693 264.639 29.9125 264.45 29.5318C264.26 29.1511 264.008 28.8719 263.692 28.6943C263.376 28.5039 263.035 28.4151 262.669 28.4151C262.303 28.4151 261.975 28.5039 261.647 28.6943C261.331 28.8846 261.066 29.1638 260.876 29.5318C260.687 29.8998 260.586 30.3693 260.586 30.9277C260.586 31.4861 260.687 31.9429 260.876 32.3236C261.066 32.7043 261.331 32.9835 261.647 33.1611C261.962 33.3515 262.291 33.4403 262.657 33.4403H262.644Z" fill="#FFFBDC"/>
<path d="M271.28 35.09C270.649 35.09 270.093 34.9504 269.626 34.6839C269.159 34.4174 268.805 34.0113 268.565 33.4657C268.326 32.9327 268.199 32.2601 268.199 31.4734V26.9558H270.106V31.283C270.106 31.9937 270.245 32.5393 270.535 32.92C270.825 33.3007 271.267 33.4784 271.861 33.4784C272.252 33.4784 272.606 33.3768 272.909 33.1865C273.212 32.9961 273.464 32.717 273.628 32.3617C273.792 32.0063 273.893 31.5749 273.893 31.0546V26.9558H275.8V34.8996H274.108L273.969 33.5418C273.729 34.0113 273.363 34.392 272.909 34.6712C272.442 34.9504 271.899 35.09 271.267 35.09H271.28Z" fill="#FFFBDC"/>
<path d="M277.681 38.4147V26.9558H279.386L279.588 28.1233C279.752 27.8948 279.966 27.6664 280.206 27.4507C280.446 27.235 280.737 27.07 281.077 26.9431C281.418 26.8162 281.81 26.7527 282.277 26.7527C283.034 26.7527 283.691 26.9304 284.272 27.2984C284.853 27.6664 285.307 28.1613 285.648 28.7831C285.989 29.4176 286.153 30.1282 286.153 30.9277C286.153 31.7272 285.989 32.4378 285.648 33.0596C285.307 33.6814 284.84 34.1763 284.259 34.5316C283.678 34.8869 283.009 35.0646 282.252 35.0646C281.646 35.0646 281.115 34.9504 280.673 34.722C280.219 34.4936 279.853 34.1636 279.588 33.7322V38.3893H277.681V38.4147ZM281.885 33.4149C282.34 33.4149 282.744 33.3134 283.098 33.0977C283.451 32.8819 283.729 32.5901 283.931 32.2221C284.133 31.8541 284.221 31.4226 284.221 30.9277C284.221 30.4328 284.12 30.014 283.931 29.6333C283.729 29.2526 283.464 28.9608 283.098 28.7451C282.731 28.5293 282.34 28.4278 281.885 28.4278C281.431 28.4278 281.027 28.5293 280.673 28.7451C280.32 28.9608 280.055 29.2526 279.853 29.6207C279.651 29.9887 279.562 30.4328 279.562 30.915C279.562 31.3972 279.663 31.8414 279.853 32.2094C280.042 32.5774 280.32 32.8819 280.673 33.085C281.027 33.3007 281.431 33.4022 281.885 33.4022V33.4149Z" fill="#FFFBDC"/>
<path d="M291.91 34.8996V23.6945H293.817V34.8996H291.91ZM293.539 29.976V28.4024H299.321V29.976H293.539ZM298.968 34.8996V23.6945H300.874V34.8996H298.968Z" fill="#FFFBDC"/>
<path d="M306.808 35.09C306.013 35.09 305.306 34.9123 304.7 34.5697C304.094 34.2271 303.614 33.7449 303.261 33.1231C302.92 32.5139 302.743 31.7906 302.743 30.9658C302.743 30.1409 302.907 29.4049 303.248 28.7704C303.589 28.136 304.069 27.641 304.675 27.2857C305.281 26.9304 305.988 26.7528 306.796 26.7528C307.604 26.7528 308.26 26.9304 308.854 27.273C309.435 27.6157 309.889 28.0852 310.217 28.6562C310.546 29.2273 310.71 29.8872 310.71 30.6105C310.71 30.712 310.71 30.8389 310.71 30.9658C310.71 31.0927 310.697 31.2323 310.684 31.3846H304.107V30.1536H308.791C308.765 29.5826 308.563 29.1384 308.185 28.8212C307.806 28.504 307.351 28.339 306.796 28.339C306.404 28.339 306.038 28.4278 305.71 28.6055C305.382 28.7831 305.117 29.0369 304.915 29.3922C304.713 29.7349 304.624 30.179 304.624 30.712V31.1815C304.624 31.6764 304.725 32.0952 304.915 32.4378C305.104 32.7804 305.369 33.0469 305.697 33.2373C306.026 33.4276 306.392 33.5164 306.796 33.5164C307.225 33.5164 307.591 33.4149 307.894 33.2246C308.197 33.0215 308.412 32.7677 308.563 32.4378H310.495C310.356 32.9454 310.116 33.4022 309.775 33.8083C309.435 34.2144 309.005 34.5316 308.513 34.7601C308.008 34.9885 307.452 35.1154 306.821 35.1154L306.808 35.09ZM305.003 26.2705V24.9L308.551 22.9458V24.5193L305.003 26.2832V26.2705Z" fill="#FFFBDC"/>
<path d="M317.048 35.09C316.644 35.09 316.278 35.0392 315.937 34.925C315.596 34.8235 315.305 34.6712 315.04 34.4682C314.775 34.2652 314.548 34.0367 314.371 33.7576L314.169 34.8996H312.465V23.3773H314.371V28.136C314.624 27.7679 314.965 27.4507 315.394 27.1842C315.823 26.9177 316.379 26.7781 317.06 26.7781C317.818 26.7781 318.487 26.9558 319.068 27.3238C319.649 27.6918 320.116 28.1867 320.444 28.8085C320.785 29.443 320.949 30.1536 320.949 30.9531C320.949 31.7526 320.785 32.4632 320.444 33.085C320.116 33.7068 319.649 34.2017 319.055 34.557C318.462 34.9123 317.793 35.09 317.035 35.09H317.048ZM316.669 33.4276C317.124 33.4276 317.528 33.3261 317.881 33.1104C318.235 32.8946 318.512 32.6028 318.714 32.2348C318.916 31.8668 319.017 31.4353 319.017 30.9404C319.017 30.4455 318.916 30.0267 318.714 29.646C318.512 29.2653 318.235 28.9735 317.881 28.7578C317.528 28.542 317.124 28.4405 316.669 28.4405C316.215 28.4405 315.81 28.542 315.457 28.7578C315.103 28.9735 314.838 29.2653 314.636 29.6334C314.434 30.0014 314.346 30.4455 314.346 30.9277C314.346 31.4099 314.447 31.8541 314.636 32.2221C314.826 32.5901 315.103 32.8946 315.457 33.0977C315.81 33.3134 316.215 33.4149 316.669 33.4149V33.4276Z" fill="#FFFBDC"/>
<path d="M326.555 35.09C325.759 35.09 325.052 34.9123 324.446 34.5697C323.84 34.2271 323.361 33.7449 323.007 33.1231C322.666 32.514 322.489 31.7906 322.489 30.9658C322.489 30.141 322.654 29.4049 322.994 28.7704C323.335 28.136 323.815 27.6411 324.421 27.2857C325.027 26.9304 325.734 26.7528 326.542 26.7528C327.35 26.7528 328.007 26.9304 328.6 27.273C329.181 27.6157 329.636 28.0852 329.964 28.6562C330.292 29.2273 330.456 29.8872 330.456 30.6105C330.456 30.712 330.456 30.8389 330.456 30.9658C330.456 31.0927 330.444 31.2323 330.431 31.3846H323.853V30.1536H328.537C328.512 29.5826 328.31 29.1385 327.931 28.8212C327.552 28.504 327.098 28.339 326.542 28.339C326.151 28.339 325.785 28.4278 325.456 28.6055C325.128 28.7831 324.863 29.0369 324.661 29.3923C324.459 29.7349 324.371 30.179 324.371 30.712V31.1815C324.371 31.6764 324.472 32.0952 324.661 32.4378C324.85 32.7804 325.116 33.0469 325.444 33.2373C325.772 33.4276 326.138 33.5165 326.542 33.5165C326.972 33.5165 327.338 33.4149 327.641 33.2246C327.944 33.0216 328.158 32.7678 328.31 32.4378H330.242C330.103 32.9454 329.863 33.4022 329.522 33.8083C329.181 34.2144 328.752 34.5316 328.259 34.7601C327.754 34.9885 327.199 35.1154 326.568 35.1154L326.555 35.09Z" fill="#FFFBDC"/>
<path d="M332.211 34.8996V26.9558H333.916L334.092 28.4659C334.282 28.1106 334.522 27.806 334.787 27.5649C335.065 27.3111 335.38 27.1208 335.759 26.9812C336.125 26.8416 336.542 26.7781 336.996 26.7781V28.7958H336.466C336.125 28.7958 335.809 28.8339 335.532 28.91C335.241 28.9862 335.001 29.1258 334.787 29.3034C334.572 29.4811 334.408 29.7349 334.294 30.0521C334.181 30.3694 334.118 30.7501 334.118 31.2069V34.8996H332.211Z" fill="#FFFBDC"/>
<path d="M341.857 34.8996C341.327 34.8996 340.86 34.8108 340.456 34.6458C340.052 34.4809 339.736 34.189 339.521 33.7956C339.307 33.4022 339.193 32.8693 339.193 32.1967V28.5674H337.842V26.9685H339.193L339.42 24.8873H341.112V26.9685H343.284V28.5674H341.112V32.1967C341.112 32.6028 341.201 32.882 341.365 33.0342C341.529 33.1865 341.832 33.2626 342.261 33.2626H343.221V34.8996H341.87H341.857Z" fill="#FFFBDC"/>
<path d="M172.788 46.3078V8.1875H180.376V46.2951H172.788V46.3078Z" fill="#FFFBDC"/>
<path d="M196.751 23.9229L193.67 18.6186C193.039 19.1261 189.176 21.6768 187.597 22.2478L187.32 22.3747H187.294C187.294 22.3747 187.294 22.3747 187.282 22.3747C185.098 23.2503 182.37 23.631 180.047 23.9737C179.984 23.9737 179.921 23.9864 179.883 23.9991H179.908C179.807 23.9991 179.719 24.0244 179.77 23.9991C174.442 24.6589 170.629 23.8975 164.278 25.0777C162.712 22.1971 160.654 19.6972 158.495 17.4384C157.422 16.3217 156.248 15.0527 154.847 14.3675C153.332 13.6314 151.072 14.5832 150.024 16.0806C149.948 16.1948 149.658 16.5501 149.569 16.6643C148.799 17.7556 147.865 18.8597 146.867 19.6972C146.691 19.8368 146.072 20.4078 145.908 20.5474C145.933 20.5347 145.971 20.5093 145.996 20.484C145.958 20.522 145.908 20.5601 145.857 20.5982C145.857 20.5982 145.845 20.6109 145.832 20.6109C145.819 20.6235 145.794 20.6489 145.769 20.6616C145.718 20.6997 145.668 20.7378 145.617 20.7758C143.029 22.6793 140.958 23.9737 138.029 25.2553C138.017 25.2553 137.991 25.2553 137.979 25.2807C137.966 25.2807 137.941 25.2934 137.916 25.3061C137.853 25.3315 137.726 25.3949 137.663 25.4076C137.663 25.4076 137.537 25.4584 137.474 25.4838C131.313 28.1613 124.293 29.608 117.702 30.5343V36.7143C130.126 34.7347 146.716 30.8643 153.584 21.1946C155.074 22.7428 156.614 24.6209 157.814 26.537C154.089 27.5776 149.847 29.811 147.89 32.9835C145.466 36.8666 146.362 42.7547 150.592 45.0261C157.246 48.592 165.705 44.8739 166.854 37.8691C167.182 35.7879 166.98 33.0977 166.096 30.7247C172.295 30.014 174.846 30.344 179.858 29.8998C185.994 29.3542 191.865 27.6283 196.789 23.8595L196.751 23.9229ZM160.667 39.303C160.351 39.7725 159.935 40.1659 159.455 40.5085C158.268 41.3334 156.728 41.7395 155.554 41.6506C155.516 41.6506 155.478 41.6379 155.44 41.6379C155.251 41.6126 155.061 41.5872 154.897 41.5491C154.657 41.4857 154.443 41.4095 154.253 41.3207C153.862 41.143 153.534 40.94 153.256 40.6862C152.991 40.4324 152.776 40.1405 152.625 39.8233C152.549 39.6583 152.486 39.4807 152.423 39.303C152.309 38.935 152.258 38.5416 152.233 38.0975C152.195 37.4122 152.296 36.8031 152.498 36.2574C153.9 32.4251 160.314 31.8033 160.314 31.8033C160.314 31.8033 161.374 34.0367 161.412 36.3463C161.437 37.3995 161.248 38.4528 160.654 39.3284L160.667 39.303Z" fill="#FFFBDC"/>
<path d="M131.666 30.1917V46.3078H124.078V8.1875H145.037V14.3421H131.653V24.1894" fill="#FFFBDC"/>
<path d="M190.969 46.3078V8.1875H198.556V46.2951H190.969V46.3078Z" fill="#FFFBDC"/>
</g>
<defs>
<clipPath id="clip0_2622_665">
<rect width="225.607" height="40.2395" fill="white" transform="translate(117.664 8.04791)"/>
</clipPath>
</defs>
</svg>
