<?xml version="1.0" encoding="UTF-8"?>
<svg id="Layer_2" data-name="Layer 2" xmlns="http://www.w3.org/2000/svg" viewBox="0 0 53.86 53.86">
  <defs>
    <style>
      .cls-1 {
        fill: #fffbdf;
      }
    </style>
  </defs>
  <g id="ELEMENTS">
    <g>
      <path class="cls-1" d="M31.1,26.76l-6.3-3.43c-.26-.15-1.14.04-1.14.34v6.68c0,.29.88.48,1.13.34l6.58-3.26c.27-.14,0-.53-.27-.68Z"/>
      <path class="cls-1" d="M26.93,0C12.06,0,0,12.06,0,26.93s12.06,26.93,26.93,26.93,26.93-12.06,26.93-26.93S41.8,0,26.93,0ZM40.01,30.34c0,3.17-2.57,5.74-5.74,5.74h-14.68c-3.17,0-5.74-2.57-5.74-5.74v-6.83c0-3.17,2.57-5.74,5.74-5.74h14.68c3.17,0,5.74,2.57,5.74,5.74v6.83Z"/>
    </g>
  </g>
</svg>