<svg width="199" height="56" viewBox="0 0 199 56" fill="none" xmlns="http://www.w3.org/2000/svg">
<mask id="mask0_2628_3512" style="mask-type:luminance" maskUnits="userSpaceOnUse" x="0" y="1" width="53" height="54">
<path d="M52.102 1.33545H0V54.6427H52.102V1.33545Z" fill="white"/>
</mask>
<g mask="url(#mask0_2628_3512)">
<mask id="mask1_2628_3512" style="mask-type:luminance" maskUnits="userSpaceOnUse" x="0" y="1" width="53" height="54">
<path d="M52.102 1.33545H0V54.6427H52.102V1.33545Z" fill="white"/>
</mask>
<g mask="url(#mask1_2628_3512)">
<path d="M26.0838 1.33545C23.2657 1.33545 20.9719 3.63412 20.9719 6.4582C20.9719 9.28228 23.2657 11.581 26.0838 11.581C28.9019 11.581 31.1957 9.28228 31.1957 6.4582C31.1957 3.63412 28.9019 1.33545 26.0838 1.33545ZM26.6518 10.0485C26.5644 9.76391 26.2804 9.54499 25.9746 9.54499C25.6687 9.54499 25.4066 9.74202 25.2973 10.0047C24.0084 9.72013 22.9599 8.73498 22.5885 7.46524C22.7196 7.33389 22.8069 7.15875 22.8069 6.96172C22.8069 6.69902 22.6759 6.4582 22.4574 6.34874C22.5011 4.64116 23.7463 3.21817 25.341 2.88979C25.4721 3.10871 25.6906 3.26195 25.9746 3.26195C26.2586 3.26195 26.4989 3.10871 26.6299 2.8679C28.3339 3.10871 29.6665 4.55359 29.7539 6.32685C29.4917 6.43631 29.317 6.69902 29.317 7.00551C29.317 7.24632 29.4262 7.44335 29.601 7.5747C29.1859 8.88823 28.0718 9.87337 26.6955 10.0923" fill="#13102D"/>
<path d="M16.7775 6.96178C16.6464 6.6115 16.4498 6.37069 16.4061 6.3269C16.5809 6.50204 16.712 6.69907 16.7775 6.96178Z" fill="#13102D"/>
<path d="M10.1364 34.9618C11.5564 34.9618 12.6924 36.1221 12.6924 37.5232C12.6924 38.9243 11.5345 40.0845 10.1364 40.0845C8.73828 40.0845 7.58046 38.9243 7.58046 37.5232C7.58046 36.1221 8.73828 34.9618 10.1364 34.9618ZM10.1364 33.9329C8.14845 33.9329 6.55371 35.5529 6.55371 37.5232C6.55371 39.4935 8.17029 41.1135 10.1364 41.1135C12.1025 41.1135 13.7191 39.4935 13.7191 37.5232C13.7191 35.5529 12.1025 33.9329 10.1364 33.9329Z" fill="#13102D"/>
<path d="M14.5711 43.6966C15.6634 43.6966 16.5372 44.5722 16.5372 45.6669C16.5372 46.7615 15.6634 47.6371 14.5711 47.6371C13.4788 47.6371 12.605 46.7615 12.605 45.6669C12.605 44.5722 13.4788 43.6966 14.5711 43.6966ZM14.5711 42.9084C13.0419 42.9084 11.8185 44.1563 11.8185 45.6669C11.8185 47.1774 13.0637 48.4253 14.5711 48.4253C16.0785 48.4253 17.3237 47.1774 17.3237 45.6669C17.3237 44.1563 16.0785 42.9084 14.5711 42.9084Z" fill="#13102D"/>
<path d="M11.2942 32.7288C11.3816 33.5388 10.4641 34.305 9.24074 34.4364C8.01738 34.5677 6.96879 33.9985 6.90325 33.1666C6.81587 32.3566 7.73339 31.5904 8.95675 31.459C10.1801 31.3277 11.2287 31.8969 11.2942 32.7288Z" fill="#13102D"/>
<path d="M14.2215 41.0695C14.5929 41.8358 13.9812 42.9085 12.8453 43.4777C11.7093 44.0469 10.4859 43.8717 10.1146 43.1055C9.74317 42.3393 10.3549 41.2666 11.4908 40.6974C12.6268 40.1282 13.8502 40.3033 14.2215 41.0695Z" fill="#13102D"/>
<path d="M19.2679 46.674C19.8796 47.1994 19.7267 48.3597 18.9621 49.2573C18.1756 50.1549 17.0615 50.4614 16.4498 49.936C15.8381 49.4105 15.9911 48.2503 16.7557 47.3527C17.5421 46.4551 18.6562 46.1486 19.2679 46.674Z" fill="#13102D"/>
<path d="M26.5207 34.1078V34.5238C26.5207 35.4651 27.3071 35.5089 27.3071 35.5089C27.1542 35.7278 26.5425 35.7497 26.5425 35.7497C26.5207 36.2314 26.1056 36.4065 26.1056 36.4065C26.1056 36.4065 25.6906 36.2314 25.6687 35.7497C25.6687 35.7497 25.057 35.7278 24.9041 35.5089C24.9041 35.5089 25.6906 35.4651 25.6906 34.5238V34.1516L26.4989 34.0859L26.5207 34.1078Z" fill="#13102D"/>
<path d="M18.5907 41.7044C18.5907 42.0109 18.3504 42.2298 18.0664 42.2298C17.7824 42.2298 17.5421 41.989 17.5421 41.7044C17.5421 41.4198 17.7824 41.179 18.0664 41.179C18.3504 41.179 18.5907 41.4198 18.5907 41.7044Z" fill="#13102D"/>
<path d="M33.4676 41.7044C33.4676 42.0109 33.7079 42.2298 33.9919 42.2298C34.2759 42.2298 34.5162 41.989 34.5162 41.7044C34.5162 41.4198 34.2759 41.179 33.9919 41.179C33.7079 41.179 33.4676 41.4198 33.4676 41.7044Z" fill="#13102D"/>
<path d="M7.51494 12.9822C6.75034 13.2668 6.00759 13.223 5.87651 12.8508C5.74544 12.4786 6.24789 11.9532 7.01249 11.6686C7.77709 11.384 8.51985 11.4278 8.65092 11.8C8.78199 12.1721 8.27954 12.6976 7.51494 12.9822Z" fill="#13102D"/>
<path d="M22.0205 53.3072C22.5011 52.7599 22.7195 51.8404 21.9768 50.3298C22.086 50.1766 22.1516 49.9796 22.1516 49.7825C22.1516 49.279 21.7583 48.8631 21.2559 48.8412C21.2559 48.8412 21.2559 48.8412 21.234 48.8412C20.8408 48.8412 20.4694 49.082 20.3384 49.4542C20.1199 50.1109 20.6005 50.702 21.234 50.702C21.4743 50.702 21.7146 50.6144 21.8894 50.4393C22.7632 52.7599 20.8627 52.935 20.8627 52.935C19.7704 52.935 18.1319 52.6723 16.2969 51.8842C16.2969 51.8842 16.0129 51.7966 15.8818 51.7309C15.292 51.4463 14.6803 51.118 14.0686 50.6582C14.0686 50.6582 13.9157 50.6144 13.8283 50.5706C13.3914 50.2642 12.9327 49.9358 12.4739 49.5636C12.4084 49.4979 12.3428 49.4541 12.2773 49.3885C11.9059 49.0601 11.5345 48.7098 11.1632 48.3377C10.8136 47.9874 10.4859 47.6371 10.1582 47.243C9.96164 47.0022 9.76503 46.7614 9.56841 46.4987C9.39365 46.2579 9.21888 46.039 9.04412 45.7763C8.97858 45.6668 8.8912 45.5793 8.82566 45.4698C8.73828 45.3603 8.67274 45.229 8.58536 45.1195C8.38874 44.813 8.17029 44.4846 7.97368 44.1344C7.66784 43.5871 7.34015 43.0179 7.05616 42.4268C6.92508 42.1641 6.79401 41.8795 6.66293 41.5949C6.42263 41.0476 6.18233 40.4565 5.94202 39.8435C5.76726 39.4057 5.61434 38.9459 5.41773 38.4643C5.33034 38.0921 5.22112 37.72 5.11189 37.3478C4.89343 36.5816 4.67497 35.7935 4.50021 34.9616C4.47836 34.8302 4.43467 34.6989 4.41282 34.5456C3.91037 32.1813 3.53899 29.5323 3.34238 26.5331C3.42977 24.4972 3.73561 22.6801 4.15067 21.082C4.19437 20.885 4.19437 20.5128 4.19437 20.5128C5.37404 16.1563 7.20908 13.6387 7.20908 13.6387C8.82566 13.4197 10.4859 12.4565 9.8961 10.7927C9.17519 8.73484 3.73561 12.1719 3.03654 15.5433L3.42977 15.3681C3.42977 15.3681 3.32054 15.5871 3.27685 15.6965C3.16762 15.9154 3.05839 16.1563 2.94916 16.4409C2.90547 16.5722 2.83993 16.7036 2.79624 16.8349C2.4904 17.623 2.14087 18.6082 1.85687 19.7903C1.85687 19.8779 1.81318 19.9436 1.79134 20.0312C1.52919 21.1477 1.28889 22.4174 1.13597 23.8404H1.07043C1.07043 23.8404 1.00489 24.0812 0.983046 24.1907C0.873817 25.2415 0.873817 27.6058 0.873817 27.6058C0.873817 27.6058 0.873817 28.591 1.07043 29.0945C0.939354 29.6856 1.00489 30.2986 1.07043 30.9334C1.11412 31.3932 1.17966 31.8529 1.26704 32.3345C1.31073 32.6191 1.35442 32.9037 1.41996 33.1883C1.4855 33.5605 1.55103 33.9108 1.63842 34.261C2.99285 40.6754 6.0731 45.9952 9.93979 49.5198C10.4859 50.0233 11.0539 50.4831 11.6219 50.899C11.8404 51.0523 12.037 51.2055 12.2554 51.3369C12.4302 51.4463 12.5831 51.5558 12.7579 51.6653C12.9545 51.7966 13.1511 51.9061 13.3477 52.0155C13.6973 52.2126 14.0468 52.4096 14.3963 52.5847C14.8769 52.8255 15.3357 53.0226 15.8381 53.1977C16.0566 53.2853 16.275 53.3509 16.4935 53.4166C17.7387 53.8107 18.9839 54.0515 20.251 54.1172C20.251 54.1172 20.3602 54.1172 20.535 54.0734C19.4864 54.4018 18.547 54.358 18.547 54.358C10.049 53.9858 2.66517 44.9882 0.50244 32.9037C-1.63844 20.9725 3.69192 11.5151 3.69192 11.5151H5.28665C5.76726 10.6832 7.6023 9.6543 9.10965 9.78566C10.333 9.89512 11.1195 10.6394 10.8355 11.8435C10.5296 13.2008 9.02227 13.4197 8.01737 13.8357L8.6072 15.2149C8.6072 15.2149 9.6121 18.1484 12.6487 18.1265C15.6852 18.0828 18.2412 16.6817 20.1417 12.9819C22.0423 9.28214 20.0107 4.42209 17.695 4.20317C15.3794 4.00614 14.3745 4.57534 13.9594 5.69183C13.6317 6.58941 14.3526 7.61834 15.0298 8.12186C14.724 7.83726 14.5711 7.42131 14.6366 6.96158C14.724 6.43617 15.1828 6.02022 15.7071 5.95454C16.0347 5.91075 16.3406 6.02022 16.5809 6.19535C16.6027 6.19535 16.6464 6.23914 16.6683 6.26103C16.712 6.30481 16.9086 6.54563 17.0396 6.8959C17.2363 7.4432 17.28 8.25321 16.1877 8.95376C16.1877 8.95376 14.156 9.6543 13.1948 7.77158C13.1948 7.77158 12.2773 6.58941 13.1948 4.75047C13.6754 3.76533 14.6148 3.08667 15.6852 2.93343C16.8649 2.75829 18.5688 2.82397 20.1636 4.1156C20.4694 4.35642 20.7097 4.64101 20.9063 4.96939C21.7802 6.41427 23.8337 10.9022 19.8577 16.3095C19.8577 16.3095 17.6513 19.7028 12.5176 19.9436C12.5176 19.9436 8.17029 19.7028 7.23092 16.7692C7.23092 16.7692 5.15558 19.7466 4.5439 24.9569C5.98572 47.6371 18.547 51.1398 20.2073 51.4244C20.7534 51.512 20.819 51.512 21.103 51.512C21.1685 51.512 21.2559 51.4682 21.2996 51.4244C21.4743 51.1836 21.518 50.9428 21.518 50.9428C17.9135 51.0085 20.1854 47.2212 20.1854 47.2212L23.222 48.7317C23.6807 51.0961 23.0254 52.4534 22.086 53.2415" fill="#13102D"/>
<path d="M43.0142 23.5559C44.9366 23.5559 46.4877 25.1102 46.4877 27.0367C46.4877 28.9632 44.9366 30.5176 43.0142 30.5176C41.0918 30.5176 39.5407 28.9632 39.5407 27.0367C39.5407 25.1102 41.0918 23.5559 43.0142 23.5559ZM43.0142 22.1548C40.3272 22.1548 38.1645 24.344 38.1645 27.0148C38.1645 29.6857 40.349 31.8749 43.0142 31.8749C45.6794 31.8749 47.864 29.6857 47.864 27.0148C47.864 24.344 45.6794 22.1548 43.0142 22.1548Z" fill="#13102D"/>
<path d="M44.5871 12.9822C45.3517 13.2668 46.0945 13.223 46.2256 12.8508C46.3566 12.4786 45.8542 11.9532 45.0896 11.6686C44.325 11.384 43.5822 11.4278 43.4512 11.8C43.3201 12.1721 43.8225 12.6976 44.5871 12.9822Z" fill="#13102D"/>
<path d="M30.1034 53.3072C29.6228 52.7599 29.4043 51.8405 30.1471 50.3299C30.0379 50.1767 29.9723 49.9796 29.9723 49.7826C29.9723 49.2791 30.3655 48.8631 30.868 48.8413C30.868 48.8413 30.868 48.8413 30.8898 48.8413C31.2831 48.8413 31.6544 49.0821 31.7855 49.4542C32.004 50.111 31.5234 50.7021 30.8898 50.7021C30.6495 50.7021 30.4092 50.6145 30.2345 50.4394C29.3606 52.7599 31.2612 52.9351 31.2612 52.9351C32.3535 52.9351 33.9919 52.6724 35.827 51.8843C35.827 51.8843 36.111 51.7967 36.242 51.731C36.8319 51.4464 37.4436 51.118 38.0552 50.6583C38.0552 50.6583 38.2082 50.6145 38.2955 50.5707C38.7325 50.2642 39.1912 49.9359 39.65 49.5637C39.7155 49.498 39.7811 49.4542 39.8466 49.3886C40.218 49.0602 40.5893 48.7099 40.9607 48.3377C41.3103 47.9875 41.6379 47.6372 41.9656 47.2431C42.1622 47.0023 42.3588 46.7615 42.5555 46.4988C42.7302 46.258 42.905 46.0391 43.0798 45.7764C43.1453 45.6669 43.2327 45.5793 43.2982 45.4699C43.3856 45.3604 43.4511 45.2291 43.5385 45.1196C43.7351 44.8131 43.9536 44.4847 44.1502 44.1345C44.456 43.5872 44.7837 43.018 45.0677 42.4269C45.1988 42.1642 45.3299 41.8796 45.4609 41.595C45.7012 41.0477 45.9415 40.4566 46.1818 39.8436C46.3566 39.4058 46.5095 38.946 46.5969 38.4644C46.7935 38.0922 46.9028 37.7201 47.012 37.3479C47.2304 36.5817 47.4489 35.7936 47.6237 34.9617C47.6455 34.8303 47.6892 34.699 47.7111 34.5457C48.2135 32.1814 48.5849 29.5324 48.7815 26.5332C48.6941 24.4972 48.3883 22.6802 47.9732 21.0821C47.9295 20.885 47.8203 20.5129 47.8203 20.5129V20.5785C46.5751 16.1563 44.609 13.595 44.609 13.595C42.8831 13.376 41.1136 12.3909 41.7472 10.7052C42.5118 8.62546 48.3227 12.1063 49.0655 15.5434L48.6504 15.3682C48.6504 15.3682 48.7596 15.5871 48.8252 15.6966C48.9344 15.9155 49.0436 16.1563 49.1747 16.4409C49.2402 16.5723 49.2839 16.7036 49.3495 16.835C49.6772 17.645 50.0485 18.652 50.3544 19.8342C50.3762 19.9218 50.3981 20.0094 50.4199 20.075C50.7039 21.2134 50.9442 22.4832 51.0971 23.928V23.8186C51.0971 23.8186 51.0971 24.0594 51.0971 24.1689C51.2064 25.2197 51.0971 27.584 51.0971 27.584C51.0971 27.584 51.1845 28.5692 51.0971 29.0727C51.119 29.6638 51.0753 30.2767 50.9879 30.9116C50.9442 31.3714 50.8787 31.8311 50.7913 32.3127C50.7476 32.5973 50.7039 32.8819 50.6384 33.1665C50.5728 33.5387 50.5073 33.8889 50.4199 34.2392C49.0655 40.6536 45.9852 45.9734 42.1185 49.498C41.5724 50.0015 41.0044 50.4613 40.4364 50.8772C40.218 51.0305 40.0214 51.1837 39.8029 51.3151C39.6281 51.4245 39.4752 51.534 39.3004 51.6434C39.1038 51.7748 38.9072 51.8843 38.7106 51.9937C38.3611 52.1907 38.0115 52.3878 37.662 52.5629C37.1814 52.8037 36.7227 53.0008 36.2202 53.1759C36.0017 53.2635 35.7833 53.3291 35.5648 53.3948C34.3196 53.7889 33.0744 54.0297 31.8074 54.0954C31.8074 54.0954 31.6981 54.0954 31.5234 54.0516C32.572 54.38 33.5113 54.3362 33.5113 54.3362C42.0093 53.964 49.3932 44.9664 51.5559 32.8819C53.7186 20.9069 48.3883 11.4714 48.3883 11.4714H46.7935C46.3129 10.6395 44.4779 9.6106 42.9705 9.74196C41.7472 9.85142 40.9607 10.5957 41.2447 11.7998C41.5506 13.1571 43.0579 13.376 44.0628 13.792L43.473 15.1712C43.473 15.1712 42.4681 18.1047 39.4315 18.0828C36.395 18.0391 33.839 16.638 31.9384 12.9382C30.0379 9.23844 32.0695 4.37839 34.3852 4.15947C36.7008 3.96244 37.7057 4.53164 38.1208 5.64813C38.4485 6.54571 37.7276 7.57464 37.0503 8.07816C37.3562 7.79356 37.5091 7.37761 37.4436 6.91787C37.3562 6.39246 36.8974 5.97651 36.3731 5.91084C36.0454 5.86705 35.7396 5.97651 35.4993 6.15165C35.4774 6.15165 35.4338 6.19543 35.4119 6.21733C35.3682 6.26111 35.1716 6.50192 35.0405 6.8522C34.8439 7.3995 34.8002 8.20951 35.8925 8.91006C35.8925 8.91006 37.9242 9.6106 38.8854 7.72788C38.8854 7.72788 39.8029 6.54571 38.8854 4.70677C38.4048 3.72163 37.4654 3.04297 36.395 2.88973C35.2153 2.71459 33.5113 2.78027 31.9166 4.0719C31.6108 4.31271 31.3705 4.59731 31.1738 4.92569C30.3 6.37057 28.2465 10.8585 32.2224 16.2658C32.2224 16.2658 34.4289 19.6591 39.5626 19.8999C39.5626 19.8999 43.9099 19.6591 44.8493 16.7255C44.8493 16.7255 46.9246 19.7029 47.5363 24.9132C46.0945 47.5934 33.5332 51.0961 31.8729 51.3807C31.3268 51.4683 31.2612 51.4683 30.9772 51.4683C30.9117 51.4683 30.8243 51.4245 30.7806 51.3807C30.6059 51.1399 30.5622 50.8991 30.5622 50.8991C34.1667 50.9648 31.8947 47.1775 31.8947 47.1775L28.8582 48.688C28.3994 51.0524 29.0548 52.4097 29.9942 53.1978" fill="#13102D"/>
<path d="M41.9219 34.9618C43.3419 34.9618 44.4779 36.1221 44.4779 37.5232C44.4779 38.9243 43.3201 40.0845 41.9219 40.0845C40.5238 40.0845 39.366 38.9243 39.366 37.5232C39.366 36.1221 40.5238 34.9618 41.9219 34.9618ZM41.9219 33.9329C39.934 33.9329 38.3392 35.5529 38.3392 37.5232C38.3392 39.4935 39.9558 41.1135 41.9219 41.1135C43.888 41.1135 45.5046 39.4935 45.5046 37.5232C45.5046 35.5529 43.888 33.9329 41.9219 33.9329Z" fill="#13102D"/>
<path d="M37.5091 43.6966C38.6014 43.6966 39.4752 44.5722 39.4752 45.6669C39.4752 46.7615 38.6014 47.6371 37.5091 47.6371C36.4168 47.6371 35.543 46.7615 35.543 45.6669C35.543 44.5722 36.4168 43.6966 37.5091 43.6966ZM37.5091 42.9084C35.9799 42.9084 34.7565 44.1563 34.7565 45.6669C34.7565 47.1774 36.0017 48.4253 37.5091 48.4253C39.0164 48.4253 40.2617 47.1774 40.2617 45.6669C40.2617 44.1563 39.0164 42.9084 37.5091 42.9084Z" fill="#13102D"/>
<path d="M39.8029 21.5638C40.0432 22.3519 41.1792 22.7021 42.337 22.3519C43.4948 22.0016 44.2594 21.0821 44.041 20.294C43.8007 19.5059 42.6647 19.1556 41.5069 19.5059C40.349 19.8562 39.5844 20.7756 39.8029 21.5638Z" fill="#13102D"/>
<path d="M9.04412 23.5559C10.9665 23.5559 12.5176 25.1102 12.5176 27.0367C12.5176 28.9632 10.9665 30.5176 9.04412 30.5176C7.12169 30.5176 5.57065 28.9632 5.57065 27.0367C5.57065 25.1102 7.12169 23.5559 9.04412 23.5559ZM9.04412 22.1548C6.35709 22.1548 4.19437 24.344 4.19437 27.0148C4.19437 29.6857 6.37894 31.8749 9.04412 31.8749C11.7093 31.8749 13.8939 29.6857 13.8939 27.0148C13.8939 24.344 11.7093 22.1548 9.04412 22.1548Z" fill="#13102D"/>
<path d="M12.2336 21.5638C11.9933 22.3519 10.8573 22.7021 9.69951 22.3519C8.54169 22.0016 7.77709 21.0821 7.99554 20.294C8.23585 19.5059 9.37183 19.1556 10.5296 19.5059C11.6875 19.8562 12.4521 20.7756 12.2336 21.5638Z" fill="#13102D"/>
<path d="M40.7641 32.7288C40.6767 33.5388 41.5943 34.305 42.8176 34.4364C44.041 34.5677 45.0896 33.9985 45.1551 33.1666C45.2425 32.3566 44.325 31.5904 43.1016 31.459C41.8783 31.3277 40.8297 31.8969 40.7641 32.7288Z" fill="#13102D"/>
<path d="M37.8368 41.0695C37.4654 41.8358 38.0771 42.9085 39.2131 43.4777C40.349 44.0469 41.5724 43.8717 41.9438 43.1055C42.3152 42.3393 41.7035 41.2666 40.5675 40.6974C39.4315 40.1282 38.2082 40.3033 37.8368 41.0695Z" fill="#13102D"/>
<path d="M32.7904 46.674C32.1787 47.1994 32.3317 48.3597 33.0963 49.2573C33.8827 50.1549 34.9968 50.4614 35.6085 49.936C36.2202 49.4105 36.0673 48.2503 35.3027 47.3527C34.5162 46.4551 33.4021 46.1486 32.7904 46.674Z" fill="#13102D"/>
<path d="M24.4891 43.828C24.1614 44.2878 22.9162 44.3315 22.9162 44.3315C22.8725 45.2948 22.0423 45.667 22.0423 45.667C22.0423 45.667 21.2122 45.2948 21.1685 44.3315C21.1685 44.3315 19.9233 44.2878 19.5956 43.828C19.5956 43.828 21.2122 43.7405 21.2122 41.8577V22.4613L21.4088 22.3738V21.717L21.103 21.8484C20.8408 20.4035 19.5082 20.3378 19.5082 20.3378C19.8359 19.8781 21.103 19.8124 21.103 19.8124C21.1467 18.8272 21.9987 18.4551 21.9987 18.4551C21.9987 18.4551 22.8288 18.8272 22.8943 19.8124C22.8943 19.8124 24.1614 19.8562 24.4891 20.3378C24.4891 20.3378 22.8506 20.4254 22.8506 22.3519V41.8577C22.8506 42.2737 22.9162 42.5802 23.0472 42.8429C23.4623 43.7842 24.4672 43.828 24.4672 43.828" fill="#13102D"/>
<path d="M19.5956 22.3301V39.997L19.0276 39.7562L18.5688 39.5373V22.3301H19.5956Z" fill="#13102D"/>
<path d="M19.3553 21.1477C19.3553 21.4322 19.2024 21.6512 18.9839 21.8044C18.8747 21.8701 18.7218 21.9139 18.5907 21.9139C18.1756 21.9139 17.8261 21.5636 17.8261 21.1477C17.8261 21.082 17.8261 21.0382 17.8261 20.9944C17.848 20.8849 17.8916 20.7974 17.9572 20.7098C18.0883 20.5128 18.3067 20.4033 18.5689 20.4033C18.9839 20.4033 19.3335 20.7536 19.3335 21.1695" fill="#13102D"/>
<path d="M22.4355 42.4049C22.4355 42.4049 23.1783 43.2368 24.074 43.1055C24.9696 42.9741 26.1712 42.2079 25.1007 40.5879C24.0303 38.9679 21.8239 39.3838 21.8239 39.3838C21.8239 39.3838 18.1975 39.0773 17.3455 40.8068C17.1489 41.179 17.1489 41.6387 17.3455 41.989C17.5203 42.2955 17.8261 42.5144 18.3504 42.1422C18.3504 42.1422 18.1756 42.1422 18.0227 41.9671C17.7606 41.6825 17.8261 41.2446 18.1538 41.0257C18.7873 40.6317 20.1199 39.9311 21.3869 40.1719C23.1564 40.5222 23.1783 40.2814 24.1395 41.7263C25.1007 43.1712 21.8676 42.8866 22.6322 41.2009L22.3918 42.4268L22.4355 42.4049Z" fill="#13102D"/>
<path d="M29.6228 42.4049C29.6228 42.4049 28.88 43.2368 27.9844 43.1055C27.0887 42.9741 25.8872 42.2079 26.9576 40.5879C28.0281 38.9679 30.2345 39.3838 30.2345 39.3838C30.2345 39.3838 33.8609 39.0773 34.7128 40.8068C34.9095 41.179 34.9095 41.6387 34.7128 41.989C34.5381 42.2955 34.2322 42.5144 33.7079 42.1422C33.7079 42.1422 33.8827 42.1422 34.0356 41.9671C34.2978 41.6825 34.2322 41.2446 33.9046 41.0257C33.271 40.6317 31.9384 39.9311 30.6714 40.1719C28.9019 40.5222 28.88 40.2814 27.9188 41.7263C26.9576 43.1712 30.1908 42.8866 29.4262 41.2009L29.6665 42.4268L29.6228 42.4049Z" fill="#13102D"/>
<path d="M18.5907 21.914C18.1756 21.914 17.8261 21.5638 17.8261 21.1478C17.8261 21.104 17.8261 21.0383 17.8261 20.9946C17.8916 20.8413 17.9572 20.7319 17.9572 20.71L18.5689 21.4324C18.6999 21.5856 18.831 21.6951 18.9621 21.8046C18.8529 21.8702 18.6999 21.914 18.5689 21.914" fill="#13102D"/>
<path d="M19.5956 22.3301V22.7679C19.115 22.7679 18.831 22.6804 18.5688 22.549V22.3301H19.5956Z" fill="#13102D"/>
<path d="M18.3504 31.6341C18.3504 31.6341 18.3723 31.6341 18.3941 31.6341L22.7414 32.1158C22.7414 32.1158 22.7851 32.1158 22.8069 32.1158C23.1783 32.072 26.6955 31.6779 27.0887 32.9696C27.0887 33.0133 27.0887 33.0571 27.0887 33.1009C27.045 33.2323 26.8702 33.4512 26.2586 33.4293C25.6906 33.4074 25.5377 33.0133 25.494 32.7725C25.494 32.6412 25.3629 32.5536 25.2318 32.5536C25.0789 32.5536 24.9478 32.7069 24.9697 32.8382C25.0352 33.1885 25.21 33.8015 25.6469 33.9547C26.2804 34.1517 27.6348 34.3269 27.6348 33.1666C27.6348 32.0063 26.4333 31.6122 26.4333 31.6122L25.7561 31.4152C25.7561 31.4152 25.7124 31.4152 25.6906 31.4152C25.1881 31.4152 19.7485 31.3058 18.1975 30.6052C16.5809 29.8828 18.0446 29.0071 20.3384 29.7076C22.6322 30.4082 24.5764 31.1744 26.1275 29.8828L25.6469 29.5106C25.4066 29.7514 25.0134 29.8828 24.7731 29.9703C24.7075 29.9703 24.6857 29.9922 24.6638 30.0141C24.5983 30.0141 24.5764 30.0141 24.4454 30.036C24.358 30.036 24.2706 30.036 24.1832 30.036C24.1832 30.036 24.1614 30.036 24.1395 30.036C24.1395 30.036 24.0958 30.036 24.074 30.036C24.0303 30.036 23.9866 30.036 23.9648 30.036C22.5011 29.7952 19.4209 28.8757 19.0058 28.7444C18.9621 28.7444 18.9402 28.7444 18.8966 28.7444C18.547 28.7663 16.6683 28.9852 16.5591 30.2987C16.428 31.6779 18.2193 31.6779 18.4378 31.6779" fill="#13102D"/>
<path d="M21.4307 21.6512V22.3299L21.1904 22.4175L20.9282 22.505C20.3602 22.6583 19.9452 22.7458 19.5956 22.7458V22.3299H18.5689V22.5269C18.3286 22.3956 18.1538 22.2423 17.9354 22.0891C17.564 21.8264 17.6732 21.301 17.8043 20.9507C17.8043 20.9945 17.8043 21.0601 17.8043 21.1039C17.8043 21.5199 18.1538 21.8702 18.5907 21.8702C18.7436 21.8702 18.8747 21.8264 19.0058 21.7607C19.9015 22.3518 20.9282 21.8702 20.9282 21.8702L21.1467 21.7826L21.4525 21.6512H21.4307Z" fill="#13102D"/>
<path d="M27.7222 43.828C28.0499 44.2878 29.2951 44.3315 29.2951 44.3315C29.3388 45.2948 30.169 45.667 30.169 45.667C30.169 45.667 30.9991 45.2948 31.0428 44.3315C31.0428 44.3315 32.288 44.2878 32.6157 43.828C32.6157 43.828 30.9991 43.7405 30.9991 41.8577V22.4613L30.8025 22.3738V21.717L31.1083 21.8484C31.3705 20.4035 32.7031 20.3378 32.7031 20.3378C32.3754 19.8781 31.1083 19.8124 31.1083 19.8124C31.0646 18.8272 30.2126 18.4551 30.2126 18.4551C30.2126 18.4551 29.3825 18.8272 29.317 19.8124C29.317 19.8124 28.0499 19.8562 27.7222 20.3378C27.7222 20.3378 29.3607 20.4254 29.3607 22.3519V41.8577C29.3607 42.2737 29.2951 42.5802 29.164 42.8429C28.749 43.7842 27.7441 43.828 27.7441 43.828" fill="#13102D"/>
<path d="M32.4191 22.3301V39.997L33.0307 39.7562L33.424 39.5373V22.3301H32.4191Z" fill="#13102D"/>
<path d="M32.703 21.1477C32.703 21.4322 32.856 21.6512 33.0744 21.8044C33.1836 21.8701 33.3366 21.9139 33.4676 21.9139C33.8827 21.9139 34.2322 21.5636 34.2322 21.1477C34.2322 21.082 34.2322 21.0382 34.2322 20.9944C34.2104 20.8849 34.1667 20.7974 34.1012 20.7098C33.9701 20.5128 33.7516 20.4033 33.4895 20.4033C33.0744 20.4033 32.7249 20.7536 32.7249 21.1695" fill="#13102D"/>
<path d="M33.4677 21.914C33.8827 21.914 34.2323 21.5638 34.2323 21.1478C34.2323 21.104 34.2323 21.0383 34.2323 20.9946C34.1667 20.8413 34.1012 20.7319 34.1012 20.71L33.4895 21.4324C33.3584 21.5856 33.2274 21.6951 33.0963 21.8046C33.2055 21.8702 33.3584 21.914 33.4895 21.914" fill="#13102D"/>
<path d="M32.4191 22.3301V22.7679C32.9652 22.7679 33.2492 22.6804 33.4458 22.549V22.3301H32.4191Z" fill="#13102D"/>
<path d="M33.7298 31.6341C33.7298 31.6341 33.7079 31.6341 33.6861 31.6341L29.3388 32.1158C29.3388 32.1158 29.2951 32.1158 29.2732 32.1158C28.9019 32.072 25.3847 31.6779 24.9915 32.9696C24.9915 33.0133 24.9915 33.0571 24.9915 33.1009C25.0352 33.2323 25.2099 33.4512 25.8216 33.4293C26.3896 33.4074 26.5425 33.0133 26.5862 32.7725C26.5862 32.6412 26.7173 32.5536 26.8484 32.5536C27.0013 32.5536 27.1324 32.7069 27.1105 32.8382C27.045 33.1885 26.8702 33.8015 26.4333 33.9547C25.7998 34.1517 24.4453 34.3269 24.4453 33.1666C24.4453 32.0063 25.6469 31.6122 25.6469 31.6122L26.3241 31.4152C26.3241 31.4152 26.3678 31.4152 26.3896 31.4152C26.8921 31.4152 32.3316 31.3058 33.8827 30.6052C35.4993 29.8828 34.0356 29.0071 31.7418 29.7076C29.448 30.4082 27.5037 31.1744 25.9527 29.8828L26.4333 29.5106C26.6736 29.7514 27.0668 29.8828 27.3071 29.9703C27.3727 29.9703 27.3945 29.9922 27.4164 30.0141C27.4819 30.0141 27.5037 30.0141 27.6348 30.036C27.7222 30.036 27.8096 30.036 27.897 30.036C27.897 30.036 27.9188 30.036 27.9407 30.036C27.9407 30.036 27.9843 30.036 28.0062 30.036C28.0499 30.036 28.0936 30.036 28.1154 30.036C29.5791 29.7952 32.6593 28.8757 33.0744 28.7444C33.1181 28.7444 33.1399 28.7444 33.1836 28.7444C33.5332 28.7663 35.4119 28.9852 35.5211 30.2987C35.6522 31.6779 33.8608 31.6779 33.6424 31.6779" fill="#13102D"/>
<path d="M30.584 21.6512V22.3299L30.868 22.4175L31.152 22.505C31.7637 22.6583 32.2443 22.7458 32.6157 22.7458V22.3299H33.424V22.5269C33.6643 22.3956 33.839 22.2423 34.0575 22.0891C34.4289 21.8264 34.3196 21.301 34.1885 20.9507C34.1885 20.9945 34.1885 21.0601 34.1885 21.1039C34.1885 21.5199 33.839 21.8702 33.4021 21.8702C33.2492 21.8702 33.1181 21.8264 32.987 21.7607C32.0914 22.3518 31.0646 21.8702 31.0646 21.8702L30.8462 21.7826L30.5403 21.6512H30.584Z" fill="#13102D"/>
<path d="M26.062 48.097C19.3116 48.097 13.8065 40.6537 13.8065 31.5247C13.8065 22.3957 19.3116 14.9524 26.062 14.9524C32.8123 14.9524 38.3174 22.3957 38.3174 31.5247C38.3174 40.6537 32.8123 48.097 26.062 48.097ZM26.062 15.434C19.5738 15.434 14.2871 22.6584 14.2871 31.5247C14.2871 40.391 19.5738 47.6154 26.062 47.6154C32.5501 47.6154 37.8368 40.391 37.8368 31.5247C37.8368 22.6584 32.5501 15.434 26.062 15.434Z" fill="#13102D"/>
<path d="M26.0619 47.2868C19.6611 47.2868 14.44 40.2157 14.44 31.5245C14.44 22.8334 19.6611 15.7622 26.0619 15.7622C32.4627 15.7622 37.6838 22.8334 37.6838 31.5245C37.6838 40.2157 32.4627 47.2868 26.0619 47.2868ZM26.0619 16.003C19.7704 16.003 14.6803 22.9647 14.6803 31.5245C14.6803 40.0843 19.7922 47.046 26.0619 47.046C32.3316 47.046 37.4435 40.0843 37.4435 31.5245C37.4435 22.9647 32.3316 16.003 26.0619 16.003Z" fill="#13102D"/>
<path d="M27.5256 12.9384C27.5256 13.7703 26.8484 14.427 26.0401 14.427C25.2318 14.427 24.5546 13.7484 24.5546 12.9384C24.5546 12.1284 25.2318 11.4497 26.0401 11.4497C26.8484 11.4497 27.5256 12.1284 27.5256 12.9384Z" fill="#13102D"/>
<path d="M20.535 54.0955C20.9064 54.0079 21.5617 53.8109 22.0205 53.3074C21.5617 53.6795 21.0374 53.9422 20.535 54.0955Z" fill="#13102D"/>
<path d="M30.0379 53.3074C30.4748 53.8109 31.1302 54.0079 31.5234 54.0955C31.0209 53.9422 30.4966 53.6795 30.0379 53.3074Z" fill="#13102D"/>
<path d="M0.830147 20.6006V20.3816C0.76461 18.4989 2.00982 16.4411 3.18948 15.6311C3.91039 15.1275 4.56576 15.1275 4.98083 15.6311C5.48328 16.2221 5.6362 16.7257 5.50513 17.1416C5.35221 17.6451 4.76238 17.9954 3.67009 18.2581C2.14089 18.6303 1.92243 19.7906 1.90059 19.8343V19.8781L1.83505 19.9219L0.830147 20.6225V20.6006ZM4.19439 15.4778C3.8667 15.4778 3.53902 15.6748 3.32056 15.8281C2.25012 16.5724 1.11414 18.4114 1.07045 20.1408L1.68213 19.703C1.74767 19.4403 2.0972 18.3676 3.60455 17.9954C4.58761 17.7546 5.13375 17.4481 5.26483 17.0322C5.37406 16.7038 5.22114 16.2659 4.78422 15.7624C4.60946 15.5654 4.41284 15.4778 4.21623 15.4778" fill="#13102D"/>
<path d="M0.349521 25.0226L0.305829 24.8037C-0.0655482 23.0742 0.720898 21.0164 1.61657 19.9656C2.29379 19.1775 3.0147 18.9585 3.56084 19.3745C4.04145 19.7685 4.3036 20.1407 4.34729 20.491C4.36913 20.7318 4.3036 20.9507 4.17252 21.1477C3.93222 21.498 3.47346 21.8264 2.7307 22.1548C2.09718 22.4394 1.66026 22.8772 1.41996 23.4026C1.26704 23.7529 1.26704 24.0156 1.26704 24.0156V24.0594L0.349521 25.0008V25.0226ZM2.94916 19.3964C2.46856 19.3964 2.0098 19.8561 1.79134 20.1188C0.961201 21.0821 0.262138 22.9429 0.502441 24.541L1.02674 23.9937C1.02674 23.9937 1.07043 23.6434 1.2015 23.337C1.37627 22.921 1.76949 22.3518 2.64332 21.9578C3.34238 21.6294 3.7793 21.3448 3.97591 21.0383C4.08514 20.885 4.12883 20.7099 4.10698 20.5348C4.06329 20.2283 3.82299 19.9218 3.40792 19.5715C3.255 19.4621 3.10208 19.3964 2.94916 19.3964Z" fill="#13102D"/>
<path d="M0.939363 28.0657L0.85198 27.8687C0.502448 27.1463 0.39322 26.2049 0.524294 25.2416C0.633523 24.3441 0.961208 23.556 1.37628 23.14C1.70396 22.8116 2.07534 22.7241 2.42487 22.8992C2.99286 23.1619 3.27685 23.4684 3.32055 23.8405C3.36424 24.2784 3.03655 24.7381 2.31564 25.3292C1.31074 26.1173 1.50735 27.0368 1.50735 27.0587V27.1025L0.939363 28.0657ZM2.05349 23.0524C1.87873 23.0524 1.70396 23.14 1.5292 23.3151C0.786442 24.0595 0.415065 26.0954 0.961208 27.5403L1.2452 27.0587C1.20151 26.8398 1.13597 25.9203 2.14088 25.1322C2.79625 24.6068 3.10209 24.1908 3.0584 23.8624C3.03655 23.5997 2.7744 23.3589 2.2938 23.1181C2.20641 23.0743 2.11903 23.0524 2.03165 23.0524" fill="#13102D"/>
<path d="M1.35444 31.9187L1.24521 31.7217C0.458764 30.1892 0.720912 27.9781 1.48551 27.2338C1.76951 26.9492 2.11904 26.9054 2.44672 27.0805C3.01471 27.387 3.29871 27.7154 3.3424 28.0657C3.38609 28.4597 3.1021 28.8757 2.46857 29.3792C1.59474 30.0579 1.83504 30.9335 1.83504 30.9773V31.0211L1.35444 31.9406V31.9187ZM2.0535 27.2119C1.92243 27.2119 1.79135 27.2776 1.66028 27.4089C1.00491 28.0438 0.786449 29.9922 1.37628 31.3933L1.59474 30.9773C1.55105 30.7584 1.41998 29.8827 2.31565 29.1822C2.86179 28.7443 3.12394 28.3941 3.08025 28.0876C3.0584 27.8249 2.79626 27.5403 2.31565 27.2776C2.22827 27.2338 2.14088 27.2119 2.03166 27.2119" fill="#13102D"/>
<path d="M2.22828 35.5529L2.0972 35.3777C1.04861 34.0204 0.895689 31.7874 1.50737 30.9336C1.72583 30.6053 2.05351 30.4958 2.42489 30.6053C3.03657 30.8023 3.3861 31.065 3.47348 31.4153C3.58271 31.8093 3.3861 32.2691 2.8618 32.8601C2.11905 33.692 2.51227 34.5021 2.53412 34.5458V34.5896L2.25012 35.5748L2.22828 35.5529ZM2.1409 30.7804C1.96613 30.7804 1.81321 30.868 1.70398 31.0431C1.17968 31.7874 1.31076 33.7358 2.16274 35.0056L2.29382 34.5677C2.20643 34.3488 1.92244 33.5169 2.66519 32.6631C3.12395 32.1377 3.29872 31.7436 3.23318 31.459C3.16764 31.1963 2.8618 30.9774 2.33751 30.8242C2.27197 30.8242 2.20643 30.8023 2.1409 30.8023" fill="#13102D"/>
<path d="M3.29871 38.8366L3.16764 38.6614C2.11904 37.3041 1.96612 35.0711 2.5778 34.2173C2.79626 33.8889 3.12395 33.7795 3.49532 33.8889C4.107 34.086 4.45654 34.3487 4.54392 34.699C4.65315 35.093 4.45654 35.5527 3.93224 36.1438C3.18948 36.9757 3.58271 37.7857 3.60455 37.8295V37.8733L3.32056 38.8585L3.29871 38.8366ZM3.21133 34.0641C3.03656 34.0641 2.88364 34.1517 2.77442 34.3268C2.25012 35.0711 2.38119 37.0195 3.23318 38.2893L3.36425 37.8514C3.27687 37.6325 2.99287 36.8006 3.73563 35.9468C4.19439 35.4214 4.36915 35.0273 4.30362 34.7427C4.23808 34.48 3.93224 34.2611 3.40794 34.1079C3.3424 34.1079 3.27687 34.086 3.21133 34.086" fill="#13102D"/>
<path d="M4.54392 41.7265L4.391 41.5513C3.32056 40.2159 3.1021 38.0924 3.67009 37.2824C3.88855 36.9759 4.19439 36.8883 4.54392 36.9978C5.1556 37.2167 5.50513 37.4794 5.59251 37.8297C5.6799 38.2019 5.50513 38.6178 5.04637 39.1432C4.36915 39.9094 4.78422 40.7194 4.80607 40.7194V40.7632L4.56576 41.7046L4.54392 41.7265ZM4.25992 37.1948C4.107 37.1948 3.97593 37.2605 3.8667 37.4137C3.3861 38.0924 3.56086 39.9532 4.43469 41.2011L4.54392 40.807C4.45654 40.61 4.1507 39.7781 4.84976 39.0119C5.26483 38.5521 5.41775 38.18 5.35221 37.9173C5.28667 37.6545 4.98083 37.4356 4.45654 37.2386C4.391 37.2167 4.32546 37.1948 4.25992 37.1948Z" fill="#13102D"/>
<path d="M5.98572 44.4848L5.8328 44.3096C4.76236 42.9742 4.5439 40.8507 5.11189 40.0407C5.33035 39.7342 5.63619 39.6466 5.98572 39.7561C6.5974 39.975 6.94693 40.2377 7.03432 40.588C7.1217 40.9602 6.94693 41.3761 6.48817 41.9015C5.81096 42.6677 6.22602 43.434 6.24787 43.4777V43.5215L5.98572 44.4629V44.4848ZM5.70173 39.9531C5.54881 39.9531 5.41773 40.0188 5.3085 40.172C4.8279 40.8507 5.00266 42.7115 5.87649 43.9594L5.98572 43.5653C5.89834 43.3683 5.5925 42.5364 6.29156 41.7702C6.70663 41.3104 6.85955 40.9383 6.79401 40.6756C6.72848 40.4129 6.42264 40.1939 5.89834 39.9969C5.8328 39.975 5.76726 39.9531 5.70173 39.9531Z" fill="#13102D"/>
<path d="M7.38385 46.893L7.23093 46.7178C6.18234 45.4043 5.92019 43.3683 6.46633 42.624C6.66294 42.3394 6.96878 42.2518 7.29647 42.3832C7.90815 42.6021 8.23583 42.8867 8.32322 43.2151C8.4106 43.5654 8.25768 43.9594 7.82077 44.4629C7.18724 45.1635 7.60231 45.9297 7.60231 45.9516V45.9954L7.38385 46.9149V46.893ZM7.01247 42.5583C6.8814 42.5583 6.75032 42.624 6.66294 42.7554C6.20418 43.3902 6.42264 45.1635 7.27462 46.3676L7.362 46.0173C7.27462 45.8203 6.96878 45.0321 7.62415 44.2878C7.99553 43.8719 8.14845 43.5216 8.08291 43.2589C8.01738 42.9962 7.73338 42.7773 7.20908 42.5802C7.14355 42.5583 7.07801 42.5364 7.01247 42.5364" fill="#13102D"/>
<path d="M9.63394 49.323L9.43733 49.1917C8.06105 48.2284 7.27461 46.3238 7.58045 45.4481C7.68968 45.1197 7.95182 44.9665 8.3232 44.9884C8.95673 45.0322 9.34995 45.2073 9.54656 45.5138C9.72133 45.8203 9.67764 46.2581 9.39364 46.8492C8.97857 47.703 9.56841 48.316 9.59025 48.3379L9.63394 48.3817V49.323ZM8.30136 45.2292C8.0829 45.2292 7.92998 45.3387 7.86444 45.5357C7.60229 46.28 8.27951 47.9219 9.43733 48.8414V48.4692C9.28441 48.2941 8.80381 47.6154 9.21888 46.7398C9.45918 46.2362 9.52472 45.8641 9.39364 45.6233C9.26257 45.3824 8.91304 45.2511 8.36689 45.2073C8.36689 45.2073 8.3232 45.2073 8.30136 45.2073" fill="#13102D"/>
<path d="M11.8622 51.1619L11.6438 51.0743C10.1146 50.3957 8.95675 48.6881 9.10967 47.7686C9.15336 47.4183 9.39367 47.2213 9.7432 47.1775C10.3767 47.09 10.8136 47.1775 11.0321 47.4621C11.2724 47.7248 11.2942 48.1627 11.1413 48.7975C10.901 49.717 11.6219 50.2205 11.6219 50.2205H11.6656L11.8622 51.1838V51.1619ZM10.1364 47.3746C10.0272 47.3746 9.89612 47.3746 9.76504 47.3964C9.52474 47.4183 9.37182 47.5497 9.34998 47.7905C9.24075 48.5567 10.2238 50.0454 11.5345 50.724L11.469 50.3519C11.2942 50.2205 10.6826 49.6513 10.9229 48.6881C11.0539 48.1408 11.0539 47.7686 10.8792 47.5716C10.7481 47.4183 10.5078 47.3527 10.1801 47.3527" fill="#13102D"/>
<path d="M13.0419 51.9499L12.8234 51.8624C11.8185 51.4026 11.0539 50.2861 11.1413 49.6732C11.185 49.4324 11.3379 49.2791 11.5782 49.2572C12.0152 49.2134 12.2992 49.2572 12.4521 49.4542C12.6268 49.6513 12.6487 49.9359 12.5395 50.3518C12.3865 50.921 12.8234 51.2056 12.8453 51.2275H12.889L13.0419 51.9499ZM11.8622 49.4761C11.8622 49.4761 11.7093 49.4761 11.6219 49.4761C11.4909 49.4761 11.4035 49.5637 11.3816 49.6951C11.3161 50.111 11.8622 51.0305 12.6924 51.5121V51.3807C12.4521 51.2275 12.1681 50.8334 12.2992 50.2642C12.3865 49.914 12.3865 49.6951 12.2773 49.5856C12.1899 49.498 12.0588 49.4542 11.8622 49.4542" fill="#13102D"/>
<path d="M14.6366 53.154L14.4182 53.0665C13.4133 52.6067 12.6487 51.4902 12.7361 50.8773C12.7797 50.6365 12.9327 50.4832 13.173 50.4613C13.6099 50.4175 13.8939 50.4613 14.0468 50.6583C14.2216 50.8554 14.2434 51.14 14.1342 51.5559C13.9813 52.1251 14.44 52.4316 14.44 52.4316H14.4837L14.6366 53.154ZM13.457 50.6802C13.457 50.6802 13.304 50.6802 13.2167 50.6802C13.0856 50.6802 12.9982 50.7678 12.9764 50.8992C12.9108 51.3151 13.457 52.2346 14.2871 52.7162V52.5849C14.0468 52.4316 13.7628 52.0375 13.8939 51.4684C13.9813 51.1181 13.9813 50.8992 13.872 50.7897C13.7846 50.7021 13.6536 50.6583 13.457 50.6583" fill="#13102D"/>
<path d="M16.712 53.964L16.4935 53.8546C15.7071 53.4824 15.1172 52.541 15.1828 52.0156C15.2046 51.7967 15.3575 51.6653 15.5541 51.6216C15.9037 51.5778 16.1221 51.6216 16.2532 51.7748C16.4498 51.9937 16.3843 52.3221 16.3187 52.5848C16.1877 53.0664 16.5154 53.2854 16.5372 53.3073H16.5809L16.6901 53.964H16.712ZM15.8163 51.8624C15.8163 51.8624 15.6852 51.8624 15.6197 51.8624C15.5105 51.8624 15.4668 51.9281 15.4449 52.0375C15.4012 52.3878 15.7945 53.1102 16.4061 53.5043V53.4386C16.2751 53.3291 15.9911 53.0227 16.1221 52.4972C16.1877 52.2126 16.1877 52.0156 16.1221 51.928C16.0784 51.8624 15.9692 51.8405 15.8381 51.8405" fill="#13102D"/>
<path d="M4.54391 16.2658C4.65313 16.5504 4.34729 16.9225 3.84484 17.1196C3.36424 17.3166 2.86179 17.229 2.7744 16.9444C2.66517 16.6598 2.97101 16.2877 3.47347 16.0906C3.95407 15.8936 4.45652 15.9812 4.54391 16.2658Z" fill="#13102D"/>
<path d="M3.21132 19.9438C3.2987 20.1846 3.10209 20.4692 2.7744 20.6006C2.44672 20.7319 2.09719 20.6444 2.0098 20.4036C1.92242 20.1628 2.11903 19.8782 2.44672 19.7468C2.7744 19.6155 3.12394 19.703 3.21132 19.9438Z" fill="#13102D"/>
<path d="M2.44672 23.5121C2.53411 23.7311 2.35934 23.9938 2.07535 24.1032C1.79135 24.2127 1.48551 24.1032 1.39813 23.9062C1.31075 23.6873 1.48551 23.4246 1.76951 23.3151C2.0535 23.2056 2.35934 23.3151 2.44672 23.5121Z" fill="#13102D"/>
<path d="M2.44672 27.8468C2.53411 28.0658 2.35934 28.3285 2.07535 28.4379C1.79135 28.5474 1.48551 28.4379 1.39813 28.2409C1.31075 28.022 1.48551 27.7593 1.76951 27.6498C2.0535 27.5404 2.35934 27.6498 2.44672 27.8468Z" fill="#13102D"/>
<path d="M3.823 34.7648C3.93223 35.0494 3.77931 35.3777 3.49531 35.4872C3.21132 35.5967 2.88363 35.4434 2.77441 35.1588C2.66518 34.8742 2.8181 34.5458 3.10209 34.4364C3.38609 34.3269 3.71377 34.4802 3.823 34.7648Z" fill="#13102D"/>
<path d="M5.02451 37.9391C5.13374 38.2237 4.98082 38.5521 4.69682 38.6615C4.41283 38.771 4.08514 38.6177 3.97591 38.3331C3.86668 38.0485 4.0196 37.7202 4.3036 37.6107C4.58759 37.5012 4.91528 37.6545 5.02451 37.9391Z" fill="#13102D"/>
<path d="M6.1605 40.9383C6.26972 41.2229 6.18234 41.5294 5.96389 41.6169C5.74543 41.7045 5.48328 41.5294 5.37405 41.2448C5.26482 40.9602 5.3522 40.6537 5.57066 40.5661C5.78912 40.4785 6.05127 40.6537 6.1605 40.9383Z" fill="#13102D"/>
<path d="M7.34015 43.4339C7.44938 43.7185 7.362 44.025 7.14354 44.1125C6.92508 44.2001 6.66294 44.025 6.55371 43.7404C6.44448 43.4558 6.53186 43.1493 6.75032 43.0617C6.96878 42.9742 7.23092 43.1493 7.34015 43.4339Z" fill="#13102D"/>
<path d="M2.92734 31.3495C3.03657 31.6341 2.88365 31.9625 2.59965 32.0719C2.31566 32.1814 1.98797 32.0281 1.87875 31.7435C1.76952 31.4589 1.92244 31.1306 2.20643 31.0211C2.49043 30.9116 2.81811 31.0649 2.92734 31.3495Z" fill="#13102D"/>
<path d="M8.95673 45.7764C9.06596 46.061 8.97858 46.3675 8.76012 46.4551C8.54166 46.5426 8.27951 46.3675 8.17028 46.0829C8.06106 45.7983 8.14844 45.4918 8.3669 45.4043C8.58535 45.3167 8.8475 45.4918 8.95673 45.7764Z" fill="#13102D"/>
<path d="M10.5515 48.316C10.5078 48.6225 10.2675 48.8414 10.049 48.7976C9.83056 48.7538 9.67765 48.4692 9.74318 48.1627C9.78687 47.8563 10.0272 47.6373 10.2456 47.6811C10.4641 47.7249 10.617 48.0095 10.5515 48.316Z" fill="#13102D"/>
<path d="M13.8502 51.4026C13.8283 51.5777 13.6973 51.6872 13.5662 51.6653C13.4351 51.6434 13.3477 51.4902 13.3914 51.315C13.4133 51.1399 13.5444 51.0304 13.6754 51.0523C13.8065 51.0742 13.8939 51.2275 13.8502 51.4026Z" fill="#13102D"/>
<path d="M15.8381 52.0375C15.8381 52.0375 15.9911 52.1689 15.9692 52.3002C15.9474 52.4316 15.86 52.5192 15.7508 52.4973C15.6634 52.4973 15.5978 52.3659 15.6197 52.2346C15.6415 52.1032 15.7289 52.0156 15.8381 52.0375Z" fill="#13102D"/>
<path d="M12.1462 50.1767C12.1025 50.3737 11.9715 50.5051 11.8185 50.4832C11.6875 50.4613 11.5782 50.2862 11.6219 50.0891C11.6656 49.8921 11.7967 49.7608 11.9496 49.7827C12.0807 49.8045 12.1899 49.9797 12.1462 50.1767Z" fill="#13102D"/>
<path d="M2.2938 16.9008C2.2938 16.9008 2.22826 16.857 2.20641 16.7913C2.20641 16.7037 2.14088 16.5067 3.34239 15.2807C4.67498 13.9234 7.31831 13.6169 7.42754 13.6169V13.8359C7.42754 13.8359 4.78421 14.1424 3.51716 15.434C2.49041 16.4848 2.44672 16.7256 2.44672 16.7475C2.44672 16.7475 2.44672 16.6818 2.38118 16.6818L2.2938 16.9008Z" fill="#13102D"/>
<path d="M51.2719 20.6005L50.2015 19.8343V19.7905C50.2015 19.7905 49.9612 18.5865 48.432 18.2143C47.3397 17.9516 46.7717 17.6013 46.5969 17.0978C46.4658 16.6819 46.6406 16.1783 47.1212 15.5872C47.5363 15.0837 48.1916 15.1056 48.9126 15.5872C50.0922 16.3973 51.3156 18.4551 51.2719 20.3378V20.5568V20.6005ZM50.4199 19.703L51.0316 20.1408C50.9879 18.4113 49.8519 16.5724 48.7815 15.8281C48.432 15.5872 47.7547 15.237 47.3178 15.7624C46.8809 16.2878 46.728 16.7037 46.8372 17.0321C46.9683 17.4262 47.5144 17.7546 48.4975 17.9954C50.0267 18.3675 50.3762 19.4622 50.4199 19.703Z" fill="#13102D"/>
<path d="M51.8617 25.0227L50.9442 24.0813V24.0375C50.9442 24.0375 50.9442 23.7748 50.7913 23.4245C50.551 22.8772 50.1141 22.4613 49.4806 22.1767C48.7378 21.8483 48.279 21.498 48.0387 21.1696C47.8858 20.9507 47.8421 20.7318 47.864 20.5129C47.9077 20.1407 48.1698 19.7686 48.6504 19.3745C49.1966 18.9367 49.9175 19.1556 50.5947 19.9656C51.5122 21.0383 52.2768 23.0962 51.9054 24.8256L51.8617 25.0445V25.0227ZM51.0535 23.9718L51.5778 24.5191C51.8181 22.921 51.0971 21.0821 50.2889 20.0969C50.0049 19.7686 49.284 19.0461 48.6723 19.5496C48.2354 19.8999 48.0169 20.2064 47.9732 20.491C47.9732 20.6661 47.9951 20.8194 48.1043 20.9945C48.3227 21.301 48.7597 21.6075 49.4369 21.914C50.2889 22.308 50.7039 22.8772 50.8787 23.2932C51.0098 23.5997 51.0535 23.8405 51.0535 23.9499" fill="#13102D"/>
<path d="M51.1845 28.0657L50.6165 27.1025V27.0587C50.6165 27.0587 50.835 26.1173 49.8301 25.3292C49.0873 24.7381 48.7597 24.2784 48.8252 23.8405C48.8689 23.4903 49.1529 23.1838 49.7209 22.8992C50.0704 22.7241 50.4418 22.8116 50.7695 23.14C51.1845 23.556 51.4904 24.3441 51.6214 25.2416C51.7525 26.2049 51.6214 27.1463 51.2938 27.8687L51.2064 28.0657H51.1845ZM50.8787 27.0587L51.1627 27.5403C51.7307 26.0954 51.3375 24.0595 50.5947 23.3151C50.3325 23.0524 50.0704 22.9868 49.8083 23.1181C49.3276 23.337 49.0873 23.5997 49.0437 23.8624C49 24.1908 49.3058 24.6068 49.9612 25.1322C50.9661 25.9203 50.9005 26.8398 50.8568 27.0587" fill="#13102D"/>
<path d="M50.7695 31.9186L50.2889 30.9991V30.9554C50.2889 30.9554 50.551 30.0578 49.6772 29.3572C49.0437 28.8756 48.7815 28.4597 48.8033 28.0437C48.8252 27.6715 49.131 27.365 49.699 27.0586C50.0267 26.8834 50.3762 26.9272 50.6602 27.2118C51.4248 27.9561 51.6651 30.1672 50.9005 31.6997L50.7913 31.8967L50.7695 31.9186ZM50.5292 30.9772L50.7476 31.3932C51.3375 29.9921 51.119 28.0437 50.4636 27.4088C50.2452 27.2118 50.0267 27.168 49.7864 27.2994C49.3058 27.5621 49.0437 27.8248 49.0218 28.1094C49 28.4159 49.2403 28.7661 49.7864 29.204C50.6821 29.9045 50.551 30.7802 50.5073 30.9991" fill="#13102D"/>
<path d="M49.8738 35.5528L49.5679 34.5676V34.5239C49.5679 34.5239 50.0048 33.692 49.2621 32.8382C48.7378 32.2471 48.5412 31.7873 48.6504 31.3933C48.7378 31.043 49.0873 30.7803 49.699 30.5833C50.0704 30.4738 50.3762 30.5833 50.6165 30.9117C51.2282 31.7873 51.0753 33.9985 50.0267 35.3558L49.8956 35.5309L49.8738 35.5528ZM49.8301 34.5895L49.9612 35.0274C50.8131 33.7576 50.9224 31.8092 50.4199 31.0649C50.2451 30.8241 50.0485 30.7365 49.7864 30.8241C49.2621 30.9992 48.9562 31.1963 48.8907 31.459C48.8033 31.7436 48.9999 32.1595 49.4587 32.663C50.2015 33.5168 49.9393 34.3487 49.8301 34.5676" fill="#13102D"/>
<path d="M48.8252 38.8365L48.5193 37.8513V37.8076C48.5193 37.8076 48.9563 36.9538 48.2135 36.1219C47.6892 35.5308 47.4926 35.071 47.6018 34.677C47.6892 34.3267 48.0387 34.064 48.6504 33.867C49.0218 33.7575 49.3276 33.867 49.5679 34.1954C50.1796 35.071 50.0267 37.2821 48.9781 38.6395L48.847 38.8146L48.8252 38.8365ZM48.7815 37.8732L48.9126 38.3111C49.7646 37.0413 49.8738 35.0929 49.3713 34.3486C49.1966 34.1078 49 34.0202 48.7378 34.1078C48.2135 34.2829 47.9077 34.48 47.8421 34.7427C47.7547 35.0273 47.9514 35.4432 48.4101 35.9467C49.1529 36.8005 48.8907 37.6324 48.7815 37.8513" fill="#13102D"/>
<path d="M47.5581 41.7263L47.2741 40.7849V40.7412C47.2741 40.7412 47.711 39.9312 47.0557 39.1649C46.5751 38.6176 46.4003 38.2017 46.5095 37.8514C46.5969 37.5011 46.9464 37.2165 47.5581 37.0195C47.9077 36.8881 48.2135 36.9976 48.432 37.3041C48.9999 38.1141 48.7815 40.2376 47.711 41.5731L47.5581 41.7482V41.7263ZM47.5581 40.8068L47.6674 41.2009C48.5193 39.953 48.716 38.0922 48.2353 37.4136C48.0824 37.1946 47.8858 37.1509 47.6455 37.2384C47.1212 37.4136 46.8154 37.6544 46.7498 37.9171C46.6843 38.2017 46.8372 38.5519 47.2523 39.0117C47.9295 39.7998 47.6455 40.6098 47.5581 40.8068Z" fill="#13102D"/>
<path d="M46.1381 44.4848L45.8542 43.5435V43.4997C45.8542 43.4997 46.2911 42.6897 45.6357 41.9235C45.1551 41.3762 44.9803 40.9602 45.0896 40.6099C45.1769 40.2597 45.5265 39.9751 46.1381 39.778C46.4877 39.6467 46.7935 39.7562 47.012 40.0626C47.58 40.8727 47.3615 42.9962 46.2911 44.3316L46.1381 44.5067V44.4848ZM46.1381 43.5654L46.2474 43.9594C47.0994 42.7116 47.296 40.8508 46.8154 40.1721C46.6624 39.9532 46.4658 39.9094 46.2255 39.997C45.7012 40.1721 45.3954 40.4129 45.3299 40.6756C45.2643 40.9602 45.4172 41.3105 45.8323 41.7702C46.5095 42.5583 46.2255 43.3684 46.1381 43.5654Z" fill="#13102D"/>
<path d="M44.74 46.8929L44.4997 45.9734V45.9296C44.4997 45.9296 44.9366 45.1415 44.325 44.441C43.888 43.9375 43.7133 43.5434 43.8225 43.1931C43.9099 42.8429 44.2376 42.5801 44.8492 42.3612C45.1769 42.2299 45.4828 42.3174 45.6794 42.602C46.2255 43.3464 45.9634 45.4042 44.9148 46.6959L44.7619 46.871L44.74 46.8929ZM44.74 45.9953L44.8274 46.3456C45.6794 45.1415 45.8978 43.3683 45.4391 42.7334C45.308 42.5364 45.1114 42.4926 44.8929 42.5801C44.3686 42.7553 44.0846 42.9961 44.0191 43.2588C43.9536 43.5215 44.1065 43.8499 44.4779 44.2877C45.1332 45.0321 44.8274 45.8202 44.74 46.0172" fill="#13102D"/>
<path d="M42.3807 49.323V48.3817L42.4244 48.3379C42.4462 48.316 43.0361 47.703 42.621 46.8492C42.337 46.2581 42.2933 45.8203 42.4681 45.5138C42.6429 45.2073 43.0361 45.0322 43.6915 44.9884C44.041 44.9665 44.3031 45.1197 44.4342 45.4481C44.74 46.3238 43.9536 48.2065 42.5773 49.1917L42.3807 49.323ZM42.5773 48.4254V48.8414C43.7133 47.9 44.4124 46.2581 44.1502 45.5357C44.0628 45.3168 43.9099 45.2073 43.6696 45.2292C43.1235 45.273 42.7739 45.4043 42.6429 45.6451C42.5118 45.886 42.5555 46.2362 42.8176 46.7616C43.2327 47.6373 42.7521 48.316 42.5992 48.4911" fill="#13102D"/>
<path d="M40.2617 51.1619L40.4583 50.2206H40.502C40.502 50.2206 41.2229 49.6951 40.9826 48.7757C40.8078 48.1408 40.8515 47.703 41.0918 47.4403C41.3321 47.1776 41.7472 47.09 42.3807 47.1557C42.7302 47.1994 42.9705 47.4184 43.0142 47.7467C43.1453 48.6662 42.0093 50.3738 40.4801 51.0525L40.2617 51.14V51.1619ZM40.6767 50.3738L40.6112 50.746C41.9219 50.0454 42.905 48.5787 42.7958 47.8124C42.7521 47.5716 42.621 47.4622 42.3807 47.4184C41.8345 47.3527 41.4632 47.4184 41.2884 47.6154C41.1136 47.8124 41.0918 48.1846 41.2447 48.7319C41.485 49.6733 40.8733 50.2425 40.6986 50.3957" fill="#13102D"/>
<path d="M39.082 51.95L39.2349 51.2495H39.2786C39.2786 51.2495 39.7155 50.9211 39.5844 50.3519C39.4752 49.914 39.497 49.6294 39.6718 49.4543C39.8247 49.2792 40.1306 49.2135 40.5456 49.2573C40.8078 49.2792 40.9607 49.4324 40.9825 49.6732C41.0699 50.2862 40.3272 51.4027 39.3004 51.8624L39.082 51.95ZM39.4533 51.3808V51.5122C40.2398 51.0305 40.8078 50.1111 40.7422 49.6951C40.7422 49.5638 40.6549 49.4981 40.5019 49.4762C40.1743 49.4324 39.934 49.4762 39.8466 49.5857C39.7373 49.6951 39.7373 49.9359 39.8247 50.2643C39.9558 50.8116 39.6718 51.2057 39.4752 51.3808" fill="#13102D"/>
<path d="M37.4654 53.1541L37.6183 52.4536H37.662C37.662 52.4536 38.0989 52.1252 37.9679 51.556C37.8586 51.1181 37.8805 50.8335 38.0553 50.6584C38.2082 50.4833 38.514 50.4176 38.9291 50.4614C39.1912 50.4833 39.3442 50.6365 39.366 50.8773C39.4534 51.4903 38.7106 52.6068 37.6839 53.0665L37.4654 53.1541ZM37.8368 52.5849V52.7163C38.6232 52.2346 39.1912 51.3152 39.1257 50.8992C39.1257 50.7679 39.0383 50.7022 38.8854 50.6803C38.5577 50.6365 38.3174 50.6803 38.23 50.7898C38.1208 50.8992 38.1208 51.14 38.2082 51.4684C38.3393 52.0157 38.0553 52.4098 37.8586 52.5849" fill="#13102D"/>
<path d="M35.4119 53.964L35.5211 53.3291H35.5648C35.5648 53.3291 35.8925 53.0445 35.7833 52.5848C35.7178 52.344 35.6522 51.9937 35.8488 51.7748C35.9799 51.6216 36.2202 51.5778 36.5479 51.6216C36.7664 51.6435 36.8974 51.7967 36.9193 52.0156C36.9848 52.541 36.395 53.4824 35.6085 53.8546L35.3901 53.9421L35.4119 53.964ZM35.7396 53.4605V53.5262C36.3294 53.1321 36.7227 52.4097 36.679 52.0594C36.679 51.9499 36.6134 51.9062 36.5042 51.8843C36.2639 51.8405 36.0891 51.8843 36.0236 51.9499C35.9362 52.0375 35.9362 52.2345 36.0236 52.5191C36.1547 53.0445 35.8707 53.3729 35.7615 53.4605" fill="#13102D"/>
<path d="M47.5581 16.2658C47.4489 16.5504 47.7547 16.9225 48.2572 17.1196C48.7378 17.3166 49.2402 17.229 49.3276 16.9444C49.4369 16.6598 49.131 16.2877 48.6286 16.0906C48.148 15.8936 47.6455 15.9812 47.5581 16.2658Z" fill="#13102D"/>
<path d="M48.8907 19.9438C48.8033 20.1846 48.9999 20.4692 49.3276 20.6006C49.6553 20.7319 50.0048 20.6444 50.0922 20.4036C50.1796 20.1628 49.983 19.8782 49.6553 19.7468C49.3276 19.6155 48.9781 19.703 48.8907 19.9438Z" fill="#13102D"/>
<path d="M49.6553 23.5121C49.5679 23.7311 49.7427 23.9938 50.0267 24.1032C50.3107 24.2127 50.6165 24.1032 50.7039 23.9062C50.7913 23.6873 50.6165 23.4246 50.3325 23.3151C50.0485 23.2056 49.7427 23.3151 49.6553 23.5121Z" fill="#13102D"/>
<path d="M49.6553 27.8468C49.5679 28.0658 49.7427 28.3285 50.0267 28.4379C50.3107 28.5474 50.6165 28.4379 50.7039 28.2409C50.7913 28.022 50.6165 27.7593 50.3325 27.6498C50.0485 27.5404 49.7427 27.6498 49.6553 27.8468Z" fill="#13102D"/>
<path d="M48.279 34.7648C48.1698 35.0494 48.3227 35.3777 48.6067 35.4872C48.8907 35.5967 49.2184 35.4434 49.3276 35.1588C49.4369 34.8742 49.2839 34.5458 49 34.4364C48.716 34.3269 48.3883 34.4802 48.279 34.7648Z" fill="#13102D"/>
<path d="M47.0775 37.9391C46.9683 38.2237 47.1212 38.5521 47.4052 38.6615C47.6892 38.771 48.0169 38.6177 48.1261 38.3331C48.2353 38.0485 48.0824 37.7202 47.7984 37.6107C47.5144 37.5012 47.1867 37.6545 47.0775 37.9391Z" fill="#13102D"/>
<path d="M45.9634 40.9383C45.8541 41.2229 45.9415 41.5294 46.16 41.6169C46.3784 41.7045 46.6406 41.5294 46.7498 41.2448C46.859 40.9602 46.7717 40.6537 46.5532 40.5661C46.3348 40.4785 46.0726 40.6537 45.9634 40.9383Z" fill="#13102D"/>
<path d="M44.7619 43.4339C44.6526 43.7185 44.74 44.025 44.9585 44.1125C45.1769 44.2001 45.4391 44.025 45.5483 43.7404C45.6575 43.4558 45.5702 43.1493 45.3517 43.0617C45.1332 42.9742 44.8711 43.1493 44.7619 43.4339Z" fill="#13102D"/>
<path d="M49.1747 31.3495C49.0655 31.6341 49.2184 31.9625 49.5024 32.0719C49.7864 32.1814 50.1141 32.0281 50.2233 31.7435C50.3325 31.4589 50.1796 31.1306 49.8956 31.0211C49.6116 30.9116 49.2839 31.0649 49.1747 31.3495Z" fill="#13102D"/>
<path d="M43.1671 45.7764C43.0579 46.061 43.1453 46.3675 43.3638 46.4551C43.5822 46.5426 43.8444 46.3675 43.9536 46.0829C44.0628 45.7983 43.9754 45.4918 43.757 45.4043C43.5385 45.3167 43.2764 45.4918 43.1671 45.7764Z" fill="#13102D"/>
<path d="M41.5506 48.316C41.5943 48.6225 41.8346 48.8414 42.053 48.7976C42.2715 48.7538 42.4244 48.4692 42.3589 48.1627C42.3152 47.8563 42.0749 47.6373 41.8564 47.6811C41.638 47.7249 41.485 48.0095 41.5506 48.316Z" fill="#13102D"/>
<path d="M38.2737 51.4026C38.2955 51.5777 38.4266 51.6872 38.5577 51.6653C38.6888 51.6434 38.7761 51.4902 38.7325 51.315C38.7106 51.1399 38.5795 51.0304 38.4485 51.0523C38.3174 51.0742 38.23 51.2275 38.2737 51.4026Z" fill="#13102D"/>
<path d="M36.2639 52.0375C36.2639 52.0375 36.111 52.1689 36.1328 52.3002C36.1547 52.4316 36.2421 52.5192 36.3513 52.4973C36.4387 52.4973 36.5042 52.3659 36.4824 52.2346C36.4605 52.1032 36.3731 52.0156 36.2639 52.0375Z" fill="#13102D"/>
<path d="M39.9776 50.1767C40.0213 50.3737 40.1524 50.5051 40.3053 50.4832C40.4364 50.4613 40.5456 50.2862 40.502 50.0891C40.4583 49.8921 40.3272 49.7608 40.1743 49.7827C40.0432 49.8045 39.934 49.9797 39.9776 50.1767Z" fill="#13102D"/>
<path d="M49.8082 16.9008L49.7209 16.6818L49.6553 16.7475C49.6553 16.7256 49.6116 16.4848 48.5849 15.434C47.3178 14.1424 44.6745 13.8359 44.6526 13.8359V13.6169C44.7837 13.6169 47.4271 13.9234 48.7596 15.2807C49.9612 16.5067 49.9175 16.7037 49.8956 16.7913C49.8956 16.8351 49.8519 16.8789 49.8082 16.9008Z" fill="#13102D"/>
<path d="M22.0205 53.0227C22.0205 53.0227 22.3919 52.8257 22.3919 51.4902H22.8506L22.7195 52.4535L22.086 53.2854L21.9986 53.0446L22.0205 53.0227Z" fill="#13102D"/>
<path d="M22.654 52.4534L22.7851 51.2931H22.3263C22.3263 51.2931 22.5885 52.4534 21.7365 53.3948C20.2291 54.6207 18.3723 54.0297 18.3723 54.0297L18.2193 54.4018C17.7606 54.4018 17.3018 54.358 16.8867 54.2924C19.2024 55.1243 22.37 54.6645 23.1128 51.9718C23.222 51.6434 23.2657 51.2931 23.2875 50.9429C23.1346 51.4902 22.938 52.0156 22.654 52.4753" fill="#13102D"/>
<path d="M29.4043 52.4534L29.2733 51.2931H29.732C29.732 51.2931 29.4699 52.4534 30.3219 53.3948C31.8292 54.6207 33.6861 54.0297 33.6861 54.0297L33.839 54.4018C34.2978 54.4018 34.7565 54.358 35.1716 54.2924C32.856 55.1243 29.6883 54.6645 28.9456 51.9718C28.8363 51.6434 28.7927 51.2931 28.7708 50.9429C28.9237 51.4902 29.1203 52.0156 29.4043 52.4753" fill="#13102D"/>
<path d="M28.7927 50.8773C28.7927 50.8773 28.7271 50.133 28.8582 49.2573H29.0985L29.2077 51.7092L28.88 51.6436C28.88 51.6436 28.7927 51.3152 28.7927 50.8773Z" fill="#13102D"/>
<path d="M25.21 33.2103C25.21 33.3854 25.1226 33.5168 24.9915 33.5168C24.8605 33.5168 24.7731 33.3854 24.7731 33.2103C24.7731 33.0352 24.8605 32.9038 24.9915 32.9038C25.1226 32.9038 25.21 33.0352 25.21 33.2103Z" fill="#13102D"/>
<path d="M27.2198 33.2103C27.2198 33.3854 27.1324 33.5168 27.0013 33.5168C26.8702 33.5168 26.7828 33.3854 26.7828 33.2103C26.7828 33.0352 26.8702 32.9038 27.0013 32.9038C27.1324 32.9038 27.2198 33.0352 27.2198 33.2103Z" fill="#13102D"/>
<path d="M29.3825 21.4981V21.4324C29.3825 21.4324 29.601 21.4762 29.6883 21.4981V21.0165C29.6883 21.0165 28.7053 20.6224 27.4382 20.6443C27.0013 20.6443 26.5207 20.6662 26.0401 20.7975C25.5595 20.6662 25.0789 20.6224 24.642 20.6443C23.3968 20.6005 22.37 21.0165 22.37 21.0165V21.4981C22.5011 21.4762 22.6103 21.4543 22.6977 21.4324V21.4981C23.2002 21.3886 23.6808 21.3448 24.0958 21.3229C24.358 21.3229 24.5983 21.3448 24.7949 21.3667C22.8725 22.6803 22.086 24.957 23.1346 26.8616C24.1832 28.7882 25.8653 29.8609 25.8653 29.8609C25.8653 29.8609 25.9309 29.8171 26.0183 29.7514C26.1275 29.8171 26.1712 29.8609 26.1712 29.8609C26.1712 29.8609 27.8533 28.81 28.9019 26.8616C29.9505 24.957 29.164 22.6803 27.2416 21.3667C27.4382 21.3448 27.6785 21.3229 27.9407 21.3229C28.3558 21.3229 28.8364 21.3886 29.3388 21.4981M24.5764 27.7154C23.0909 24.5192 24.9697 22.5927 25.9964 21.8484C27.0232 22.5927 28.9237 24.4973 27.4164 27.7154C27.4164 27.7154 26.7829 28.6787 25.9964 29.0509C25.21 28.6787 24.5764 27.7154 24.5764 27.7154Z" fill="#13102D"/>
<path d="M26.5644 41.4199C26.5644 41.7045 26.3241 41.9454 26.0401 41.9454C25.7561 41.9454 25.5158 41.7045 25.5158 41.4199C25.5158 41.1353 25.7561 40.8945 26.0401 40.8945C26.3241 40.8945 26.5644 41.1353 26.5644 41.4199Z" fill="#13102D"/>
</g>
</g>
<path d="M172.788 46.3078V8.1875H180.376V46.2951H172.788V46.3078Z" fill="#13112E"/>
<path d="M196.751 23.9229L193.67 18.6185C193.039 19.1261 189.176 21.6767 187.597 22.2478L187.32 22.3747H187.294C187.294 22.3747 187.294 22.3747 187.282 22.3747C185.098 23.2503 182.37 23.631 180.047 23.9736C179.984 23.9736 179.921 23.9863 179.883 23.999H179.908C179.807 23.999 179.719 24.0244 179.77 23.999C174.442 24.6589 170.629 23.8975 164.278 25.0776C162.712 22.197 160.654 19.6971 158.495 17.4383C157.422 16.3216 156.248 15.0526 154.847 14.3674C153.331 13.6314 151.072 14.5831 150.024 16.0805C149.948 16.1947 149.657 16.55 149.569 16.6643C148.799 17.7556 147.865 18.8596 146.867 19.6971C146.69 19.8367 146.072 20.4078 145.908 20.5473C145.933 20.5347 145.971 20.5093 145.996 20.4839C145.958 20.522 145.908 20.56 145.857 20.5981C145.857 20.5981 145.845 20.6108 145.832 20.6108C145.819 20.6235 145.794 20.6489 145.769 20.6616C145.718 20.6996 145.668 20.7377 145.617 20.7758C143.029 22.6792 140.958 23.9736 138.029 25.2553C138.017 25.2553 137.991 25.2553 137.979 25.2807C137.966 25.2807 137.941 25.2934 137.916 25.306C137.852 25.3314 137.726 25.3949 137.663 25.4076C137.663 25.4076 137.537 25.4583 137.474 25.4837C131.312 28.1613 124.293 29.6079 117.702 30.5343V36.7142C130.126 34.7346 146.716 30.8642 153.584 21.1945C155.074 22.7427 156.614 24.6208 157.814 26.537C154.089 27.5775 149.847 29.8109 147.89 32.9834C145.466 36.8665 146.362 42.7546 150.592 45.0261C157.245 48.5919 165.705 44.8738 166.854 37.869C167.182 35.7879 166.98 33.0976 166.096 30.7246C172.295 30.014 174.846 30.3439 179.858 29.8998C185.994 29.3541 191.865 27.6283 196.789 23.8594L196.751 23.9229ZM160.667 39.303C160.351 39.7725 159.935 40.1659 159.455 40.5085C158.268 41.3333 156.728 41.7394 155.554 41.6506C155.516 41.6506 155.478 41.6379 155.44 41.6379C155.251 41.6125 155.061 41.5871 154.897 41.5491C154.657 41.4856 154.443 41.4095 154.253 41.3206C153.862 41.143 153.534 40.9399 153.256 40.6861C152.991 40.4323 152.776 40.1405 152.624 39.8232C152.549 39.6583 152.486 39.4806 152.422 39.303C152.309 38.9349 152.258 38.5416 152.233 38.0974C152.195 37.4122 152.296 36.8031 152.498 36.2574C153.9 32.4251 160.313 31.8032 160.313 31.8032C160.313 31.8032 161.374 34.0367 161.412 36.3462C161.437 37.3995 161.248 38.4527 160.654 39.3283L160.667 39.303Z" fill="#002992"/>
<path d="M131.666 30.1917V46.3078H124.078V8.1875H145.036V14.3421H131.653V24.1894" fill="#13112E"/>
<path d="M190.968 46.3078V8.1875H198.556V46.2951H190.968V46.3078Z" fill="#13112E"/>
<path d="M84.8122 0V56" stroke="#13102D" stroke-miterlimit="10"/>
</svg>
