<svg width="199" height="56" viewBox="0 0 199 56" fill="none" xmlns="http://www.w3.org/2000/svg">
<path d="M172.788 46.3078V8.1875H180.376V46.2951H172.788V46.3078Z" fill="#FFFBDC"/>
<path d="M196.751 23.923L193.67 18.6186C193.039 19.1262 189.176 21.6769 187.597 22.2479L187.32 22.3748H187.294C187.294 22.3748 187.294 22.3748 187.282 22.3748C185.098 23.2504 182.37 23.6311 180.047 23.9737C179.984 23.9737 179.921 23.9864 179.883 23.9991H179.908C179.807 23.9991 179.719 24.0245 179.77 23.9991C174.442 24.659 170.629 23.8976 164.278 25.0777C162.712 22.1972 160.654 19.6973 158.495 17.4385C157.422 16.3218 156.248 15.0528 154.847 14.3675C153.331 13.6315 151.072 14.5832 150.024 16.0806C149.948 16.1949 149.657 16.5502 149.569 16.6644C148.799 17.7557 147.865 18.8597 146.867 19.6973C146.69 19.8368 146.072 20.4079 145.908 20.5475C145.933 20.5348 145.971 20.5094 145.996 20.484C145.958 20.5221 145.908 20.5602 145.857 20.5982C145.857 20.5982 145.845 20.6109 145.832 20.6109C145.819 20.6236 145.794 20.649 145.769 20.6617C145.718 20.6997 145.668 20.7378 145.617 20.7759C143.029 22.6794 140.958 23.9737 138.029 25.2554C138.017 25.2554 137.991 25.2554 137.979 25.2808C137.966 25.2808 137.941 25.2935 137.916 25.3062C137.852 25.3315 137.726 25.395 137.663 25.4077C137.663 25.4077 137.537 25.4584 137.474 25.4838C131.312 28.1614 124.293 29.608 117.702 30.5344V36.7143C130.126 34.7347 146.716 30.8643 153.584 21.1947C155.074 22.7428 156.614 24.6209 157.814 26.5371C154.089 27.5776 149.847 29.8111 147.89 32.9835C145.466 36.8666 146.362 42.7547 150.592 45.0262C157.245 48.592 165.705 44.8739 166.854 37.8691C167.182 35.788 166.98 33.0977 166.096 30.7247C172.295 30.0141 174.846 30.344 179.858 29.8999C185.994 29.3542 191.865 27.6284 196.789 23.8595L196.751 23.923ZM160.667 39.3031C160.351 39.7726 159.935 40.166 159.455 40.5086C158.268 41.3335 156.728 41.7395 155.554 41.6507C155.516 41.6507 155.478 41.638 155.44 41.638C155.251 41.6126 155.061 41.5872 154.897 41.5492C154.657 41.4857 154.443 41.4096 154.253 41.3208C153.862 41.1431 153.534 40.9401 153.256 40.6863C152.991 40.4325 152.776 40.1406 152.624 39.8234C152.549 39.6584 152.486 39.4807 152.422 39.3031C152.309 38.9351 152.258 38.5417 152.233 38.0975C152.195 37.4123 152.296 36.8032 152.498 36.2575C153.9 32.4252 160.313 31.8034 160.313 31.8034C160.313 31.8034 161.374 34.0368 161.412 36.3463C161.437 37.3996 161.248 38.4529 160.654 39.3285L160.667 39.3031Z" fill="#FFFBDC"/>
<path d="M131.666 30.1917V46.3078H124.078V8.1875H145.036V14.3421H131.653V24.1894" fill="#FFFBDC"/>
<path d="M190.968 46.3078V8.1875H198.556V46.2951H190.968V46.3078Z" fill="#FFFBDC"/>
<path d="M84.8122 0V56" stroke="#FFFBDC" stroke-miterlimit="10"/>
<mask id="mask0_2622_2599" style="mask-type:luminance" maskUnits="userSpaceOnUse" x="0" y="1" width="53" height="54">
<path d="M52.102 1H0V54.3073H52.102V1Z" fill="white"/>
</mask>
<g mask="url(#mask0_2622_2599)">
<mask id="mask1_2622_2599" style="mask-type:luminance" maskUnits="userSpaceOnUse" x="0" y="1" width="53" height="54">
<path d="M52.102 1H0V54.3073H52.102V1Z" fill="white"/>
</mask>
<g mask="url(#mask1_2622_2599)">
<path d="M26.0838 1C23.2657 1 20.9719 3.29867 20.9719 6.12275C20.9719 8.94684 23.2657 11.2455 26.0838 11.2455C28.9019 11.2455 31.1957 8.94684 31.1957 6.12275C31.1957 3.29867 28.9019 1 26.0838 1ZM26.6518 9.71306C26.5644 9.42846 26.2804 9.20954 25.9746 9.20954C25.6687 9.20954 25.4066 9.40657 25.2973 9.66927C24.0084 9.38468 22.9599 8.39953 22.5885 7.12979C22.7196 6.99844 22.8069 6.8233 22.8069 6.62627C22.8069 6.36357 22.6759 6.12275 22.4574 6.01329C22.5011 4.30571 23.7463 2.88272 25.341 2.55434C25.4721 2.77326 25.6906 2.92651 25.9746 2.92651C26.2586 2.92651 26.4989 2.77326 26.6299 2.53245C28.3339 2.77326 29.6665 4.21814 29.7539 5.9914C29.4917 6.10086 29.317 6.36357 29.317 6.67006C29.317 6.91087 29.4262 7.1079 29.601 7.23925C29.1859 8.55278 28.0718 9.53792 26.6955 9.75684" fill="#FFFBDC"/>
<path d="M16.7775 6.6262C16.6464 6.27593 16.4498 6.03512 16.4061 5.99133C16.5809 6.16647 16.712 6.3635 16.7775 6.6262Z" fill="#FFFBDC"/>
<path d="M10.1364 34.6262C11.5564 34.6262 12.6924 35.7865 12.6924 37.1876C12.6924 38.5887 11.5345 39.749 10.1364 39.749C8.73828 39.749 7.58046 38.5887 7.58046 37.1876C7.58046 35.7865 8.73828 34.6262 10.1364 34.6262ZM10.1364 33.5973C8.14845 33.5973 6.55371 35.2173 6.55371 37.1876C6.55371 39.1579 8.17029 40.7779 10.1364 40.7779C12.1025 40.7779 13.7191 39.1579 13.7191 37.1876C13.7191 35.2173 12.1025 33.5973 10.1364 33.5973Z" fill="#FFFBDC"/>
<path d="M14.5711 43.3611C15.6634 43.3611 16.5372 44.2368 16.5372 45.3314C16.5372 46.426 15.6634 47.3017 14.5711 47.3017C13.4788 47.3017 12.605 46.426 12.605 45.3314C12.605 44.2368 13.4788 43.3611 14.5711 43.3611ZM14.5711 42.573C13.0419 42.573 11.8185 43.8208 11.8185 45.3314C11.8185 46.842 13.0637 48.0898 14.5711 48.0898C16.0785 48.0898 17.3237 46.842 17.3237 45.3314C17.3237 43.8208 16.0785 42.573 14.5711 42.573Z" fill="#FFFBDC"/>
<path d="M11.2942 32.3932C11.3816 33.2032 10.4641 33.9694 9.24074 34.1008C8.01738 34.2321 6.96879 33.6629 6.90325 32.831C6.81587 32.021 7.73339 31.2548 8.95675 31.1235C10.1801 30.9921 11.2287 31.5613 11.2942 32.3932Z" fill="#FFFBDC"/>
<path d="M14.2215 40.7341C14.5929 41.5003 13.9812 42.573 12.8453 43.1422C11.7093 43.7114 10.4859 43.5363 10.1146 42.7701C9.74317 42.0038 10.3549 40.9311 11.4908 40.3619C12.6268 39.7927 13.8502 39.9679 14.2215 40.7341Z" fill="#FFFBDC"/>
<path d="M19.2679 46.3386C19.8796 46.864 19.7267 48.0243 18.9621 48.9218C18.1756 49.8194 17.0615 50.1259 16.4498 49.6005C15.8381 49.0751 15.9911 47.9148 16.7557 47.0172C17.5421 46.1197 18.6562 45.8132 19.2679 46.3386Z" fill="#FFFBDC"/>
<path d="M26.5207 33.7725V34.1885C26.5207 35.1298 27.3071 35.1736 27.3071 35.1736C27.1542 35.3925 26.5425 35.4144 26.5425 35.4144C26.5207 35.896 26.1056 36.0712 26.1056 36.0712C26.1056 36.0712 25.6906 35.896 25.6687 35.4144C25.6687 35.4144 25.057 35.3925 24.9041 35.1736C24.9041 35.1736 25.6906 35.1298 25.6906 34.1885V33.8163L26.4989 33.7506L26.5207 33.7725Z" fill="#FFFBDC"/>
<path d="M18.5907 41.369C18.5907 41.6755 18.3504 41.8945 18.0664 41.8945C17.7824 41.8945 17.5421 41.6536 17.5421 41.369C17.5421 41.0844 17.7824 40.8436 18.0664 40.8436C18.3504 40.8436 18.5907 41.0844 18.5907 41.369Z" fill="#FFFBDC"/>
<path d="M33.4676 41.369C33.4676 41.6755 33.7079 41.8945 33.9919 41.8945C34.2759 41.8945 34.5162 41.6536 34.5162 41.369C34.5162 41.0844 34.2759 40.8436 33.9919 40.8436C33.7079 40.8436 33.4676 41.0844 33.4676 41.369Z" fill="#FFFBDC"/>
<path d="M7.51494 12.6466C6.75034 12.9312 6.00759 12.8874 5.87651 12.5152C5.74544 12.1431 6.24789 11.6177 7.01249 11.3331C7.77709 11.0485 8.51985 11.0922 8.65092 11.4644C8.78199 11.8366 8.27954 12.362 7.51494 12.6466Z" fill="#FFFBDC"/>
<path d="M22.0205 52.9718C22.5011 52.4245 22.7195 51.5051 21.9768 49.9945C22.086 49.8413 22.1516 49.6442 22.1516 49.4472C22.1516 48.9437 21.7583 48.5277 21.2559 48.5058C21.2559 48.5058 21.2559 48.5058 21.234 48.5058C20.8408 48.5058 20.4694 48.7467 20.3384 49.1188C20.1199 49.7756 20.6005 50.3667 21.234 50.3667C21.4743 50.3667 21.7146 50.2791 21.8894 50.104C22.7632 52.4245 20.8627 52.5997 20.8627 52.5997C19.7704 52.5997 18.1319 52.337 16.2969 51.5488C16.2969 51.5488 16.0129 51.4613 15.8818 51.3956C15.292 51.111 14.6803 50.7826 14.0686 50.3229C14.0686 50.3229 13.9157 50.2791 13.8283 50.2353C13.3914 49.9288 12.9327 49.6004 12.4739 49.2283C12.4084 49.1626 12.3428 49.1188 12.2773 49.0531C11.9059 48.7248 11.5345 48.3745 11.1632 48.0023C10.8136 47.6521 10.4859 47.3018 10.1582 46.9077C9.96164 46.6669 9.76503 46.4261 9.56841 46.1634C9.39365 45.9226 9.21888 45.7037 9.04412 45.4409C8.97858 45.3315 8.8912 45.2439 8.82566 45.1345C8.73828 45.025 8.67274 44.8937 8.58536 44.7842C8.38874 44.4777 8.17029 44.1493 7.97368 43.799C7.66784 43.2517 7.34015 42.6825 7.05616 42.0915C6.92508 41.8288 6.79401 41.5442 6.66293 41.2596C6.42263 40.7123 6.18233 40.1212 5.94202 39.5082C5.76726 39.0704 5.61434 38.6106 5.41773 38.129C5.33034 37.7568 5.22112 37.3847 5.11189 37.0125C4.89343 36.2463 4.67497 35.4581 4.50021 34.6263C4.47836 34.4949 4.43467 34.3635 4.41282 34.2103C3.91037 31.846 3.53899 29.197 3.34238 26.1978C3.42977 24.1618 3.73561 22.3448 4.15067 20.7467C4.19437 20.5496 4.19437 20.1775 4.19437 20.1775C5.37404 15.8209 7.20908 13.3033 7.20908 13.3033C8.82566 13.0844 10.4859 12.1212 9.8961 10.4574C9.17519 8.39951 3.73561 11.8366 3.03654 15.208L3.42977 15.0328C3.42977 15.0328 3.32054 15.2517 3.27685 15.3612C3.16762 15.5801 3.05839 15.8209 2.94916 16.1055C2.90547 16.2369 2.83993 16.3682 2.79624 16.4996C2.4904 17.2877 2.14087 18.2728 1.85687 19.455C1.85687 19.5426 1.81318 19.6083 1.79134 19.6958C1.52919 20.8123 1.28889 22.0821 1.13597 23.5051H1.07043C1.07043 23.5051 1.00489 23.7459 0.983046 23.8553C0.873817 24.9062 0.873817 27.2705 0.873817 27.2705C0.873817 27.2705 0.873817 28.2556 1.07043 28.7592C0.939354 29.3503 1.00489 29.9632 1.07043 30.5981C1.11412 31.0578 1.17966 31.5176 1.26704 31.9992C1.31073 32.2838 1.35442 32.5684 1.41996 32.853C1.4855 33.2252 1.55103 33.5754 1.63842 33.9257C2.99285 40.3401 6.0731 45.6599 9.93979 49.1845C10.4859 49.688 11.0539 50.1478 11.6219 50.5637C11.8404 50.7169 12.037 50.8702 12.2554 51.0015C12.4302 51.111 12.5831 51.2205 12.7579 51.3299C12.9545 51.4613 13.1511 51.5707 13.3477 51.6802C13.6973 51.8772 14.0468 52.0743 14.3963 52.2494C14.8769 52.4902 15.3357 52.6872 15.8381 52.8624C16.0566 52.9499 16.275 53.0156 16.4935 53.0813C17.7387 53.4753 18.9839 53.7162 20.251 53.7818C20.251 53.7818 20.3602 53.7818 20.535 53.7381C19.4864 54.0664 18.547 54.0227 18.547 54.0227C10.049 53.6505 2.66517 44.6528 0.50244 32.5684C-1.63844 20.6372 3.69192 11.1798 3.69192 11.1798H5.28665C5.76726 10.3479 7.6023 9.31898 9.10965 9.45033C10.333 9.55979 11.1195 10.3041 10.8355 11.5082C10.5296 12.8655 9.02227 13.0844 8.01737 13.5004L8.6072 14.8796C8.6072 14.8796 9.6121 17.8131 12.6487 17.7912C15.6852 17.7474 18.2412 16.3463 20.1417 12.6466C22.0423 8.94681 20.0107 4.08676 17.695 3.86784C15.3794 3.67081 14.3745 4.24001 13.9594 5.35651C13.6317 6.25408 14.3526 7.28301 15.0298 7.78653C14.724 7.50193 14.5711 7.08598 14.6366 6.62625C14.724 6.10084 15.1828 5.68489 15.7071 5.61921C16.0347 5.57543 16.3406 5.68489 16.5809 5.86002C16.6027 5.86002 16.6464 5.90381 16.6683 5.9257C16.712 5.96949 16.9086 6.2103 17.0396 6.56057C17.2363 7.10787 17.28 7.91788 16.1877 8.61843C16.1877 8.61843 14.156 9.31898 13.1948 7.43626C13.1948 7.43626 12.2773 6.25408 13.1948 4.41515C13.6754 3.43 14.6148 2.75135 15.6852 2.5981C16.8649 2.42296 18.5688 2.48864 20.1636 3.78027C20.4694 4.02109 20.7097 4.30569 20.9063 4.63407C21.7802 6.07895 23.8337 10.5668 19.8577 15.9742C19.8577 15.9742 17.6513 19.3675 12.5176 19.6083C12.5176 19.6083 8.17029 19.3675 7.23092 16.4339C7.23092 16.4339 5.15558 19.4112 4.5439 24.6216C5.98572 47.3018 18.547 50.8045 20.2073 51.0891C20.7534 51.1767 20.819 51.1767 21.103 51.1767C21.1685 51.1767 21.2559 51.1329 21.2996 51.0891C21.4743 50.8483 21.518 50.6075 21.518 50.6075C17.9135 50.6732 20.1854 46.8858 20.1854 46.8858L23.222 48.3964C23.6807 50.7607 23.0254 52.118 22.086 52.9062" fill="#FFFBDC"/>
<path d="M43.0142 23.2204C44.9366 23.2204 46.4877 24.7748 46.4877 26.7013C46.4877 28.6278 44.9366 30.1821 43.0142 30.1821C41.0918 30.1821 39.5407 28.6278 39.5407 26.7013C39.5407 24.7748 41.0918 23.2204 43.0142 23.2204ZM43.0142 21.8193C40.3272 21.8193 38.1645 24.0085 38.1645 26.6794C38.1645 29.3502 40.349 31.5394 43.0142 31.5394C45.6794 31.5394 47.864 29.3502 47.864 26.6794C47.864 24.0085 45.6794 21.8193 43.0142 21.8193Z" fill="#FFFBDC"/>
<path d="M44.5871 12.6466C45.3517 12.9312 46.0945 12.8874 46.2256 12.5152C46.3566 12.1431 45.8542 11.6177 45.0896 11.3331C44.325 11.0485 43.5822 11.0922 43.4512 11.4644C43.3201 11.8366 43.8225 12.362 44.5871 12.6466Z" fill="#FFFBDC"/>
<path d="M30.1034 52.9718C29.6228 52.4245 29.4043 51.505 30.1471 49.9945C30.0379 49.8412 29.9723 49.6442 29.9723 49.4472C29.9723 48.9436 30.3655 48.5277 30.868 48.5058C30.868 48.5058 30.868 48.5058 30.8898 48.5058C31.2831 48.5058 31.6544 48.7466 31.7855 49.1188C32.004 49.7755 31.5234 50.3666 30.8898 50.3666C30.6495 50.3666 30.4092 50.2791 30.2345 50.1039C29.3606 52.4245 31.2612 52.5996 31.2612 52.5996C32.3535 52.5996 33.9919 52.3369 35.827 51.5488C35.827 51.5488 36.111 51.4612 36.242 51.3956C36.8319 51.111 37.4436 50.7826 38.0552 50.3228C38.0552 50.3228 38.2082 50.2791 38.2955 50.2353C38.7325 49.9288 39.1912 49.6004 39.65 49.2282C39.7155 49.1626 39.7811 49.1188 39.8466 49.0531C40.218 48.7247 40.5893 48.3745 40.9607 48.0023C41.3103 47.652 41.6379 47.3017 41.9656 46.9077C42.1622 46.6669 42.3588 46.4261 42.5555 46.1633C42.7302 45.9225 42.905 45.7036 43.0798 45.4409C43.1453 45.3315 43.2327 45.2439 43.2982 45.1344C43.3856 45.025 43.4511 44.8936 43.5385 44.7841C43.7351 44.4777 43.9536 44.1493 44.1502 43.799C44.456 43.2517 44.7837 42.6825 45.0677 42.0914C45.1988 41.8287 45.3299 41.5441 45.4609 41.2595C45.7012 40.7122 45.9415 40.1211 46.1818 39.5082C46.3566 39.0703 46.5095 38.6106 46.5969 38.1289C46.7935 37.7568 46.9028 37.3846 47.012 37.0124C47.2304 36.2462 47.4489 35.4581 47.6237 34.6262C47.6455 34.4949 47.6892 34.3635 47.7111 34.2103C48.2135 31.8459 48.5849 29.197 48.7815 26.1978C48.6941 24.1618 48.3883 22.3447 47.9732 20.7466C47.9295 20.5496 47.8203 20.1774 47.8203 20.1774V20.2431C46.5751 15.8209 44.609 13.2595 44.609 13.2595C42.8831 13.0406 41.1136 12.0555 41.7472 10.3698C42.5118 8.29001 48.3227 11.7709 49.0655 15.2079L48.6504 15.0328C48.6504 15.0328 48.7596 15.2517 48.8252 15.3612C48.9344 15.5801 49.0436 15.8209 49.1747 16.1055C49.2402 16.2368 49.2839 16.3682 49.3495 16.4995C49.6772 17.3096 50.0485 18.3166 50.3544 19.4988C50.3762 19.5863 50.3981 19.6739 50.4199 19.7396C50.7039 20.878 50.9442 22.1477 51.0971 23.5926V23.4831C51.0971 23.4831 51.0971 23.7239 51.0971 23.8334C51.2064 24.8842 51.0971 27.2486 51.0971 27.2486C51.0971 27.2486 51.1845 28.2337 51.0971 28.7372C51.119 29.3283 51.0753 29.9413 50.9879 30.5762C50.9442 31.0359 50.8787 31.4956 50.7913 31.9773C50.7476 32.2619 50.7039 32.5465 50.6384 32.8311C50.5728 33.2032 50.5073 33.5535 50.4199 33.9038C49.0655 40.3182 45.9852 45.6379 42.1185 49.1626C41.5724 49.6661 41.0044 50.1258 40.4364 50.5418C40.218 50.695 40.0214 50.8483 39.8029 50.9796C39.6281 51.0891 39.4752 51.1985 39.3004 51.308C39.1038 51.4394 38.9072 51.5488 38.7106 51.6583C38.3611 51.8553 38.0115 52.0523 37.662 52.2275C37.1814 52.4683 36.7227 52.6653 36.2202 52.8404C36.0017 52.928 35.7833 52.9937 35.5648 53.0594C34.3196 53.4534 33.0744 53.6942 31.8074 53.7599C31.8074 53.7599 31.6981 53.7599 31.5234 53.7161C32.572 54.0445 33.5113 54.0007 33.5113 54.0007C42.0093 53.6286 49.3932 44.6309 51.5559 32.5465C53.7186 20.5715 48.3883 11.136 48.3883 11.136H46.7935C46.3129 10.3041 44.4779 9.27515 42.9705 9.40651C41.7472 9.51597 40.9607 10.2603 41.2447 11.4644C41.5506 12.8217 43.0579 13.0406 44.0628 13.4565L43.473 14.8357C43.473 14.8357 42.4681 17.7693 39.4315 17.7474C36.395 17.7036 33.839 16.3025 31.9384 12.6028C30.0379 8.90299 32.0695 4.04294 34.3852 3.82402C36.7008 3.62699 37.7057 4.19619 38.1208 5.31268C38.4485 6.21026 37.7276 7.23919 37.0503 7.74271C37.3562 7.45811 37.5091 7.04216 37.4436 6.58243C37.3562 6.05701 36.8974 5.64106 36.3731 5.57539C36.0454 5.5316 35.7396 5.64106 35.4993 5.8162C35.4774 5.8162 35.4338 5.85999 35.4119 5.88188C35.3682 5.92566 35.1716 6.16648 35.0405 6.51675C34.8439 7.06405 34.8002 7.87406 35.8925 8.57461C35.8925 8.57461 37.9242 9.27515 38.8854 7.39243C38.8854 7.39243 39.8029 6.21026 38.8854 4.37132C38.4048 3.38618 37.4654 2.70752 36.395 2.55428C35.2153 2.37914 33.5113 2.44482 31.9166 3.73645C31.6108 3.97726 31.3705 4.26186 31.1738 4.59024C30.3 6.03512 28.2465 10.523 32.2224 15.9304C32.2224 15.9304 34.4289 19.3236 39.5626 19.5644C39.5626 19.5644 43.9099 19.3236 44.8493 16.3901C44.8493 16.3901 46.9246 19.3674 47.5363 24.5777C46.0945 47.258 33.5332 50.7607 31.8729 51.0453C31.3268 51.1329 31.2612 51.1329 30.9772 51.1329C30.9117 51.1329 30.8243 51.0891 30.7806 51.0453C30.6059 50.8045 30.5622 50.5637 30.5622 50.5637C34.1667 50.6293 31.8947 46.842 31.8947 46.842L28.8582 48.3526C28.3994 50.7169 29.0548 52.0742 29.9942 52.8623" fill="#FFFBDC"/>
<path d="M41.9219 34.6262C43.3419 34.6262 44.4779 35.7865 44.4779 37.1876C44.4779 38.5887 43.3201 39.749 41.9219 39.749C40.5238 39.749 39.366 38.5887 39.366 37.1876C39.366 35.7865 40.5238 34.6262 41.9219 34.6262ZM41.9219 33.5973C39.934 33.5973 38.3392 35.2173 38.3392 37.1876C38.3392 39.1579 39.9558 40.7779 41.9219 40.7779C43.888 40.7779 45.5046 39.1579 45.5046 37.1876C45.5046 35.2173 43.888 33.5973 41.9219 33.5973Z" fill="#FFFBDC"/>
<path d="M37.5091 43.3611C38.6014 43.3611 39.4752 44.2368 39.4752 45.3314C39.4752 46.426 38.6014 47.3017 37.5091 47.3017C36.4168 47.3017 35.543 46.426 35.543 45.3314C35.543 44.2368 36.4168 43.3611 37.5091 43.3611ZM37.5091 42.573C35.9799 42.573 34.7565 43.8208 34.7565 45.3314C34.7565 46.842 36.0017 48.0898 37.5091 48.0898C39.0164 48.0898 40.2617 46.842 40.2617 45.3314C40.2617 43.8208 39.0164 42.573 37.5091 42.573Z" fill="#FFFBDC"/>
<path d="M39.8029 21.2283C40.0432 22.0164 41.1792 22.3667 42.337 22.0164C43.4948 21.6661 44.2594 20.7467 44.041 19.9586C43.8007 19.1704 42.6647 18.8202 41.5069 19.1704C40.349 19.5207 39.5844 20.4402 39.8029 21.2283Z" fill="#FFFBDC"/>
<path d="M9.04412 23.2204C10.9665 23.2204 12.5176 24.7748 12.5176 26.7013C12.5176 28.6278 10.9665 30.1821 9.04412 30.1821C7.12169 30.1821 5.57065 28.6278 5.57065 26.7013C5.57065 24.7748 7.12169 23.2204 9.04412 23.2204ZM9.04412 21.8193C6.35709 21.8193 4.19437 24.0085 4.19437 26.6794C4.19437 29.3502 6.37894 31.5394 9.04412 31.5394C11.7093 31.5394 13.8939 29.3502 13.8939 26.6794C13.8939 24.0085 11.7093 21.8193 9.04412 21.8193Z" fill="#FFFBDC"/>
<path d="M12.2336 21.2283C11.9933 22.0164 10.8573 22.3667 9.69951 22.0164C8.54169 21.6661 7.77709 20.7467 7.99554 19.9586C8.23585 19.1704 9.37183 18.8202 10.5296 19.1704C11.6875 19.5207 12.4521 20.4402 12.2336 21.2283Z" fill="#FFFBDC"/>
<path d="M40.7641 32.3932C40.6767 33.2032 41.5943 33.9694 42.8176 34.1008C44.041 34.2321 45.0896 33.6629 45.1551 32.831C45.2425 32.021 44.325 31.2548 43.1016 31.1235C41.8783 30.9921 40.8297 31.5613 40.7641 32.3932Z" fill="#FFFBDC"/>
<path d="M37.8368 40.7341C37.4654 41.5003 38.0771 42.573 39.2131 43.1422C40.349 43.7114 41.5724 43.5363 41.9438 42.7701C42.3152 42.0038 41.7035 40.9311 40.5675 40.3619C39.4315 39.7927 38.2082 39.9679 37.8368 40.7341Z" fill="#FFFBDC"/>
<path d="M32.7904 46.3386C32.1787 46.864 32.3317 48.0243 33.0963 48.9218C33.8827 49.8194 34.9968 50.1259 35.6085 49.6005C36.2202 49.0751 36.0673 47.9148 35.3027 47.0172C34.5162 46.1197 33.4021 45.8132 32.7904 46.3386Z" fill="#FFFBDC"/>
<path d="M24.4891 43.4926C24.1614 43.9523 22.9162 43.9961 22.9162 43.9961C22.8725 44.9593 22.0423 45.3315 22.0423 45.3315C22.0423 45.3315 21.2122 44.9593 21.1685 43.9961C21.1685 43.9961 19.9233 43.9523 19.5956 43.4926C19.5956 43.4926 21.2122 43.405 21.2122 41.5223V22.1259L21.4088 22.0383V21.3816L21.103 21.5129C20.8408 20.068 19.5082 20.0023 19.5082 20.0023C19.8359 19.5426 21.103 19.4769 21.103 19.4769C21.1467 18.4918 21.9987 18.1196 21.9987 18.1196C21.9987 18.1196 22.8288 18.4918 22.8943 19.4769C22.8943 19.4769 24.1614 19.5207 24.4891 20.0023C24.4891 20.0023 22.8506 20.0899 22.8506 22.0164V41.5223C22.8506 41.9382 22.9162 42.2447 23.0472 42.5074C23.4623 43.4488 24.4672 43.4926 24.4672 43.4926" fill="#FFFBDC"/>
<path d="M19.5956 21.9945V39.6614L19.0276 39.4206L18.5688 39.2017V21.9945H19.5956Z" fill="#FFFBDC"/>
<path d="M19.3553 20.8123C19.3553 21.0969 19.2024 21.3158 18.9839 21.4691C18.8747 21.5348 18.7218 21.5785 18.5907 21.5785C18.1756 21.5785 17.8261 21.2283 17.8261 20.8123C17.8261 20.7466 17.8261 20.7029 17.8261 20.6591C17.848 20.5496 17.8916 20.4621 17.9572 20.3745C18.0883 20.1775 18.3067 20.068 18.5689 20.068C18.9839 20.068 19.3335 20.4183 19.3335 20.8342" fill="#FFFBDC"/>
<path d="M22.4355 42.0696C22.4355 42.0696 23.1783 42.9015 24.074 42.7702C24.9696 42.6388 26.1712 41.8726 25.1007 40.2526C24.0303 38.6325 21.8239 39.0485 21.8239 39.0485C21.8239 39.0485 18.1975 38.742 17.3455 40.4715C17.1489 40.8436 17.1489 41.3034 17.3455 41.6537C17.5203 41.9601 17.8261 42.1791 18.3504 41.8069C18.3504 41.8069 18.1756 41.8069 18.0227 41.6318C17.7606 41.3472 17.8261 40.9093 18.1538 40.6904C18.7873 40.2963 20.1199 39.5958 21.3869 39.8366C23.1564 40.1869 23.1783 39.9461 24.1395 41.3909C25.1007 42.8358 21.8676 42.5512 22.6322 40.8655L22.3918 42.0915L22.4355 42.0696Z" fill="#FFFBDC"/>
<path d="M29.6228 42.0696C29.6228 42.0696 28.88 42.9015 27.9844 42.7702C27.0887 42.6388 25.8872 41.8726 26.9576 40.2526C28.0281 38.6325 30.2345 39.0485 30.2345 39.0485C30.2345 39.0485 33.8609 38.742 34.7128 40.4715C34.9095 40.8436 34.9095 41.3034 34.7128 41.6537C34.5381 41.9601 34.2322 42.1791 33.7079 41.8069C33.7079 41.8069 33.8827 41.8069 34.0356 41.6318C34.2978 41.3472 34.2322 40.9093 33.9046 40.6904C33.271 40.2963 31.9384 39.5958 30.6714 39.8366C28.9019 40.1869 28.88 39.9461 27.9188 41.3909C26.9576 42.8358 30.1908 42.5512 29.4262 40.8655L29.6665 42.0915L29.6228 42.0696Z" fill="#FFFBDC"/>
<path d="M18.5907 21.5786C18.1756 21.5786 17.8261 21.2283 17.8261 20.8124C17.8261 20.7686 17.8261 20.7029 17.8261 20.6591C17.8916 20.5059 17.9572 20.3964 17.9572 20.3745L18.5689 21.097C18.6999 21.2502 18.831 21.3597 18.9621 21.4691C18.8529 21.5348 18.6999 21.5786 18.5689 21.5786" fill="#FFFBDC"/>
<path d="M19.5956 21.9945V22.4323C19.115 22.4323 18.831 22.3448 18.5688 22.2134V21.9945H19.5956Z" fill="#FFFBDC"/>
<path d="M18.3504 31.2987C18.3504 31.2987 18.3723 31.2987 18.3941 31.2987L22.7414 31.7803C22.7414 31.7803 22.7851 31.7803 22.8069 31.7803C23.1783 31.7365 26.6955 31.3425 27.0887 32.6341C27.0887 32.6779 27.0887 32.7217 27.0887 32.7655C27.045 32.8968 26.8702 33.1157 26.2586 33.0938C25.6906 33.072 25.5377 32.6779 25.494 32.4371C25.494 32.3057 25.3629 32.2182 25.2318 32.2182C25.0789 32.2182 24.9478 32.3714 24.9697 32.5028C25.0352 32.853 25.21 33.466 25.6469 33.6193C26.2804 33.8163 27.6348 33.9914 27.6348 32.8311C27.6348 31.6709 26.4333 31.2768 26.4333 31.2768L25.7561 31.0798C25.7561 31.0798 25.7124 31.0798 25.6906 31.0798C25.1881 31.0798 19.7485 30.9703 18.1975 30.2698C16.5809 29.5473 18.0446 28.6716 20.3384 29.3722C22.6322 30.0727 24.5764 30.839 26.1275 29.5473L25.6469 29.1752C25.4066 29.416 25.0134 29.5473 24.7731 29.6349C24.7075 29.6349 24.6857 29.6568 24.6638 29.6787C24.5983 29.6787 24.5764 29.6787 24.4454 29.7006C24.358 29.7006 24.2706 29.7006 24.1832 29.7006C24.1832 29.7006 24.1614 29.7006 24.1395 29.7006C24.1395 29.7006 24.0958 29.7006 24.074 29.7006C24.0303 29.7006 23.9866 29.7006 23.9648 29.7006C22.5011 29.4598 19.4209 28.5403 19.0058 28.4089C18.9621 28.4089 18.9402 28.4089 18.8966 28.4089C18.547 28.4308 16.6683 28.6497 16.5591 29.9633C16.428 31.3425 18.2193 31.3425 18.4378 31.3425" fill="#FFFBDC"/>
<path d="M21.4307 21.3158V21.9944L21.1904 22.082L20.9282 22.1696C20.3602 22.3228 19.9452 22.4104 19.5956 22.4104V21.9944H18.5689V22.1915C18.3286 22.0601 18.1538 21.9069 17.9354 21.7536C17.564 21.4909 17.6732 20.9655 17.8043 20.6152C17.8043 20.659 17.8043 20.7247 17.8043 20.7685C17.8043 21.1844 18.1538 21.5347 18.5907 21.5347C18.7436 21.5347 18.8747 21.4909 19.0058 21.4252C19.9015 22.0163 20.9282 21.5347 20.9282 21.5347L21.1467 21.4471L21.4525 21.3158H21.4307Z" fill="#FFFBDC"/>
<path d="M27.7222 43.4926C28.0499 43.9523 29.2951 43.9961 29.2951 43.9961C29.3388 44.9593 30.169 45.3315 30.169 45.3315C30.169 45.3315 30.9991 44.9593 31.0428 43.9961C31.0428 43.9961 32.288 43.9523 32.6157 43.4926C32.6157 43.4926 30.9991 43.405 30.9991 41.5223V22.1259L30.8025 22.0383V21.3816L31.1083 21.5129C31.3705 20.068 32.7031 20.0023 32.7031 20.0023C32.3754 19.5426 31.1083 19.4769 31.1083 19.4769C31.0646 18.4918 30.2126 18.1196 30.2126 18.1196C30.2126 18.1196 29.3825 18.4918 29.317 19.4769C29.317 19.4769 28.0499 19.5207 27.7222 20.0023C27.7222 20.0023 29.3607 20.0899 29.3607 22.0164V41.5223C29.3607 41.9382 29.2951 42.2447 29.164 42.5074C28.749 43.4488 27.7441 43.4926 27.7441 43.4926" fill="#FFFBDC"/>
<path d="M32.4191 21.9945V39.6614L33.0307 39.4206L33.424 39.2017V21.9945H32.4191Z" fill="#FFFBDC"/>
<path d="M32.703 20.8123C32.703 21.0969 32.856 21.3158 33.0744 21.4691C33.1836 21.5348 33.3366 21.5785 33.4676 21.5785C33.8827 21.5785 34.2322 21.2283 34.2322 20.8123C34.2322 20.7466 34.2322 20.7029 34.2322 20.6591C34.2104 20.5496 34.1667 20.4621 34.1012 20.3745C33.9701 20.1775 33.7516 20.068 33.4895 20.068C33.0744 20.068 32.7249 20.4183 32.7249 20.8342" fill="#FFFBDC"/>
<path d="M33.4677 21.5786C33.8827 21.5786 34.2323 21.2283 34.2323 20.8124C34.2323 20.7686 34.2323 20.7029 34.2323 20.6591C34.1667 20.5059 34.1012 20.3964 34.1012 20.3745L33.4895 21.097C33.3584 21.2502 33.2274 21.3597 33.0963 21.4691C33.2055 21.5348 33.3584 21.5786 33.4895 21.5786" fill="#FFFBDC"/>
<path d="M32.4191 21.9945V22.4323C32.9652 22.4323 33.2492 22.3448 33.4458 22.2134V21.9945H32.4191Z" fill="#FFFBDC"/>
<path d="M33.7298 31.2987C33.7298 31.2987 33.7079 31.2987 33.6861 31.2987L29.3388 31.7803C29.3388 31.7803 29.2951 31.7803 29.2732 31.7803C28.9019 31.7365 25.3847 31.3425 24.9915 32.6341C24.9915 32.6779 24.9915 32.7217 24.9915 32.7655C25.0352 32.8968 25.2099 33.1157 25.8216 33.0938C26.3896 33.072 26.5425 32.6779 26.5862 32.4371C26.5862 32.3057 26.7173 32.2182 26.8484 32.2182C27.0013 32.2182 27.1324 32.3714 27.1105 32.5028C27.045 32.853 26.8702 33.466 26.4333 33.6193C25.7998 33.8163 24.4453 33.9914 24.4453 32.8311C24.4453 31.6709 25.6469 31.2768 25.6469 31.2768L26.3241 31.0798C26.3241 31.0798 26.3678 31.0798 26.3896 31.0798C26.8921 31.0798 32.3316 30.9703 33.8827 30.2698C35.4993 29.5473 34.0356 28.6716 31.7418 29.3722C29.448 30.0727 27.5037 30.839 25.9527 29.5473L26.4333 29.1752C26.6736 29.416 27.0668 29.5473 27.3071 29.6349C27.3727 29.6349 27.3945 29.6568 27.4164 29.6787C27.4819 29.6787 27.5037 29.6787 27.6348 29.7006C27.7222 29.7006 27.8096 29.7006 27.897 29.7006C27.897 29.7006 27.9188 29.7006 27.9407 29.7006C27.9407 29.7006 27.9843 29.7006 28.0062 29.7006C28.0499 29.7006 28.0936 29.7006 28.1154 29.7006C29.5791 29.4598 32.6593 28.5403 33.0744 28.4089C33.1181 28.4089 33.1399 28.4089 33.1836 28.4089C33.5332 28.4308 35.4119 28.6497 35.5211 29.9633C35.6522 31.3425 33.8608 31.3425 33.6424 31.3425" fill="#FFFBDC"/>
<path d="M30.584 21.3158V21.9944L30.868 22.082L31.152 22.1696C31.7637 22.3228 32.2443 22.4104 32.6157 22.4104V21.9944H33.424V22.1915C33.6643 22.0601 33.839 21.9069 34.0575 21.7536C34.4289 21.4909 34.3196 20.9655 34.1885 20.6152C34.1885 20.659 34.1885 20.7247 34.1885 20.7685C34.1885 21.1844 33.839 21.5347 33.4021 21.5347C33.2492 21.5347 33.1181 21.4909 32.987 21.4252C32.0914 22.0163 31.0646 21.5347 31.0646 21.5347L30.8462 21.4471L30.5403 21.3158H30.584Z" fill="#FFFBDC"/>
<path d="M26.062 47.7615C19.3116 47.7615 13.8065 40.3181 13.8065 31.1891C13.8065 22.0601 19.3116 14.6168 26.062 14.6168C32.8123 14.6168 38.3174 22.0601 38.3174 31.1891C38.3174 40.3181 32.8123 47.7615 26.062 47.7615ZM26.062 15.0984C19.5738 15.0984 14.2871 22.3228 14.2871 31.1891C14.2871 40.0554 19.5738 47.2798 26.062 47.2798C32.5501 47.2798 37.8368 40.0554 37.8368 31.1891C37.8368 22.3228 32.5501 15.0984 26.062 15.0984Z" fill="#FFFBDC"/>
<path d="M26.0619 46.9515C19.6611 46.9515 14.44 39.8804 14.44 31.1892C14.44 22.498 19.6611 15.4269 26.0619 15.4269C32.4627 15.4269 37.6838 22.498 37.6838 31.1892C37.6838 39.8804 32.4627 46.9515 26.0619 46.9515ZM26.0619 15.6677C19.7704 15.6677 14.6803 22.6294 14.6803 31.1892C14.6803 39.749 19.7922 46.7107 26.0619 46.7107C32.3316 46.7107 37.4435 39.749 37.4435 31.1892C37.4435 22.6294 32.3316 15.6677 26.0619 15.6677Z" fill="#FFFBDC"/>
<path d="M27.5256 12.6028C27.5256 13.4347 26.8484 14.0915 26.0401 14.0915C25.2318 14.0915 24.5546 13.4128 24.5546 12.6028C24.5546 11.7928 25.2318 11.1141 26.0401 11.1141C26.8484 11.1141 27.5256 11.7928 27.5256 12.6028Z" fill="#FFFBDC"/>
<path d="M20.535 53.7599C20.9064 53.6723 21.5617 53.4753 22.0205 52.9718C21.5617 53.344 21.0374 53.6067 20.535 53.7599Z" fill="#FFFBDC"/>
<path d="M30.0379 52.9718C30.4748 53.4753 31.1302 53.6723 31.5234 53.7599C31.0209 53.6067 30.4966 53.344 30.0379 52.9718Z" fill="#FFFBDC"/>
<path d="M0.830147 20.265V20.0461C0.76461 18.1634 2.00982 16.1055 3.18948 15.2955C3.91039 14.792 4.56576 14.792 4.98083 15.2955C5.48328 15.8866 5.6362 16.3901 5.50513 16.806C5.35221 17.3096 4.76238 17.6598 3.67009 17.9225C2.14089 18.2947 1.92243 19.455 1.90059 19.4988V19.5426L1.83505 19.5863L0.830147 20.2869V20.265ZM4.19439 15.1422C3.8667 15.1422 3.53902 15.3393 3.32056 15.4925C2.25012 16.2368 1.11414 18.0758 1.07045 19.8053L1.68213 19.3674C1.74767 19.1047 2.0972 18.032 3.60455 17.6598C4.58761 17.419 5.13375 17.1125 5.26483 16.6966C5.37406 16.3682 5.22114 15.9304 4.78422 15.4268C4.60946 15.2298 4.41284 15.1422 4.21623 15.1422" fill="#FFFBDC"/>
<path d="M0.349521 24.6872L0.305829 24.4683C-0.0655482 22.7388 0.720898 20.6809 1.61657 19.6301C2.29379 18.842 3.0147 18.6231 3.56084 19.039C4.04145 19.4331 4.3036 19.8053 4.34729 20.1555C4.36913 20.3963 4.3036 20.6153 4.17252 20.8123C3.93222 21.1626 3.47346 21.4909 2.7307 21.8193C2.09718 22.1039 1.66026 22.5418 1.41996 23.0672C1.26704 23.4175 1.26704 23.6802 1.26704 23.6802V23.7239L0.349521 24.6653V24.6872ZM2.94916 19.0609C2.46856 19.0609 2.0098 19.5207 1.79134 19.7834C0.961201 20.7466 0.262138 22.6074 0.502441 24.2056L1.02674 23.6583C1.02674 23.6583 1.07043 23.308 1.2015 23.0015C1.37627 22.5856 1.76949 22.0164 2.64332 21.6223C3.34238 21.2939 3.7793 21.0093 3.97591 20.7028C4.08514 20.5496 4.12883 20.3745 4.10698 20.1993C4.06329 19.8928 3.82299 19.5863 3.40792 19.2361C3.255 19.1266 3.10208 19.0609 2.94916 19.0609Z" fill="#FFFBDC"/>
<path d="M0.939363 27.7303L0.85198 27.5332C0.502448 26.8108 0.39322 25.8694 0.524294 24.9062C0.633523 24.0086 0.961208 23.2205 1.37628 22.8046C1.70396 22.4762 2.07534 22.3886 2.42487 22.5637C2.99286 22.8264 3.27685 23.1329 3.32055 23.5051C3.36424 23.9429 3.03655 24.4027 2.31564 24.9938C1.31074 25.7819 1.50735 26.7013 1.50735 26.7232V26.767L0.939363 27.7303ZM2.05349 22.717C1.87873 22.717 1.70396 22.8046 1.5292 22.9797C0.786442 23.724 0.415065 25.76 0.961208 27.2049L1.2452 26.7232C1.20151 26.5043 1.13597 25.5848 2.14088 24.7967C2.79625 24.2713 3.10209 23.8554 3.0584 23.527C3.03655 23.2643 2.7744 23.0235 2.2938 22.7827C2.20641 22.7389 2.11903 22.717 2.03165 22.717" fill="#FFFBDC"/>
<path d="M1.35444 31.5832L1.24521 31.3862C0.458764 29.8538 0.720912 27.6427 1.48551 26.8983C1.76951 26.6137 2.11904 26.5699 2.44672 26.7451C3.01471 27.0516 3.29871 27.3799 3.3424 27.7302C3.38609 28.1243 3.1021 28.5402 2.46857 29.0438C1.59474 29.7224 1.83504 30.5981 1.83504 30.6419V30.6857L1.35444 31.6051V31.5832ZM2.0535 26.8764C1.92243 26.8764 1.79135 26.9421 1.66028 27.0735C1.00491 27.7083 0.786449 29.6567 1.37628 31.0578L1.59474 30.6419C1.55105 30.423 1.41998 29.5473 2.31565 28.8467C2.86179 28.4089 3.12394 28.0586 3.08025 27.7521C3.0584 27.4894 2.79626 27.2048 2.31565 26.9421C2.22827 26.8983 2.14088 26.8764 2.03166 26.8764" fill="#FFFBDC"/>
<path d="M2.22828 35.2173L2.0972 35.0422C1.04861 33.6849 0.895689 31.4519 1.50737 30.5981C1.72583 30.2697 2.05351 30.1602 2.42489 30.2697C3.03657 30.4667 3.3861 30.7294 3.47348 31.0797C3.58271 31.4738 3.3861 31.9335 2.8618 32.5246C2.11905 33.3565 2.51227 34.1665 2.53412 34.2103V34.254L2.25012 35.2392L2.22828 35.2173ZM2.1409 30.4448C1.96613 30.4448 1.81321 30.5324 1.70398 30.7075C1.17968 31.4519 1.31076 33.4003 2.16274 34.67L2.29382 34.2322C2.20643 34.0132 1.92244 33.1813 2.66519 32.3275C3.12395 31.8021 3.29872 31.4081 3.23318 31.1235C3.16764 30.8608 2.8618 30.6419 2.33751 30.4886C2.27197 30.4886 2.20643 30.4667 2.1409 30.4667" fill="#FFFBDC"/>
<path d="M3.29871 38.5011L3.16764 38.326C2.11904 36.9687 1.96612 34.7357 2.5778 33.8819C2.79626 33.5535 3.12395 33.444 3.49532 33.5535C4.107 33.7505 4.45654 34.0132 4.54392 34.3635C4.65315 34.7576 4.45654 35.2173 3.93224 35.8084C3.18948 36.6403 3.58271 37.4503 3.60455 37.4941V37.5379L3.32056 38.523L3.29871 38.5011ZM3.21133 33.7286C3.03656 33.7286 2.88364 33.8162 2.77442 33.9913C2.25012 34.7357 2.38119 36.6841 3.23318 37.9538L3.36425 37.516C3.27687 37.2971 2.99287 36.4651 3.73563 35.6114C4.19439 35.0859 4.36915 34.6919 4.30362 34.4073C4.23808 34.1446 3.93224 33.9257 3.40794 33.7724C3.3424 33.7724 3.27687 33.7505 3.21133 33.7505" fill="#FFFBDC"/>
<path d="M4.54392 41.3909L4.391 41.2158C3.32056 39.8804 3.1021 37.7568 3.67009 36.9468C3.88855 36.6403 4.19439 36.5528 4.54392 36.6622C5.1556 36.8811 5.50513 37.1438 5.59251 37.4941C5.6799 37.8663 5.50513 38.2822 5.04637 38.8076C4.36915 39.5739 4.78422 40.3839 4.80607 40.3839V40.4277L4.56576 41.369L4.54392 41.3909ZM4.25992 36.8592C4.107 36.8592 3.97593 36.9249 3.8667 37.0782C3.3861 37.7568 3.56086 39.6176 4.43469 40.8655L4.54392 40.4714C4.45654 40.2744 4.1507 39.4425 4.84976 38.6763C5.26483 38.2166 5.41775 37.8444 5.35221 37.5817C5.28667 37.319 4.98083 37.1001 4.45654 36.903C4.391 36.8811 4.32546 36.8592 4.25992 36.8592Z" fill="#FFFBDC"/>
<path d="M5.98572 44.1493L5.8328 43.9742C4.76236 42.6388 4.5439 40.5152 5.11189 39.7052C5.33035 39.3987 5.63619 39.3112 5.98572 39.4206C6.5974 39.6396 6.94693 39.9023 7.03432 40.2525C7.1217 40.6247 6.94693 41.0407 6.48817 41.5661C5.81096 42.3323 6.22602 43.0985 6.24787 43.1423V43.1861L5.98572 44.1274V44.1493ZM5.70173 39.6177C5.54881 39.6177 5.41773 39.6833 5.3085 39.8366C4.8279 40.5152 5.00266 42.3761 5.87649 43.6239L5.98572 43.2299C5.89834 43.0328 5.5925 42.2009 6.29156 41.4347C6.70663 40.975 6.85955 40.6028 6.79401 40.3401C6.72848 40.0774 6.42264 39.8585 5.89834 39.6615C5.8328 39.6396 5.76726 39.6177 5.70173 39.6177Z" fill="#FFFBDC"/>
<path d="M7.38385 46.5574L7.23093 46.3823C6.18234 45.0687 5.92019 43.0328 6.46633 42.2884C6.66294 42.0038 6.96878 41.9163 7.29647 42.0476C7.90815 42.2666 8.23583 42.5511 8.32322 42.8795C8.4106 43.2298 8.25768 43.6239 7.82077 44.1274C7.18724 44.8279 7.60231 45.5941 7.60231 45.616V45.6598L7.38385 46.5793V46.5574ZM7.01247 42.2228C6.8814 42.2228 6.75032 42.2884 6.66294 42.4198C6.20418 43.0547 6.42264 44.8279 7.27462 46.032L7.362 45.6817C7.27462 45.4847 6.96878 44.6966 7.62415 43.9522C7.99553 43.5363 8.14845 43.186 8.08291 42.9233C8.01738 42.6606 7.73338 42.4417 7.20908 42.2447C7.14355 42.2228 7.07801 42.2009 7.01247 42.2009" fill="#FFFBDC"/>
<path d="M9.63394 48.9874L9.43733 48.8561C8.06105 47.8928 7.27461 45.9882 7.58045 45.1125C7.68968 44.7842 7.95182 44.6309 8.3232 44.6528C8.95673 44.6966 9.34995 44.8717 9.54656 45.1782C9.72133 45.4847 9.67764 45.9226 9.39364 46.5136C8.97857 47.3674 9.56841 47.9804 9.59025 48.0023L9.63394 48.0461V48.9874ZM8.30136 44.8936C8.0829 44.8936 7.92998 45.0031 7.86444 45.2001C7.60229 45.9444 8.27951 47.5864 9.43733 48.5058V48.1337C9.28441 47.9585 8.80381 47.2799 9.21888 46.4042C9.45918 45.9007 9.52472 45.5285 9.39364 45.2877C9.26257 45.0469 8.91304 44.9155 8.36689 44.8717C8.36689 44.8717 8.3232 44.8717 8.30136 44.8717" fill="#FFFBDC"/>
<path d="M11.8622 50.8264L11.6438 50.7389C10.1146 50.0602 8.95675 48.3526 9.10967 47.4332C9.15336 47.0829 9.39367 46.8859 9.7432 46.8421C10.3767 46.7545 10.8136 46.8421 11.0321 47.1267C11.2724 47.3894 11.2942 47.8272 11.1413 48.4621C10.901 49.3816 11.6219 49.8851 11.6219 49.8851H11.6656L11.8622 50.8483V50.8264ZM10.1364 47.0391C10.0272 47.0391 9.89612 47.0391 9.76504 47.061C9.52474 47.0829 9.37182 47.2142 9.34998 47.4551C9.24075 48.2213 10.2238 49.7099 11.5345 50.3886L11.469 50.0164C11.2942 49.8851 10.6826 49.3159 10.9229 48.3526C11.0539 47.8053 11.0539 47.4332 10.8792 47.2361C10.7481 47.0829 10.5078 47.0172 10.1801 47.0172" fill="#FFFBDC"/>
<path d="M13.0419 51.6145L12.8234 51.5269C11.8185 51.0672 11.0539 49.9507 11.1413 49.3377C11.185 49.0969 11.3379 48.9437 11.5782 48.9218C12.0152 48.878 12.2992 48.9218 12.4521 49.1188C12.6268 49.3158 12.6487 49.6004 12.5395 50.0164C12.3865 50.5856 12.8234 50.8702 12.8453 50.8921H12.889L13.0419 51.6145ZM11.8622 49.1407C11.8622 49.1407 11.7093 49.1407 11.6219 49.1407C11.4909 49.1407 11.4035 49.2283 11.3816 49.3596C11.3161 49.7756 11.8622 50.695 12.6924 51.1767V51.0453C12.4521 50.8921 12.1681 50.498 12.2992 49.9288C12.3865 49.5785 12.3865 49.3596 12.2773 49.2501C12.1899 49.1626 12.0588 49.1188 11.8622 49.1188" fill="#FFFBDC"/>
<path d="M14.6366 52.8186L14.4182 52.731C13.4133 52.2713 12.6487 51.1548 12.7361 50.5418C12.7797 50.301 12.9327 50.1478 13.173 50.1259C13.6099 50.0821 13.8939 50.1259 14.0468 50.3229C14.2216 50.5199 14.2434 50.8045 14.1342 51.2205C13.9813 51.7897 14.44 52.0962 14.44 52.0962H14.4837L14.6366 52.8186ZM13.457 50.3448C13.457 50.3448 13.304 50.3448 13.2167 50.3448C13.0856 50.3448 12.9982 50.4324 12.9764 50.5637C12.9108 50.9797 13.457 51.8991 14.2871 52.3808V52.2494C14.0468 52.0962 13.7628 51.7021 13.8939 51.1329C13.9813 50.7826 13.9813 50.5637 13.872 50.4543C13.7846 50.3667 13.6536 50.3229 13.457 50.3229" fill="#FFFBDC"/>
<path d="M16.712 53.6286L16.4935 53.5191C15.7071 53.1469 15.1172 52.2056 15.1828 51.6802C15.2046 51.4612 15.3575 51.3299 15.5541 51.2861C15.9037 51.2423 16.1221 51.2861 16.2532 51.4394C16.4498 51.6583 16.3843 51.9867 16.3187 52.2494C16.1877 52.731 16.5154 52.9499 16.5372 52.9718H16.5809L16.6901 53.6286H16.712ZM15.8163 51.5269C15.8163 51.5269 15.6852 51.5269 15.6197 51.5269C15.5105 51.5269 15.4668 51.5926 15.4449 51.7021C15.4012 52.0523 15.7945 52.7748 16.4061 53.1688V53.1032C16.2751 52.9937 15.9911 52.6872 16.1221 52.1618C16.1877 51.8772 16.1877 51.6802 16.1221 51.5926C16.0784 51.5269 15.9692 51.505 15.8381 51.505" fill="#FFFBDC"/>
<path d="M4.54391 15.9304C4.65313 16.215 4.34729 16.5872 3.84484 16.7842C3.36424 16.9813 2.86179 16.8937 2.7744 16.6091C2.66517 16.3245 2.97101 15.9523 3.47347 15.7553C3.95407 15.5583 4.45652 15.6458 4.54391 15.9304Z" fill="#FFFBDC"/>
<path d="M3.21132 19.6083C3.2987 19.8491 3.10209 20.1337 2.7744 20.265C2.44672 20.3964 2.09719 20.3088 2.0098 20.068C1.92242 19.8272 2.11903 19.5426 2.44672 19.4112C2.7744 19.2799 3.12394 19.3674 3.21132 19.6083Z" fill="#FFFBDC"/>
<path d="M2.44672 23.1767C2.53411 23.3956 2.35934 23.6583 2.07535 23.7678C1.79135 23.8772 1.48551 23.7678 1.39813 23.5707C1.31075 23.3518 1.48551 23.0891 1.76951 22.9797C2.0535 22.8702 2.35934 22.9797 2.44672 23.1767Z" fill="#FFFBDC"/>
<path d="M2.44672 27.5113C2.53411 27.7302 2.35934 27.9929 2.07535 28.1024C1.79135 28.2118 1.48551 28.1024 1.39813 27.9053C1.31075 27.6864 1.48551 27.4237 1.76951 27.3142C2.0535 27.2048 2.35934 27.3142 2.44672 27.5113Z" fill="#FFFBDC"/>
<path d="M3.823 34.4292C3.93223 34.7138 3.77931 35.0422 3.49531 35.1516C3.21132 35.2611 2.88363 35.1078 2.77441 34.8232C2.66518 34.5386 2.8181 34.2103 3.10209 34.1008C3.38609 33.9913 3.71377 34.1446 3.823 34.4292Z" fill="#FFFBDC"/>
<path d="M5.02451 37.6036C5.13374 37.8882 4.98082 38.2166 4.69682 38.3261C4.41283 38.4355 4.08514 38.2823 3.97591 37.9977C3.86668 37.7131 4.0196 37.3847 4.3036 37.2752C4.58759 37.1658 4.91528 37.319 5.02451 37.6036Z" fill="#FFFBDC"/>
<path d="M6.1605 40.6027C6.26972 40.8873 6.18234 41.1938 5.96389 41.2814C5.74543 41.3689 5.48328 41.1938 5.37405 40.9092C5.26482 40.6246 5.3522 40.3181 5.57066 40.2305C5.78912 40.143 6.05127 40.3181 6.1605 40.6027Z" fill="#FFFBDC"/>
<path d="M7.34015 43.0984C7.44938 43.383 7.362 43.6895 7.14354 43.7771C6.92508 43.8647 6.66294 43.6895 6.55371 43.4049C6.44448 43.1203 6.53186 42.8138 6.75032 42.7263C6.96878 42.6387 7.23092 42.8138 7.34015 43.0984Z" fill="#FFFBDC"/>
<path d="M2.92734 31.014C3.03657 31.2986 2.88365 31.627 2.59965 31.7365C2.31566 31.8459 1.98797 31.6927 1.87875 31.4081C1.76952 31.1235 1.92244 30.7951 2.20643 30.6856C2.49043 30.5762 2.81811 30.7294 2.92734 31.014Z" fill="#FFFBDC"/>
<path d="M8.95673 45.441C9.06596 45.7256 8.97858 46.0321 8.76012 46.1196C8.54166 46.2072 8.27951 46.0321 8.17028 45.7475C8.06106 45.4629 8.14844 45.1564 8.3669 45.0688C8.58535 44.9812 8.8475 45.1564 8.95673 45.441Z" fill="#FFFBDC"/>
<path d="M10.5515 47.9804C10.5078 48.2869 10.2675 48.5058 10.049 48.462C9.83056 48.4183 9.67765 48.1337 9.74318 47.8272C9.78687 47.5207 10.0272 47.3018 10.2456 47.3455C10.4641 47.3893 10.617 47.6739 10.5515 47.9804Z" fill="#FFFBDC"/>
<path d="M13.8502 51.0672C13.8283 51.2423 13.6973 51.3518 13.5662 51.3299C13.4351 51.308 13.3477 51.1547 13.3914 50.9796C13.4133 50.8045 13.5444 50.695 13.6754 50.7169C13.8065 50.7388 13.8939 50.892 13.8502 51.0672Z" fill="#FFFBDC"/>
<path d="M15.8381 51.7021C15.8381 51.7021 15.9911 51.8334 15.9692 51.9648C15.9474 52.0961 15.86 52.1837 15.7508 52.1618C15.6634 52.1618 15.5978 52.0305 15.6197 51.8991C15.6415 51.7678 15.7289 51.6802 15.8381 51.7021Z" fill="#FFFBDC"/>
<path d="M12.1462 49.8413C12.1025 50.0383 11.9715 50.1696 11.8185 50.1477C11.6875 50.1259 11.5782 49.9507 11.6219 49.7537C11.6656 49.5567 11.7967 49.4253 11.9496 49.4472C12.0807 49.4691 12.1899 49.6442 12.1462 49.8413Z" fill="#FFFBDC"/>
<path d="M2.2938 16.5653C2.2938 16.5653 2.22826 16.5215 2.20641 16.4559C2.20641 16.3683 2.14088 16.1713 3.34239 14.9453C4.67498 13.588 7.31831 13.2815 7.42754 13.2815V13.5004C7.42754 13.5004 4.78421 13.8069 3.51716 15.0985C2.49041 16.1494 2.44672 16.3902 2.44672 16.4121C2.44672 16.4121 2.44672 16.3464 2.38118 16.3464L2.2938 16.5653Z" fill="#FFFBDC"/>
<path d="M51.2719 20.2651L50.2015 19.4989V19.4551C50.2015 19.4551 49.9612 18.251 48.432 17.8789C47.3397 17.6161 46.7717 17.2659 46.5969 16.7624C46.4658 16.3464 46.6406 15.8429 47.1212 15.2518C47.5363 14.7483 48.1916 14.7702 48.9126 15.2518C50.0922 16.0618 51.3156 18.1197 51.2719 20.0024V20.2213V20.2651ZM50.4199 19.3675L51.0316 19.8054C50.9879 18.0759 49.8519 16.2369 48.7815 15.4926C48.432 15.2518 47.7547 14.9015 47.3178 15.4269C46.8809 15.9523 46.728 16.3683 46.8372 16.6967C46.9683 17.0907 47.5144 17.4191 48.4975 17.6599C50.0267 18.0321 50.3762 19.1267 50.4199 19.3675Z" fill="#FFFBDC"/>
<path d="M51.8617 24.6872L50.9442 23.7458V23.7021C50.9442 23.7021 50.9442 23.4394 50.7913 23.0891C50.551 22.5418 50.1141 22.1258 49.4806 21.8412C48.7378 21.5129 48.279 21.1626 48.0387 20.8342C47.8858 20.6153 47.8421 20.3964 47.864 20.1774C47.9077 19.8053 48.1698 19.4331 48.6504 19.039C49.1966 18.6012 49.9175 18.8201 50.5947 19.6301C51.5122 20.7028 52.2768 22.7607 51.9054 24.4902L51.8617 24.7091V24.6872ZM51.0535 23.6364L51.5778 24.1837C51.8181 22.5856 51.0971 20.7466 50.2889 19.7615C50.0049 19.4331 49.284 18.7107 48.6723 19.2142C48.2354 19.5645 48.0169 19.8709 47.9732 20.1555C47.9732 20.3307 47.9951 20.4839 48.1043 20.6591C48.3227 20.9655 48.7597 21.272 49.4369 21.5785C50.2889 21.9726 50.7039 22.5418 50.8787 22.9577C51.0098 23.2642 51.0535 23.505 51.0535 23.6145" fill="#FFFBDC"/>
<path d="M51.1845 27.7303L50.6165 26.767V26.7232C50.6165 26.7232 50.835 25.7819 49.8301 24.9938C49.0873 24.4027 48.7597 23.9429 48.8252 23.5051C48.8689 23.1548 49.1529 22.8483 49.7209 22.5637C50.0704 22.3886 50.4418 22.4762 50.7695 22.8046C51.1845 23.2205 51.4904 24.0086 51.6214 24.9062C51.7525 25.8694 51.6214 26.8108 51.2938 27.5332L51.2064 27.7303H51.1845ZM50.8787 26.7232L51.1627 27.2049C51.7307 25.76 51.3375 23.724 50.5947 22.9797C50.3325 22.717 50.0704 22.6513 49.8083 22.7827C49.3276 23.0016 49.0873 23.2643 49.0437 23.527C49 23.8554 49.3058 24.2713 49.9612 24.7967C50.9661 25.5848 50.9005 26.5043 50.8568 26.7232" fill="#FFFBDC"/>
<path d="M50.7695 31.5833L50.2889 30.6638V30.62C50.2889 30.62 50.551 29.7224 49.6772 29.0219C49.0437 28.5403 48.7815 28.1243 48.8033 27.7084C48.8252 27.3362 49.131 27.0297 49.699 26.7232C50.0267 26.5481 50.3762 26.5919 50.6602 26.8765C51.4248 27.6208 51.6651 29.8319 50.9005 31.3644L50.7913 31.5614L50.7695 31.5833ZM50.5292 30.6419L50.7476 31.0579C51.3375 29.6568 51.119 27.7084 50.4636 27.0735C50.2452 26.8765 50.0267 26.8327 49.7864 26.964C49.3058 27.2267 49.0437 27.4895 49.0218 27.774C49 28.0805 49.2403 28.4308 49.7864 28.8687C50.6821 29.5692 50.551 30.4449 50.5073 30.6638" fill="#FFFBDC"/>
<path d="M49.8738 35.2173L49.5679 34.2322V34.1884C49.5679 34.1884 50.0048 33.3565 49.2621 32.5027C48.7378 31.9116 48.5412 31.4519 48.6504 31.0578C48.7378 30.7076 49.0873 30.4449 49.699 30.2478C50.0704 30.1384 50.3762 30.2478 50.6165 30.5762C51.2282 31.4519 51.0753 33.663 50.0267 35.0203L49.8956 35.1954L49.8738 35.2173ZM49.8301 34.2541L49.9612 34.6919C50.8131 33.4222 50.9224 31.4738 50.4199 30.7295C50.2451 30.4886 50.0485 30.4011 49.7864 30.4886C49.2621 30.6638 48.9562 30.8608 48.8907 31.1235C48.8033 31.4081 48.9999 31.8241 49.4587 32.3276C50.2015 33.1814 49.9393 34.0133 49.8301 34.2322" fill="#FFFBDC"/>
<path d="M48.8252 38.5012L48.5193 37.516V37.4722C48.5193 37.4722 48.9563 36.6184 48.2135 35.7865C47.6892 35.1954 47.4926 34.7357 47.6018 34.3417C47.6892 33.9914 48.0387 33.7287 48.6504 33.5316C49.0218 33.4222 49.3276 33.5316 49.5679 33.86C50.1796 34.7357 50.0267 36.9468 48.9781 38.3041L48.847 38.4793L48.8252 38.5012ZM48.7815 37.5379L48.9126 37.9757C49.7646 36.706 49.8738 34.7576 49.3713 34.0133C49.1966 33.7725 49 33.6849 48.7378 33.7725C48.2135 33.9476 47.9077 34.1446 47.8421 34.4073C47.7547 34.6919 47.9514 35.1079 48.4101 35.6114C49.1529 36.4652 48.8907 37.2971 48.7815 37.516" fill="#FFFBDC"/>
<path d="M47.5581 41.3909L47.2741 40.4495V40.4057C47.2741 40.4057 47.711 39.5957 47.0557 38.8295C46.5751 38.2822 46.4003 37.8662 46.5095 37.516C46.5969 37.1657 46.9464 36.8811 47.5581 36.6841C47.9077 36.5527 48.2135 36.6622 48.432 36.9687C48.9999 37.7787 48.7815 39.9022 47.711 41.2376L47.5581 41.4127V41.3909ZM47.5581 40.4714L47.6674 40.8654C48.5193 39.6176 48.716 37.7568 48.2353 37.0781C48.0824 36.8592 47.8858 36.8154 47.6455 36.903C47.1212 37.0781 46.8154 37.3189 46.7498 37.5816C46.6843 37.8662 46.8372 38.2165 47.2523 38.6762C47.9295 39.4643 47.6455 40.2744 47.5581 40.4714Z" fill="#FFFBDC"/>
<path d="M46.1381 44.1493L45.8542 43.2079V43.1641C45.8542 43.1641 46.2911 42.3541 45.6357 41.5879C45.1551 41.0406 44.9803 40.6246 45.0896 40.2744C45.1769 39.9241 45.5265 39.6395 46.1381 39.4425C46.4877 39.3111 46.7935 39.4206 47.012 39.7271C47.58 40.5371 47.3615 42.6606 46.2911 43.996L46.1381 44.1712V44.1493ZM46.1381 43.2298L46.2474 43.6239C47.0994 42.376 47.296 40.5152 46.8154 39.8365C46.6624 39.6176 46.4658 39.5738 46.2255 39.6614C45.7012 39.8365 45.3954 40.0773 45.3299 40.3401C45.2643 40.6246 45.4172 40.9749 45.8323 41.4347C46.5095 42.2228 46.2255 43.0328 46.1381 43.2298Z" fill="#FFFBDC"/>
<path d="M44.74 46.5574L44.4997 45.638V45.5942C44.4997 45.5942 44.9366 44.8061 44.325 44.1055C43.888 43.602 43.7133 43.208 43.8225 42.8577C43.9099 42.5074 44.2376 42.2447 44.8492 42.0258C45.1769 41.8944 45.4828 41.982 45.6794 42.2666C46.2255 43.0109 45.9634 45.0688 44.9148 46.3604L44.7619 46.5356L44.74 46.5574ZM44.74 45.6599L44.8274 46.0101C45.6794 44.8061 45.8978 43.0328 45.4391 42.3979C45.308 42.2009 45.1114 42.1571 44.8929 42.2447C44.3686 42.4198 44.0846 42.6606 44.0191 42.9234C43.9536 43.1861 44.1065 43.5144 44.4779 43.9523C45.1332 44.6966 44.8274 45.4847 44.74 45.6818" fill="#FFFBDC"/>
<path d="M42.3807 48.9874V48.0461L42.4244 48.0023C42.4462 47.9804 43.0361 47.3674 42.621 46.5136C42.337 45.9226 42.2933 45.4847 42.4681 45.1782C42.6429 44.8717 43.0361 44.6966 43.6915 44.6528C44.041 44.6309 44.3031 44.7842 44.4342 45.1125C44.74 45.9882 43.9536 47.8709 42.5773 48.8561L42.3807 48.9874ZM42.5773 48.0899V48.5058C43.7133 47.5645 44.4124 45.9226 44.1502 45.2001C44.0628 44.9812 43.9099 44.8717 43.6696 44.8936C43.1235 44.9374 42.7739 45.0688 42.6429 45.3096C42.5118 45.5504 42.5555 45.9007 42.8176 46.4261C43.2327 47.3018 42.7521 47.9804 42.5992 48.1555" fill="#FFFBDC"/>
<path d="M40.2617 50.8263L40.4583 49.885H40.502C40.502 49.885 41.2229 49.3596 40.9826 48.4401C40.8078 47.8052 40.8515 47.3674 41.0918 47.1047C41.3321 46.842 41.7472 46.7544 42.3807 46.8201C42.7302 46.8639 42.9705 47.0828 43.0142 47.4112C43.1453 48.3306 42.0093 50.0382 40.4801 50.7169L40.2617 50.8045V50.8263ZM40.6767 50.0382L40.6112 50.4104C41.9219 49.7099 42.905 48.2431 42.7958 47.4769C42.7521 47.236 42.621 47.1266 42.3807 47.0828C41.8345 47.0171 41.4632 47.0828 41.2884 47.2798C41.1136 47.4769 41.0918 47.849 41.2447 48.3963C41.485 49.3377 40.8733 49.9069 40.6986 50.0601" fill="#FFFBDC"/>
<path d="M39.082 51.6146L39.2349 50.914H39.2786C39.2786 50.914 39.7155 50.5856 39.5844 50.0164C39.4752 49.5786 39.497 49.294 39.6718 49.1189C39.8247 48.9437 40.1306 48.878 40.5456 48.9218C40.8078 48.9437 40.9607 49.097 40.9825 49.3378C41.0699 49.9508 40.3272 51.0673 39.3004 51.527L39.082 51.6146ZM39.4533 51.0454V51.1767C40.2398 50.6951 40.8078 49.7756 40.7422 49.3597C40.7422 49.2283 40.6549 49.1626 40.5019 49.1407C40.1743 49.097 39.934 49.1407 39.8466 49.2502C39.7373 49.3597 39.7373 49.6005 39.8247 49.9289C39.9558 50.4762 39.6718 50.8702 39.4752 51.0454" fill="#FFFBDC"/>
<path d="M37.4654 52.8185L37.6183 52.118H37.662C37.662 52.118 38.0989 51.7896 37.9679 51.2204C37.8586 50.7826 37.8805 50.498 38.0553 50.3228C38.2082 50.1477 38.514 50.082 38.9291 50.1258C39.1912 50.1477 39.3442 50.3009 39.366 50.5418C39.4534 51.1547 38.7106 52.2712 37.6839 52.731L37.4654 52.8185ZM37.8368 52.2493V52.3807C38.6232 51.8991 39.1912 50.9796 39.1257 50.5636C39.1257 50.4323 39.0383 50.3666 38.8854 50.3447C38.5577 50.3009 38.3174 50.3447 38.23 50.4542C38.1208 50.5637 38.1208 50.8045 38.2082 51.1328C38.3393 51.6801 38.0553 52.0742 37.8586 52.2493" fill="#FFFBDC"/>
<path d="M35.4119 53.6286L35.5211 52.9937H35.5648C35.5648 52.9937 35.8925 52.7091 35.7833 52.2494C35.7178 52.0086 35.6522 51.6583 35.8488 51.4394C35.9799 51.2861 36.2202 51.2423 36.5479 51.2861C36.7664 51.308 36.8974 51.4612 36.9193 51.6802C36.9848 52.2056 36.395 53.1469 35.6085 53.5191L35.3901 53.6067L35.4119 53.6286ZM35.7396 53.125V53.1907C36.3294 52.7967 36.7227 52.0742 36.679 51.724C36.679 51.6145 36.6134 51.5707 36.5042 51.5488C36.2639 51.505 36.0891 51.5488 36.0236 51.6145C35.9362 51.7021 35.9362 51.8991 36.0236 52.1837C36.1547 52.7091 35.8707 53.0375 35.7615 53.125" fill="#FFFBDC"/>
<path d="M47.5581 15.9304C47.4489 16.215 47.7547 16.5872 48.2572 16.7842C48.7378 16.9813 49.2402 16.8937 49.3276 16.6091C49.4369 16.3245 49.131 15.9523 48.6286 15.7553C48.148 15.5583 47.6455 15.6458 47.5581 15.9304Z" fill="#FFFBDC"/>
<path d="M48.8907 19.6083C48.8033 19.8491 48.9999 20.1337 49.3276 20.265C49.6553 20.3964 50.0048 20.3088 50.0922 20.068C50.1796 19.8272 49.983 19.5426 49.6553 19.4112C49.3276 19.2799 48.9781 19.3674 48.8907 19.6083Z" fill="#FFFBDC"/>
<path d="M49.6553 23.1767C49.5679 23.3956 49.7427 23.6583 50.0267 23.7678C50.3107 23.8772 50.6165 23.7678 50.7039 23.5707C50.7913 23.3518 50.6165 23.0891 50.3325 22.9797C50.0485 22.8702 49.7427 22.9797 49.6553 23.1767Z" fill="#FFFBDC"/>
<path d="M49.6553 27.5113C49.5679 27.7302 49.7427 27.9929 50.0267 28.1024C50.3107 28.2118 50.6165 28.1024 50.7039 27.9053C50.7913 27.6864 50.6165 27.4237 50.3325 27.3142C50.0485 27.2048 49.7427 27.3142 49.6553 27.5113Z" fill="#FFFBDC"/>
<path d="M48.279 34.4292C48.1698 34.7138 48.3227 35.0422 48.6067 35.1516C48.8907 35.2611 49.2184 35.1078 49.3276 34.8232C49.4369 34.5386 49.2839 34.2103 49 34.1008C48.716 33.9913 48.3883 34.1446 48.279 34.4292Z" fill="#FFFBDC"/>
<path d="M47.0775 37.6036C46.9683 37.8882 47.1212 38.2166 47.4052 38.3261C47.6892 38.4355 48.0169 38.2823 48.1261 37.9977C48.2353 37.7131 48.0824 37.3847 47.7984 37.2752C47.5144 37.1658 47.1867 37.319 47.0775 37.6036Z" fill="#FFFBDC"/>
<path d="M45.9634 40.6027C45.8541 40.8873 45.9415 41.1938 46.16 41.2814C46.3784 41.3689 46.6406 41.1938 46.7498 40.9092C46.859 40.6246 46.7717 40.3181 46.5532 40.2305C46.3348 40.143 46.0726 40.3181 45.9634 40.6027Z" fill="#FFFBDC"/>
<path d="M44.7619 43.0984C44.6526 43.383 44.74 43.6895 44.9585 43.7771C45.1769 43.8647 45.4391 43.6895 45.5483 43.4049C45.6575 43.1203 45.5702 42.8138 45.3517 42.7263C45.1332 42.6387 44.8711 42.8138 44.7619 43.0984Z" fill="#FFFBDC"/>
<path d="M49.1747 31.014C49.0655 31.2986 49.2184 31.627 49.5024 31.7365C49.7864 31.8459 50.1141 31.6927 50.2233 31.4081C50.3325 31.1235 50.1796 30.7951 49.8956 30.6856C49.6116 30.5762 49.2839 30.7294 49.1747 31.014Z" fill="#FFFBDC"/>
<path d="M43.1671 45.441C43.0579 45.7256 43.1453 46.0321 43.3638 46.1196C43.5822 46.2072 43.8444 46.0321 43.9536 45.7475C44.0628 45.4629 43.9754 45.1564 43.757 45.0688C43.5385 44.9812 43.2764 45.1564 43.1671 45.441Z" fill="#FFFBDC"/>
<path d="M41.5506 47.9804C41.5943 48.2869 41.8346 48.5058 42.053 48.462C42.2715 48.4183 42.4244 48.1337 42.3589 47.8272C42.3152 47.5207 42.0749 47.3018 41.8564 47.3455C41.638 47.3893 41.485 47.6739 41.5506 47.9804Z" fill="#FFFBDC"/>
<path d="M38.2737 51.0672C38.2955 51.2423 38.4266 51.3518 38.5577 51.3299C38.6888 51.308 38.7761 51.1547 38.7325 50.9796C38.7106 50.8045 38.5795 50.695 38.4485 50.7169C38.3174 50.7388 38.23 50.892 38.2737 51.0672Z" fill="#FFFBDC"/>
<path d="M36.2639 51.7021C36.2639 51.7021 36.111 51.8334 36.1328 51.9648C36.1547 52.0961 36.2421 52.1837 36.3513 52.1618C36.4387 52.1618 36.5042 52.0305 36.4824 51.8991C36.4605 51.7678 36.3731 51.6802 36.2639 51.7021Z" fill="#FFFBDC"/>
<path d="M39.9776 49.8413C40.0213 50.0383 40.1524 50.1696 40.3053 50.1477C40.4364 50.1259 40.5456 49.9507 40.502 49.7537C40.4583 49.5567 40.3272 49.4253 40.1743 49.4472C40.0432 49.4691 39.934 49.6442 39.9776 49.8413Z" fill="#FFFBDC"/>
<path d="M49.8082 16.5653L49.7209 16.3464L49.6553 16.4121C49.6553 16.3902 49.6116 16.1494 48.5849 15.0985C47.3178 13.8069 44.6745 13.5004 44.6526 13.5004V13.2815C44.7837 13.2815 47.4271 13.588 48.7596 14.9453C49.9612 16.1713 49.9175 16.3683 49.8956 16.4559C49.8956 16.4996 49.8519 16.5434 49.8082 16.5653Z" fill="#FFFBDC"/>
<path d="M22.0205 52.6872C22.0205 52.6872 22.3919 52.4902 22.3919 51.1548H22.8506L22.7195 52.118L22.086 52.9499L21.9986 52.7091L22.0205 52.6872Z" fill="#FFFBDC"/>
<path d="M22.654 52.118L22.7851 50.9577H22.3263C22.3263 50.9577 22.5885 52.118 21.7365 53.0593C20.2291 54.2853 18.3723 53.6942 18.3723 53.6942L18.2193 54.0664C17.7606 54.0664 17.3018 54.0226 16.8867 53.9569C19.2024 54.7888 22.37 54.3291 23.1128 51.6363C23.222 51.308 23.2657 50.9577 23.2875 50.6074C23.1346 51.1547 22.938 51.6801 22.654 52.1399" fill="#FFFBDC"/>
<path d="M29.4043 52.118L29.2733 50.9577H29.732C29.732 50.9577 29.4699 52.118 30.3219 53.0593C31.8292 54.2853 33.6861 53.6942 33.6861 53.6942L33.839 54.0664C34.2978 54.0664 34.7565 54.0226 35.1716 53.9569C32.856 54.7888 29.6883 54.3291 28.9456 51.6363C28.8363 51.308 28.7927 50.9577 28.7708 50.6074C28.9237 51.1547 29.1203 51.6801 29.4043 52.1399" fill="#FFFBDC"/>
<path d="M28.7927 50.5418C28.7927 50.5418 28.7271 49.7974 28.8582 48.9218H29.0985L29.2077 51.3737L28.88 51.308C28.88 51.308 28.7927 50.9796 28.7927 50.5418Z" fill="#FFFBDC"/>
<path d="M25.21 32.8748C25.21 33.05 25.1226 33.1813 24.9915 33.1813C24.8605 33.1813 24.7731 33.05 24.7731 32.8748C24.7731 32.6997 24.8605 32.5684 24.9915 32.5684C25.1226 32.5684 25.21 32.6997 25.21 32.8748Z" fill="#FFFBDC"/>
<path d="M27.2198 32.8748C27.2198 33.05 27.1324 33.1813 27.0013 33.1813C26.8702 33.1813 26.7828 33.05 26.7828 32.8748C26.7828 32.6997 26.8702 32.5684 27.0013 32.5684C27.1324 32.5684 27.2198 32.6997 27.2198 32.8748Z" fill="#FFFBDC"/>
<path d="M29.3825 21.1626V21.097C29.3825 21.097 29.601 21.1407 29.6883 21.1626V20.681C29.6883 20.681 28.7053 20.287 27.4382 20.3088C27.0013 20.3088 26.5207 20.3307 26.0401 20.4621C25.5595 20.3307 25.0789 20.287 24.642 20.3088C23.3968 20.2651 22.37 20.681 22.37 20.681V21.1626C22.5011 21.1407 22.6103 21.1188 22.6977 21.097V21.1626C23.2002 21.0532 23.6808 21.0094 24.0958 20.9875C24.358 20.9875 24.5983 21.0094 24.7949 21.0313C22.8725 22.3448 22.086 24.6216 23.1346 26.5262C24.1832 28.4527 25.8653 29.5254 25.8653 29.5254C25.8653 29.5254 25.9309 29.4816 26.0183 29.416C26.1275 29.4816 26.1712 29.5254 26.1712 29.5254C26.1712 29.5254 27.8533 28.4746 28.9019 26.5262C29.9505 24.6216 29.164 22.3448 27.2416 21.0313C27.4382 21.0094 27.6785 20.9875 27.9407 20.9875C28.3558 20.9875 28.8364 21.0532 29.3388 21.1626M24.5764 27.38C23.0909 24.1837 24.9697 22.2572 25.9964 21.5129C27.0232 22.2572 28.9237 24.1619 27.4164 27.38C27.4164 27.38 26.7829 28.3432 25.9964 28.7154C25.21 28.3432 24.5764 27.38 24.5764 27.38Z" fill="#FFFBDC"/>
<path d="M26.5644 41.0844C26.5644 41.369 26.3241 41.6098 26.0401 41.6098C25.7561 41.6098 25.5158 41.369 25.5158 41.0844C25.5158 40.7998 25.7561 40.559 26.0401 40.559C26.3241 40.559 26.5644 40.7998 26.5644 41.0844Z" fill="#FFFBDC"/>
</g>
</g>
</svg>
